<mxfile host="app.diagrams.net" modified="2024-02-01T12:14:14.343Z" agent="Mozilla/5.0 (Windows NT 10.0; Win64; x64) AppleWebKit/537.36 (KHTML, like Gecko) Chrome/121.0.0.0 Safari/537.36" etag="NEWannmozyCyQE3wzOHZ" version="22.1.21" type="device">
  <diagram name="第 1 页" id="j2YGMM_NLYYHjwFQqyxh">
    <mxGraphModel dx="3990" dy="2535" grid="1" gridSize="10" guides="1" tooltips="1" connect="1" arrows="1" fold="1" page="1" pageScale="1" pageWidth="827" pageHeight="1169" math="0" shadow="0">
      <root>
        <mxCell id="0" />
        <mxCell id="1" parent="0" />
        <mxCell id="8fhLexQfbAsfG3Kv4HzY-2" value="" style="shape=image;verticalLabelPosition=bottom;labelBackgroundColor=default;verticalAlign=top;aspect=fixed;imageAspect=0;image=data:image/webp,UklGRnZ7AQBXRUJQVlA4WAoAAAAIAAAANwQAUwkAVlA4IHR6AQAQOAidASo4BFQJPjEYiUOkoaYkJ32o4MAGCWlu/7Hd3wnGU+a6ZLC0GUPNo7WN9F+zH/18o5V8IGyc6K+p/7Pjlek/3/pQMY73b/lewd5sGam4x5oT7D9Qn2Vj7IBt9MRLxPyx/vn7ifSxzb6T+yvCf7v/7D8Uf+H/R/ID+ge0P23/U/7/+Y/W7+q/EVzd/m/73+2H9l//v/Q+6P/w/bX30frL/yf574A/43/M/8V/gP9J/wP7/////F+J/Vj/g//Z6kv6b/hf+X/lf3h+an/v/9z/Y+/D+3/87/g/sz8gf8z/uX/B/NvvdP3X9g3+r/57/ve1F/3//P/rP+R///p9/q/+1/8f+v/3H/7+hD+Xf2//kfn18gH/09QD/kf//2APTf8f/5P+h/J39wfnP8n/rf9H+SP9+/83tD+T+3d7T/3j/0f6T20POf2x/6f9t6tfzX8Ufk/75/kP9l/f/23+1X3i/k7/m/2b+I/zr+7/5n5mf5/9o/sL/HP5l/gP7l+03+A/cD645e3RvvL6intJ9d/0f+E/zP/G/w/7xe7N/cf4r9vv3/+o/0f/bf8r82f8x9gX8u/qv+o/xP+K/6X+B////f/Cv+V5Hv5r/tf+L/BfAH/Ov7p/y/8p/sv2b+l/+4/6/+e/1X/r/3v///+Hyz/N/8//1/8v/pv2e+wn+Vf1D/c/3r/Pf+b/Of///7/eX/yvz/+i37c/+b3OP17/7v59iC+3AsYl5RtHqTB24FjEvKNo9SYO3AsYl5RtHqTB24FjEvKNo9SYO3AsYl5RtHqTB246c8o5Xnd3d3d3d3d3d3d3d3d3d3d3d3d3d3d3d3d3d3dzvtJMLZMgcXuutZYFAMOTBdfeSNBOTxdWrUoImiUzKq5i+FK4GnPKOV53d3d3d3MmnK6PWHLSjiMcITWwNNnKPYcZP0BTCT2NKPDZcbzqFkkfA2bpydgVxJNZ71rWaWTgXKGwonnh6s0exxZ05h5x1ryVgj3WbvTKVxHI6zdYCM5MGe0gPtNlm682PIAgTnw3yb/U6nJC12+f58FeqXSyLhPWZmZmZmZmZmZmZmZmYJmgh9q4C+PgEwvqoAXtvfsaD+LoOoNySoD7D1OCsck++XC+jTJiDFiXLLRQSbuenHf7ePxzKQCo+GToA3KNiYG9l/5Q2Apgx/kFe+W3PTRvB+rFXDjzJjOz2Dufpn1sEFXvDmei/DT++OB4T6Cc1/26Qaaknl3pxdzIQY4FQN/F+91j2xQrur1T4s9F+ekb9zs7tJFWf2Fgn2EeszMzMzMzMzMzMzMzMzBD/GBbVwNwu6L8xM8F5hQhOL5HlSERhxEXv15atUVNInCEDdaVdslTQ06o1SOBTwq3I6mcTIyPs89duB4mLcNr+wUTnTuc/a+nYJJTMXANycstSsTzqLqaOxtqSJEgVK0nuaQpczxNY//a7/K87u7u7u7u7u7u7u7u6ZdxTJYoQjqlQWE643/XunOTFb5K06KLOkk1mZmZmZmZmZmZmZmZmZmZmZmZmZmZmZmZhFNOeUcrzu7u7u7u7u7u7u7u7u7u7u7u7u7u7u7u7u7u7ud9p0UWdJJrMzMzMzMzMzMzMzMzMzMzMzMzMzMzMzMzMzMwimnPKOV43R0AZ6M2/ic0Q9E0feTy5qTLwGWg3YZ5LsPIKvxwyC8VxLHzMzMzMzMzMzMzMzMzMzMzMzMzMzMzMIppzyjleOE6gwFLHT65iVCYyicxqInbNgXVZXtknBe5lH3KxvUhOzeHH6FKSgJy2wmlpzyjled3d3d3d3d3d3d3d3d3d3d3c76/cKnMlIZuak3c9y0Io5fjWZFexR3h6fBTBwRdveKMfFakaq2EjA7slo2YDk1Imm87uQvpNBVvTYl249iu9Ye1DcvO9p8g/hImYG93d3d3d3d3d3d3d3d3d3d3d3c1FtwYL2Qjn7K35oWpdgzlfvkO2qpAnArJtQuj9rFcRIUFLl1VItW8FQE7QbzEnBkbO9cfXPq3LvvCXGKM/HWwLR0CjSJQbdnl9OVF/qYiWWxed3d3d3d3d3d3d3d3d3d3d3M31bYS1GqsCNDcPiZhFLglkPu/v6FoxornnCIvfzDWX36vN+vSLutD+E93qBEbN3wVX+r1q17gndXoyT9fyWsWZhNrOXwiknd3kusCbPoXf7cXrN7DINOeUcrzu7u7u7u7u7u7u7u5vVigk6yFbdpTro01i/ZEEYGRC1q6e4cgE8lKR8M7qoEQhS2zLTWIrXmUjjxVsMepuQAhjdVHM8ArJyQrK9JJrMzMzMzMzMzMzMzMzMzMxTQ3kUqMx4lkwTz5NBmLxloIXpsCvmGie2e/ZIAOMfAay4OJUJLSXjrhq8GvQR68a67mEbngZdCwabwy8zHQNkWgGMI5Xnd3d3d3d3MsTs6FAEA5635obTcoZmDT5kHtl7QrqoaCtXWb5wgpiPrKUn2GjJf+iyJZdLp1vAmD++HIAZ//DlX3015hpK/2LWA1eQiNbXcyNWJYu/sLG8FXZKfScEvWG1jUBu2DJrk5BBQfP5XID7FYIuH2Wbhi/Bgw9Xf/5BKvsP8Jf54nZ4smtnKW4PKHgWM1okwIdWrdgbxNW9VJ0TALCu+zwFJ1jYQmkXP2XTXSeYuLgHcxcdS+udXXAF6STWZmZmZmZmZmZhFNOeUcrUK2ncRiroxsfymUMQogdzze14geutJIpfCEdkAKWE2iFQM5PXpJIrtjid62kAYNKmSLj/YlB+8tUHCvt9GhR9qeuDqimbHN0Cot2l/iy/HH/DBhYzGKQznfxIeODRBSv5t0ez5xW+EUyvVd0TXEWO+elaq2TLu2to4ZkCG9T2SY5aMIn/9tbMVOjYEqmbvRA0cY/rGbWvbgeidTx7gOWduuotWBSuBpzyjled3d3d3O+06KLOjES5JzQp0lATA4FJMJ9CK19fxie+5oGPw9bTArLh2A1T3sTc7cakqcs0LmBtFYRVJM+B6/qkDXdDqVvaKU+6enEfVOIWb9CoXVn3pDDBMGF3oDfQKZ/ExBedoPKa4FViGlcbtF7+teka7PKy0OFF9IgUrgac8o5Xnd3d3d3c77Toos6STYNuEYf/7s55RyvO7vGOrrfJWnRRZ0kmszMzMzMIppzyjled3d3d3d3d3d3d3d3d3d3d3d3d3d3d3d3d3d3dzvtOTUbD9T/qqRPJE8kTyPKwxlDGUMZQxlDGUMZQxlDGUMZQxlDGUMZQxlDGUMZQxlDGUMZQxlDGUMZQxlDGUMZQxlDGUMZQxlDGUMZQxlDGUMZQxlDGUMZQxlDGUMZQxlDGUMZQxlDGUMZQxlDGUMZQxlDLO7+FKGCRwMJbynVec8M2YetFZF0uSG/BJE54Zsw9aKyLpckN+CSJzwzZh60VkXS5Ib8D8L1DAwnmw1usmiKX9IplX6JZ0kmszMzMzMzMzMzMzMzMzMzMzMzMzMzMzMzMSTqgiE5uSyXg+rToos6R7TCh6Msgmt8kxKjvpFadFFnSSazMzMzMzMzMzMzMxF0vnrCPsah2kbDf1dK0czol7qy4RYwHd/Rynw4cm0hTXQZ0bKmb/7Ff2haF9chnQLyI6cvrfvLoURBoJy62+Z5xIOzOn8/pojit73XBi4sRIP7kVp0UWdJJrMzMzMzMzBUW4rmgDhj3KN7nK2uJuDmTGBDUi+/3NLyzzKc//u+k0ZbDqLHV97dneORJe5DfWuBVDGFVaJ6nOfqZtaCkIPkpXn9cVcBFXq3VVfoiMQaM/Be9KTRNSAKtwnc0xTmNd0sdD3UWZQGW2FhFOpSUQDWdDF5RyvO7u7u7u7u7u7u5mTlh1ZUc4RIfXCtRhrFhH2NQ7Ywj+RhAS3x9IQx6aq69vh7lIxhKGYP4NMyxjWDi6AKrtfMI+Q+mFRtZ2kvpuRP/Vag9FCh2i89fHYTIXRdONLmYR2NxaHMiLC9Bol+ST2c1CWeZT854FN9iK+upbF53d3d3d3d3d3d3d3czUjWt39rtzn83FXC9m0gUwMK9R+YvD60uTQ1OkmA7v3GZmCXHmzp0MVJ6v8J+V6PSHni6Mneprxm0XZK23cIBuVaqZo1RwX3HidOQDYmGgNVieIEjiQ+4mex317FLRRZ0kmszMzMzMzMzMBuTBarTC6ejbw1sibrV9jUPGxGZ0j4xVcbq/YOeuiXCFbak2hQH5jkBjM1fU4xbTWM6y6ZiYKk9bw4qeEVktB9YwK6EZ1ZkXTaZn6ZP8HlZoeXhYTpYXnehrF8KVwNOeUcrzu7u7nJKP/oQGABHJoyX5oYIacx7I1mZmZmZmZmZmYDX3Q6yQiqJE987oALZ+YdBWnRRZ0kmszMzMzMzMQlFoVQwil9BjT+d6WdJJrMzMzMzMwOf97o5tw6YhjsAnEhARAYRAJxIDssBcuAjwAOA4UoMW9os6STWZmZmZmZmZmIXG13uaiakUG7OeqLElsSVU5mcDo80DA0Ze2aVB62wg95Mvx1d9QAbQi9X0pWi/burzV+/Z7YLD4FsuZ6mGrZUOQo6aCvQv27q87rv27q87fPWdaecqGL2jOL1qGL2jOL1oihLfT918o0fQ2mt8lacYaE48ICdE3lFhwLeXuOqcl+VnW7pFEpdhZl/bU4N3/ks91R8BXT46wSzLkQVPVAr5yYW9T4ySD5+b8VsZRHKKr29KesBPS/Y1nKuxKFHWH3nysVU6STWZmbZsckfadFFnSQEzzrMKBwDMBSDpaSJFoW+v5OK2g1MvJUcDwbV/UrfKVB2qEiqSlVUeh/WQT82Qet8Tb2LCWnpbnUOi9jLBS078zWqwHrmmfjr18t3iZmutt5CCVvBANjToQ/ZjnaNhJxiJ3XK76Qbs8o5Xnd3d3c77Toos6R8i/jRvJJakm/ACgznLFVmXA055RyvO7u7u7mY+zPEAF4TlEgSRx/k0s1LGsuzPL26ktkrToos6STWEU055RyvGxVTQMFZFVHuzViy+2eldM8GOnWWZKIM9W2B3PO7u7m6XfGxtczS7WgvsqvvblkjECyQP/CuW3fsyXCdlYZXPAY5krhrQYRQjWIFwx6F7kuQPIE60SHCNGFnOixfClcDTnjWvJWnRRZGk5Y8ZvnGyv8qMO2UhdbLLtNAdrvgz042qsF6am87qSmwCGdud7YRtb8EdoQ27XpjvH1xBRnb1OjA1l44MvaTmhk26DjMDiCfVNl05TC5S6g1JAqlYCz6HMwpVAWB6uU1F3rnjOMC+aiOSSkk1mZmZmZmEU055RyvGY8U8cJViXVu1IHMB0xpuYphclds+2gXVjoZEY/lScUxJxIPjCGPZFxSwjpE8t7wpdm3K/KN3n5rXmTT+OCKUghNfaVG8bhhgdk2RJ36LSVNOqSX8II2A3wyFded3d3d3d3c77Toos6R75Wkdzu6xqH1xg3lyWf00PKbw4Q5t74P4YVIUIW+NIMekRwOkuI8HW+OLjkwtq7LXJc1sNKQYJjyeHu/t5sWVsO/XpRxphAmLKRcb4tQjxG24LV/Or3+MFPS3dxXs7XTnlHK87u7ud9p0UWdI98oPM1ENupHWR/WMvF5KvV2L/lgoU+J/JMY1Dwy73zUkmsFH+mAn/7xLKIRosCiQr1JVTavNmnoepc8AtBaWh6ZvJGwMWs7KR61A2hVUXLWOTuf52LtprfJWnRRZyAUrgac8n5R83/Cn+I+qTDkOtYyV1hVWVNDWravwFzq/+EKOAaJP4lHrO+yxaMjbw1SwHlHK87u7ubBLB0XpAtSNfWvQf3Jvqx8kOT0JBVp0UWdJJrMwimnPKOV5DsZ3R4DGBXkWYtqRlsPYsUnLWk8mfD+m4XJJMAmf6iA98XpFiUpD5I81TV1pMbfb8+2G74+NZIl4mCITPvp6hbWQwlJQAtVqkegzm01vkrToTuq2aJH7l/BShxcITI1ZE8Ru5RyvO7u7u532nRRZ0kB2luXczgZjnaW5SOCFq8aUUJlvZd6jEe6/xEkM0gd7nUvw4v4VtYNnaiWe0w5VmFmTRXoN+yDwJPqKLLGgtmhCr9ig2mt8laSxMe6g77pbB85c8ZpB8zvtFF+Hd7fhABKePRYvhSuBpzxrXkrToosqSt2DdQQuNRU+cEDGZu2QA7WjGNbH+4jSgf4EV/dsbgRu0gqo8spmxAT61V9qWLmJRGBIMlkrkzS+gBSF2bTCluEHcd8ladFFkfETK/g+HMKeYRQY139j1l2qaaUXW+StOiizo0LwNOeUcmCahAoNteY32wK+1smZtLBUA3QcEOCO/1Goq6VFfBOC/PCt50opjw0aQGDY49sRnZQ8sRSldQKHQPJLjlZ9bWOPWEYnRRZ0kmhGRzj5q8G16Eyi27l52v+24CJLA53d3d3d3d3c77Toos6SAqoBUFYJeseK4HAvLUb6k230V+MCFJ+3+cMRN/LQ+DqTWZIfg8kBddJqmBoghqR/hNEO74Urgac8ZZ6OsHRSssttYcuYOiqhDWoMfJaa3yVp0UWdGheBpzyjkrsbQ0QylemcDTlQrUZpCx1xgETlQvlne5Zbsx3FadFFnSSazMzMwKpqS5dTJL7yr2QSWxy6mOmMn4a/ZFNRkXnd3d3d3d3O+06KLOkgO03vjvnoVFgq8AI+PflZQFchPrYiIioPF+LrsV0Lwb4NGk8PquuS9HashQuSM8vIWD9Pmzk7WH3BZx4690zM/km9QzvFPHwntiqOPjSbBThnQnhoLWi/buY9tZdtQHF/v8qetfyDY71diPeZYkcEqVTnRYvhSuBpzxrXkrToospRFnC7H5Fs7miEBu5Ed3Vuu51pl223VlwVp/ls3nO+h09n9IXktRmeqEzbtV0QtWGc051YIrEd0gQOSjwmfR+pBZvATeDU4Mr1ZrwhHKoj8qzmTqRWWm5UH7e59e1St7r+yDHUmnVXXnd3d3d3dzvtOiizpICbK5pOt1spN1fwiAgfG/DZuheQaWkr1PvQYfzgWrO50T9WCcTeuASLdCjOCzLPYQ3Emp2NWWhN9uDAfH+mkk3BcOeCwzOvlIDx+8tEB0KOkk1mZmZmZhFNOeUcryKq0Ktvnc6szM6jeEvD/7CqbtNBvOMo2Dy9f76QhGVP2FbkkHXBPAr0EfsMg1++f8wIIwdLdwl7XSy8R4lpz+YnwjcMuonE6KLOkk1mYRTTnlHK8hZG2o/a1uG1+aKcesS40gmceY/q6Gk9XPTCBiF+SlQgSNRhGvR8FlLuRAG87zIw4K4Z+OnpEcVXVd84gtCaSDrbcQGGhJCABB2ySQRH/mlgYV/CsHyv7v+HB2Elm01vkrToosmClcDTnlA5jNtUM9PugkB9dZ6uupNhDDmxa3zsIKazNKdb17fFBvpJo2wzBvlHriVVanbQb/ghseJl8QBDCs3wJ1qGtdNLDdcQkQx36cUbVDBGxrqHUo6iVLEUneh3jrvsFSs2GcfeszMzMzMzMIppzyjleQ7G3+oEnDxalaUW7ygS81TU7HnCHIzrptdz2YUNxWi5TKI97VS06SNBXfKZVKS4WJcgFaFDu3y/7zBkhKKABtwGGZB4v9Nl8IKtOiizpJNZmEU055RyvIdjQUnjnlImxZkgN3d7U4zscJWCN9WzTfyl3hEmUqBqKdjmEDKohsftb8QhJENyFJx4UxrMzMzMzMzCKac8o5XkOxhvT3Mn4uWyHO84asZ2wRUaGHQJNC+fI8tlODtKP5RsNIF53d3d3d3c77Toos6SBhaifKOU3p/q+qB0WzEQ9PGcn8yvF/9d+GeqghY7pCjled3d3d3O+06KLOkgJsr5YGpCG9iN61RQlSLGtyXt+jVw5bArKalvfm1MXFFxyM7BeiizpJNZmYRTTnlHK8irmIziCJU98Zq5JN5EDBk/KDEUzVg6gS5Glo5klHj9iD0OjfcDno8CtHK87u7u7u532nRRZ0kBNlfgv2WL4GFxPDumUn1/T1+X1NUENX2kt+GxFomBlRqA1yQ5Qo1+XDevWpY4v7rs3rgac8o5XjvtOiizpHvlDgJo/gPo2D/61xPrPT72ipBQGp6N7ZiI8YXono0+Kyq6LjPqYd7R8DsWiizpJNZmZhFNOeUcrx+FPaoWvdY+xP1o/fONy8QgzKUnqZ/PNBN8qDq18tB5DLQBOFMazMzMzMzMwimnPKOV4/CbD6WGQIYXGQBl/xrDnyNZeSZx04Zqm4XFUhT43ePtvFntSm3ZBvBrUXnvRuRosXwpXA05yYrfJWnRPG5t7W4hdCXLYI7yL2rMYVmbA5LUEUf+cmwqwJtG4+94CQ1vFpUoZOkv8pvwtHyD6wF132GSk5CTma71Od3GD0sOo8kcEOTOTQ5QIl/v+fI0CFZrHrKYi63yVp0UWdGheBpzyjkYM4Zfun67EWv6eWL0bhUMcZXCAGTFuhtHaHKOvxI8LMA9dloPYiIHkzs4bppRG07vQ3SQ8LwzjfFEkjy1ba2Ume9U/4BbIMBQdT6w47eC9FFnSSazMwimnPKOV41Zom37WTGC5OyAq/gsYMrpnFqZ9614QCl2iyQZWT2hnrLh5NOA0nXt2aaGDtQrR/ridRPh8h5LtjeiywnQXsWA8pHv8gTqi9jSSIpp7G3R/yXlCbqW98X2Ph5dQb2FqKQ8G1C3uclxeZf2TvkVBGmszMzMzMzCKac8o5XjVm4IjpDcg6RlQvFJxN7CCeznv+FwFvHtpxoSES0eyRNs/CtYsfc5gIGAJPouAa0Ib11OWzrzsmG06diTsTZLYlZPHrlUwfIu0eVNoEUoCXlKGqQr776degMegeaPJlpg4A6zd25HWXgv151i+FK4GnOTFb5K06J18v8eLjOM0U0ZXAhTyNfdkqPya5XkfMbbmi99a29t5ea7VDVnz9P5pCH3YZeOhLySLGwKPjrHs6NKq1mxXrC9/CgWjqlLVMXePNqpXdWeq4WshTeDk96vcgNg2+StOiizo0LwNOeUck4TPYlzKWH6zAHHLfEQfyhN/cHBJfujcBHkUIunMpUWtrt9ta/0A4+TNAi2yFHuEd/ygM1i/a9FRb25jim78A4Mu/ieDZPEP/eWpk4TQAY24ko3qEuPTY34yWSsRBjHKjj5kjsnIa3yVp0UWcgFK4GnPJ9MVw5h7y+ZLKMRM0p1bZx+BLpHeuuj9l7qOSg+D8Xb1IXJu9aW6Y0Gl6HBo5keRaq1aYABLESiha827y9RUivG2SAVOVNGjIX6lcqWr/r8UIcWMyKsErDpAJPOGZSo+XayFKU7VF5mlNhSn0NaqF0h3jwG0KxXIeaf2HynbGtOiizpJIFNOeUcrxscb56SfRPe9bkdhdz05GwSQSs5L4U71Xg+OWWXTGwCCIbR5MV3n1Z5zB9Hi+YR7/+I+tBX45x/JTCeak3KNJG9m7+YPYe98bKN9ZqjhgjxGZcOso60hHsVIXeJiHXDenSJhn8AYv7Ii99DxEtAY9b+V+mbvHj7BdpSIsoXegrqekDePyVp0UWcgFK4GnPJ+gt/Dhv+wHZLsXHJZJ8vF3V96Q31N3ujoBkFPO3cYq4+StXd/81VkiPB9SuT+WvsWmAPxbw/iWviB8L+WJRYM+z56Br7gJ5HSeXyRD/kSF1xrSa5sqo1iqgJhDZ9g05wpr4nxfUs7pvSrH2Dyzq/0JygUZeUYTGHaBnRI2GvXA055RrdJWnRRZxw0cGTFdBkG/4Foq0yMP+4q+ILUqoYytyvRZV61TWTYCJic8YrYmKqI6Qstx6Dhen4ozqYpuhV2kzcDoOQeW+OKNIXC9Cmzd7SBXQ1w73tORCB1IiK/Gj/0EjIH1IdD8oadyBhslL0smX7JwP7LhYe8tKtAVZVJim+mPWlPCOYWHvkBLBAy+LdBP29dK/33n/WL4UrgaPobTW+StJfGWmC5AlyaPPonyHBm5mOnOfsMtZMMx4jANLc1ur8xycmyOKqxYVo1MFAIWkSzXDk0V7WK5uRQbZiobDaYF/5E93sXF2GYSHILLsqmTDmcYXQRXIa6e04joRNxD/g3vPLk7NFepeiKzuVgRDNXqS4XcoY+GyUufr2tw6huJKNXIvm10vySoIcpX8gJB+ac8o5XjvtOiizpHwuIerUUMu+tWn0/qmlKWnI9ntGFDMk5QhXkhI770vd/SVphgDlAC08P6IsDfc7Zp3ifGi2kq08CrUTKdAH/262PnG4HUS9AyR+V+erGlcogSzDldkkEzEeva6zBq1A2S/eW4Z5lgaubxtQ/IUPBtdZ4vjIhkx3gwAJDO9bbCY3pm4nyafuU6TlkZl45kijuOGyv6JUQrKvKI82Ep0UWdJJoimnPKOV42OOg0+lb58ai+7ME3NlHizMuHStGIh668SwM3LB0S6CZlC5FDyTLnguN9l7EcDckBzdo8+MoQun7jKUKGKnRSRwKq9KcBYqOEVHwWme8Qb/JMPDQjOYdQwM2x7xD/y9kjcaUXKgBfulYzOxQJJG1DCgBgaUwHli6xJSHH8R93VyHXtFi+FK4GnBtNb5K06FrYn0//YqoD6SYndMXT+cAAO+mtAZBdCgpPuoUj6L8FTzdjSCrfyZf1E+rJWKwMs7w+1/P7raU6CU9OgjrmNow4l2T+Kxrsi8cZDagevUIW3QOBQQ5pSPGlR1VwuckCpzxLhrPmscwKFU/giKeSY2C4UQRCYJTcXmATopkyNZnHvnkgl4Ld75976lu7+1vkrToos5AKVwNOeUBOu8jSBXwpE9h3Xs6/jYf68IQ4NtWOBQiEB68g2DyTvw2+gB6SF3DMXlQKJQV/uc6gYBMqxJXccl/IaHBZUtp478EGxQ31oMmZcEE8WEGEHTVMlevkVarj+KKVC+gSEvdofSC/xeaML4G7uEF5KTqKFJszHxWv9NtCdhec8Ys395iScN6V5/4c9Mxd1wywSkXFm8ieXfMqsYJ+jwECAjQWOV53d3d3O+06KLOkfuf2evIbw2lmcEPA6hwrcUb2rFaObda7bcFFv67pc4Olz+rGWZ5QXovEUc/e1bg2yz/nwQbLD3DfRx0p4qkfzcVPEJ+oKUDqja64myMY/wxbYtznSjM56iM+/Xb/GitswBgBxaN5Q6H6IYMiODSmAU25SThSBW91KVSkLJFOJF6KkLxUGg2bITYnizX0/w2Ih3mqY/58V02z097gTUj3iSwcbbJrMzMzMzMwimnPKOV49/pk8DdCznQNMi+LKafmsHpK0+jBMXtygjaspk5AonOc1tJy4KRG/seS4kFETQY05N0NppcbbIk4Wd/c8sUvj4lilSfdBc3LwujMbpHhg7MpNhOzPKsULbIJWsKIC9q9w+itEKHXM1FOo+5M63LLnBXwk+obg0q1ly1X94aL3QarleJzJoL7oanlZVmEMcW4P+xUkNEQ6y/npnHtD6uxLOkk1mZmZhFNOeUcrxhldwBW6EfoURrBFtt/qwrRpTBQIUCbvvZzPhv8lF1B3v4T3U30lOgd0Nc7pkTfVXpkP9UEHB8dyaV9SfQYSdGI4/37qwVE1AmTFc/cZ5i/3pcdAVFlEExTVXzvgksS5QteApFILOFqW8PGkgnrolvfAOderQID/OQ+Bbzp1uGr8gS+riO2BmLgv9ENgPHKv2AExs5Qe10kcwzFpzVuu0AnbD9zGT8ZANqbhgROVWOV53d3d3dzvtOiizpHwuIQAH8p4EYXNVbQF889mHH50xGtjUYmfCqvOh5ZamN+6uxPFC5Kk+eTZdacTbdVtvApdiGQpQP0YFoIFJY1oZ9OwRHj334+w/8S+mTcEiLRxK22Qrvogk+aj8yPLkpkk1YvbIgiznfSO4g6uqzbmYWx2IUgXdryRL4zXYU9Vnm31o824hkfEaOb7Z3XAz4wm6cRk/sam4VnCzgCXk8rFKpXmL0U5dpmTv3HsgX0AtHRi45TCTJFSuBpzyjledzvtOiizpHwuUimYWRjxJRUJX1N95Kb/oLXaKim1dAJRTAyeeBiutl7vLUFDaeGpJuZSE3B+xW0xwj7awdivlKp2qOPPMtAVssbWt9utdb4FMIBezCCzQ+K/y6kfnNfiBe7psAcu/4Kx3OFnquI2OytSbH55D+cmOFOlSLgPZ9sAK63++2S0zaEfxFHZww++O/TA+UBaTqBgv6Yi3G2FeJ9neZhZFl8dhOwNB1FcnMQUKZ/yXL7lWAKgoZtOFvGETjZYyGZv56LXNa/sL4Urgac8o5I+06KLOkfubOC/bTNYXEJF3OzzIQoo97b7zXE7liX7ZKyskCgJoHcs9aUZk0tEkFGwNAmQQa9cs3YPG4rIQB9/cpNLw55+xkT2u6WrHko/RjoGbCD1YarRTAw7Jd5vpUAJ5s1O+fhOg+ONjSrAdSMi84UIjhEoTmSGmwJ/PYzVmR0E8tro87n01IqlxxEunrun4xgrNF4bH/JXE9vZFADagkBoTSo1SNN0IRWuN7SFX/l8n+sxvXI2yycpC10CZPczi1p0UWdJJrMIppzyjlePgA4j3FP7DR5FzIhx5O+TTvxGISMdi3pw+MIpVjV/Eyp+jGhzhv5RGLpszVg5BLdoR3PUda/OLljmUpvHRyv3xzpCiq77ySzmxYBM+rwsF/1kpA8RFZdC7qY33mC0vepdcsGtmXwXaLpsXWSmCa/hmcQUh3XNJ0ZJAr2idFf66J/w1knVryhfL4k2tGd/5W5YNIbhV+dmkCVDuKv51RrQ8X3DUVJNZmZmZmZhFNOeUcrx8EiHK5PL00GAhbF1YHftyW7sbBm0n5QqTpL+1NSz8d/EIBwb6gl+/77uwy1L/OAQ7nGzTkozHgR2IB8ADQvYqGcf145sD6kM1VA4soZZ8fSPzRCLyWsAqbICX11BZgx9xWzMafiriD2v9qED9rG7pEFwQ48mDAjR2gqVAZ6l02o5PrfH7Kv24gvi4kEhYnOuFaJjSC9Tu2PtTted4Y2YjhQjsF/0aGBTHipLPKOV53d3c77Toos6R+6vmku3xmvOPHLtA+iBw2JZG82wsQeA9rqibOvOm4kw6yzbJT99MEglG3uTWUgKlPcg/rGbo+2NjHHvsZGydMkG5v+YJzvNCIaKb/cVIQt8HGz/O2/+u7qDxKOlReiPI3j//7agNxPn9dn8XH3KVKmgBSbwayeyvf0xslZ7JAo2RWcUdDvG1Nl/zhLcxNnpR+lOJ+B0otbSpBuTnhbR4GFdlrUd8qt2AFSteP/n48VtKDFAgE/kHwhPWB78vqMVfgxdHxD36TzQ9G+Wb9He9UzWZmZmZmZhFNOeUcrx76e6+XavUP9UVOac0VqvG19WGln0jx2ggOGvX5m+nrDvMCg1TKQvtfz7Fz+YxjLwUi8dFzBXsmGO+4AnH/1TkjeZ1LohYwD1GYmlxkgAGlhW2wX2EvQ0w4MkhRoYSKkzvAzLRpZTjZmtQZmxbwPR2w21zySfK8v2lSXTar82MsN8SHSzHogp1+CIL7oo1QBn/Vk3zJWrAFm2vgxFyfKn14bdR0ntfSOoLtoSzCbyyybhCAtyiIZmvTDRBx8DR2dCm8qmIUuO6H/L5de/7QoEiMWrZHEnlXITLlFnSSazMzCKac8o5Xj4HzF3N5YqlFGt84UkMzEVSXEUlBrksognveSSZofQcRkAc542r7+s3Zlh1bGRchZvUWlcdobuIL6LNncEayJGvi4TD2fTSFqx42IrbQNzznY2Cjl3lUl+byTjiuVEfFMLxkjgJE+CiNnu9RP9gzWdep7AxFgNyYDJxytdaCTavkIk8J8xg7Gbp7kayEqWGkRhYO5tb6DxoWtLamn/9N2qneNeuX/aO7LpUpSQgSaYP1rE8y/sTmRDZo8m3k1hURLAs0fh55neILk4+FP9cDTnlHK8d9p0UWdI9GET/CBJGL+C0dNaT/CtDMFW/PxD9LP2IkrLmV5YpHlDvT4F+qHZnz6W3A8ygOtTj6l+4KqPWj/mv9+7O1gC9ACZe2VfWUH+lYM41bsCsya1eI2wptIQ+rsnhditssMQDTpeHvLp8fs+Wvbz4Go54f8Bo4u1HxT2tBzDzl5GNKqKtVs5LQoYjH7dBQ3R4oO7qdyNKF8083w4mE+R9WlmMXXrR3Sb6pe30U1Rpl1r9KcSuvy1L3irtO7nvRgXsU5DkrToos6STRFNOeUcrxscHNler+nQbkP8AGUY39rYliSdSbrbihi6vZ4GDGtMYSHJZ33B2gAD7n3h9uJ+Fg+QmCdtjPmhQXCQOdusVhYwBwo+A3dRuuZelZrv9iG2TD5z0Mg51QLmaS2GxMevCrPZwt/99xV+tH2b/RRoGqmsyEtlNBltl5el1SZm1nUGClihx8nZJeZ4mNFrtnNvZZvXFvt4FNA7zgBRVrnyVp0UWdJJoimnPKOV4+CrUfY0HkBpJN9P/O345UBvDc65gz6CYlh85/vowkipibv887ByMFPLhCZTwHWbnyYAD9gWrnmCth923YCsQ1QVsqtHNgyHNA9CE0AOChsQd1q4lLuC1alnIycvd6qy1S2paYZTXxA/mEUfZRXyD+0A4dc5t8MoWeFuFG76vgUxlcuO1tswvbZou6RzNU9vo89GRwQvqu4ZKsjKFIJ2qzwr2Fw8sVe4CI5/CRTlexXxn+EIZrK687u7u7u7nfadFFnSPRhE43k11PuK9trfxfzF/l4k5LuKAbihuBe82rKwF6JzjygArZDiNINVppnN8GyB2hZ8lAzdhECEYxPZjNZgr5qBgfwISOmf99wNfNZmxUJ6EjfmFIBJC6UibQhaQYX+fWtEPPJ0Tjzmg17e8/o9e1VpOqwk+LtwOcMK1JiSKT6u+rFqsvFsjrcBtKaF7tzvTDbxvSiDs18KfH4v/ive2tGu2tUmxyDXFK/kbvw3943kwNOeUcrznfadFFnSPhcqd7ZwIdIOz3NV+X4eBq99l48nhPc2XpRBWfQTpCJD2xjDhp//c4Ydmd6Zy+ipvJrOsr7/S8UIdCTsWyoJPfQcbynB0DEnXts+Lkr2myzLXJ/hC68sTParT9vpn+B406zxnWoPyrgwav/6YVqFqIrwkNvXdFbV/r5nWME+g6lYXJp9yRiRkTntHNjCGKh+f0TYBOQzAeON6IPZOurhEAn/JpCmmWoLK4Yptz0Q0Uj4BToy6Rzyjled3O+06KLOjAJmtByNJpNQ8dcLBL/Nff9Jc6FBeAoJtnK6oH47GkC1xnnEqbZ+9rfXd27urESnw1QCVcFZ1Jy9Hpt0UUsAGKHt/w+KALJTN75Fx+MP+lcH5v61BuzMha1zw94233LEwtJgsizJBctbeEQslX4E27Xp3p5H1CouFH9xdkHxjwA5naOdrJrWg9yA9nyVts/RY8NyCJEbDZAcB8D8R3d3d3d3c77Toos6MoSGK9y54fzfdLBB6NYGCUrB+TPApLdIJ7ocZ5xIXH1Zn/Rg0R/lOeIxEA3jrmBcNvxW/X9FMkWkZn8V3mW2CtRWnh/9mceIxYrfH69Serk2IGtl/tM6CYHGwa7e80pTtnJ3KZQf59IQhjVBmU6XMN2Jx2UnfTePTu+EIELQwo/HdJwcq0MobSFXaN2rrX/qV2UlIbZbKzyJTTjVSkDhEKWX6WRQWNkeDCVowvOEkX4XNwGTexIlIqnbwpXA055RrdJWnRRZx8i+WuCwoBIbSh0aWKM+nXdloHj7E0Hrdj2U6oD8eOsu5BN9Ebe9DjcRE9imhFsKj3073fzkIT3obCH/ywUwCVSn7K9vtq3CCZEBDUScvCPTcpw991v+xwStxIz7l1asAKJa79TgZTO/9qdw6DrJJc/LK1PHf5D+KZn+BXbKM3/Q2uIiA+WkmFDltZdoACCDdFGN/eh8DRMrlymJ7UpAi7p/F1klujUSViCr9Fyo9Li4lfmet8ladFFkwUrgac8n6muFKKxHineMG/nWcBsyTOw/sg20bRUBgo6rBPWaFaKVKnAaHc/85pABFDcmXpIFK2EC07OUShQVkKUPdnIlGOq/zJuiaHoPeEenK97K0N3U/yyY/e0KGj5YwrOpwquDkVuO7MXn7sfixvfxgt2DlpDW3JM6wz2HxZC4z4T0r9eiqYw3NVdjGqh5ZfeYhOJjNDh7SEzbcQKSHC2gba/hbR8g2wc08iBLS/x3IOgdBBiiixJ9DlzO7FoolD3ATIVYFpcqqdeaMC2pSK3SBrfHgUuBpzyjleO+06KLOke0Pq9PtLjCfM/Stz8Zw1iO5ITmi9mxr7l+8gEYUNK8TgQktqHpmR1443bWgGLqvSEmtf1GNoeFLoyhuEj0YWV/X2Omx4T7myJZfgx3H4Ymzsagu29G7WE0SALxmkq6WRk4IU8NiIZ0bIf+UqXg4uc53g9DzldcNJzitNPJ9kfCGNpU7xGfsSn6CtrMz5Rzx19VIKZB0QKA9IARyvwzS4+v9Ay69irfRyVp0UWdJJrCKac8o5Xj4B5cGJLPIVOaRjcte7WvxkMallQGVUfHJY6mzPzxzQDyGNTo9ASwfhZAgOUIYJBfQG8wIdQOrBE8V2atQcqhf43ezKT5hvnRe46HHoaFEv5py7PxJ6mgZj4m7dsFEngfF8dZZl8mtvGzfP9viWqf6LS6z66tTzQ9nVwfaAhHv4xMk5yc3CGjeu0n3vw6a3fODDksZd7eGl0RfPoUL7NprfJWnRO+4vhSuBo0ewrijkdsv3Y2e7QPABo6eur9NTwxJRQMdqUfFRL+kfQyHGE6TrvUAwMYeSslHYvkO6x/51dYl/C7Ub9JCkofdMJ52GTccMj6TJ/rW60EPcuitzexmJ8vkcspWNNUI0J6PGTvx39IxR4mdjZBVwojdGM2VHzDntDDmef8q/hk8oRg6hmm35J2vMp+kBdUCzIWd7voJSADW582RvXk81NFmelpvUt5dZu8pK87rt1K/hTOU4v5k885na/y4kP9iB3WZmZmZmEU055RyvGxx1jNNwchZiSK+k1tufJcAD/P48YTq/AoCSHN+QzcmUrs0Z+FiJ3nkZZ0ZdEY7I49QKR7Q6BuxtdR5uDjvtZabadrvo2bLljZMBflbyqDKt5i3nC1XTlHPSzs71oKjT1UcVEKrGdxi182GrKWUIGW3bN1yw+5/aOkN9jjYd5UU+rDLVZj9og1ieQV/ZeD9LUnqePYGCvSC/V8aAILWLr53KVtSw701LsGjIc7LBN6z/jbpSiSojAu7u7u7ud9p0UWdI+FxKVcJ1UgexTzeDlu45AnIvcYFzVBqmMulkLxY9P5GgVppPRIaK16BWvMB+5ZkPajuTrsdL9RSbVgTrzKPYpS3HDCk2e1grZuISwn7+Vd33qb7dP/3z0tcIqIabOejYJIw4qpzf1VKwo4G6f3m5K2WpQ+IaEV6CeOzbd7+xibxe1rlae/EgFHsH8FesPKEQeLrLSosZNdFvSWPVajC2Y7JNF3wzBHF3wpXA055RytX2nRRZ0j4XEbLxrX8ibyFDZm6hJs+KgKVbg/dTIdGexF4I2fG1JkEUSJzCv3w9JeLPTtr6wszkCzBtg1AGFEnY/8cu/dendf4eNkwbeLh4xC/y2H1Cwh6no73FVKBJ4xggq+aU3H/2hYJsvrZjj6pRILzI/phio1uJ0j+sIdyxZy5q3J5iaQ/b455MObCm0GP5mvwB4JoB7K6LA/JEarRLzkjrFKqla44odmqwyQfYbCjY8WW7AjAqgiaLF8KVwNOeNa8ladFFkg0bjo6ad+uI/u0VlZJ/Q8u5cWjN8P51K3H0N6UYqas3k30EJu3JrQs4/qZIXQonn9sF74yDdJXhQUBn4C1aMgi6TA4qu8haQBqKhYI7hPVRxLW8qUzyG3M2M5+qXYy/Q0J4JAPiLn6zPtF7xz+f8uBh3QB3kEhoR23aD+XjQm3iakX2YC6vdLB2LLldxA2xJnZo3q2CfCQhYcVAxWsYyxC7MNt2fjc+blxhzrTyCGrpvvNkObFprfJWnRRZ0j8Xgac8o5Jf1xTxjdgu6zws/DowQ/nJJ4s4zsw1kGtQSxmQssKSZpgSLsqK1pMmSRaK6xEPkAvip3dqAKpgXP/9+vXN+NP4hL35+eplErXLmtwboKokTZ3gflkTyDIdv6zBS7Mby/CI0DfDFWDuasnWGRkSTM+nrZrTsTQizb/h7n/oCzqKhI+WncRpFsWHQc2ycbiSe4XPmGXdm4M6E82wpFTebGKsAPCTyZ++tlzu7u7u7u7ud9p0UWdI/c15Eeo3zGb0BmbWf0i5Dp28W2StE13QyIJgsK93rrU3vvvb3J7dh677We6sghcL9TO1nQzV6veEFuP37S9ZdfT1KHuMBsimrIMGfMLxIEVdq2fjtnbkcLkVHOn0EPNXtBtnSwgrYy3JDNoCSMnuSWW2dZW6pfkzAlpt/IHsub3Rr8rSB3GgSmY7BEM751e9a/2ztkO5U2hWdwfchcaXCa7FwsdWZp9W8duhLRRZ0kmszMzCKac8o5XjCJ8Ytj6QWDAmZGU3O+8vO1Gu1vC6udKFphi5dxIZXA2gyZBYiQ3SL36PkF2sz8/smpkdib6IKHwVMGx0tFZuVqSMFhg2sJzsixO8TYmAUc4ir3NtddoPjudydiSm0YOVl22iISR6PBQT7mhzXCWkiniH4slll3BXcVy/f4SvC6Oj+WsroTxNj+xxd3z89bY/F4A+ov3Y3Ph4VB4UiOHpBkji6gwVf64GnPKOV53O+06KLOkfC4h0Msn2szgk7lqEoDHNg1IEWdzWFKowLMUu1YXaqea8rK+hW/9vDEZAHHleApxIvdBPqFIQhk8456FhOKauBCfyWcNevIqPPZdMwwNGggP48D7lqWhuwZVO4iyd4xzmqzCPdG7ecUT7OAya3H2ol7EbTtDeSCv+l8tHzDm/CCbBUupey4gB8f/c7aFsaGRWk05hCCH/a1f6V4uj0AX9Kvxx1E/kM39bMHWGVWTeR+clCbRb6iNAnh0kmszMzMzMIppzyjleNjhV3L0kfy7QiTv7mEX4KKstA7rRlUsi5Rqx+6o/i5VFjAxbhICNZa6RRaYtaozYpKxiB56fu03/kFqP9vkfHx9FBBkYTdyx/ockuqD4Gq8c/jaf8d+oR3kX9B4U+fG7ET3IDAffOVQEI40ahijYl4J03BYP3caId4m1ugUjMT9xwge7ong4YhOkCbvh9ii0jGNCps/qgxi+5xq+39uJBzuhF7HZD1Jig5NKzX95MObpJNZmZmZmZhFNOeUcrxsccw3AxBr4GqLh6XWZYV/Yq/zIfGC4u5iHQhCXe2nIHIgpGNMD9g6pYGfs3mgRnfH/Enmx2G3BU1VGq6JfqUrv/yRa64ybvZuQUwC2RqvRFczTh88+UTGqpz7zjXG5cMJaZJn6RskehZANfLmeYi6qHVnoVRoe5Bw4T1rbIYEvfW1aTO6EN1+aSghsQToMdkhfu/L3cqnismPPdm3XSHkXGvhPYgG917/9VWAQZAsmen/IOq2xSQO+kJXua/CeDJ1uRcWMuDjZqK3Ow3JWnRRZ0kmsIppzyjleNjhVy6KAhYKilJF4faQK1l9tiwVwMuyBv4RCaVg1M3P/5tppDyOH0J9y+D8V1EP7OeI7FvyRi7t4Pk96Ag3ydU5hV/iAlIUqGyRXxPj/O/lakFvNgfp9e8494FoQtZpIlQOj8eM0zez614G2/Qzzp1fmp8gteII+9ihdZbfssSEWKkEtPDdzwQjg3gVjw1R8kL4+L3GCfHKDaIxvGbnGmto4gy7bKeRTDfY6H1n2dann52fFmCxNITHRY79KfCqAQtIIEO2DUXTb9rYvkrToos6STRFNOeUcrx9r9GfzXMrib0r0kWgL2HHeczT3cg0fkeY92n0PRgk6u8QTcr48ErBHPkk/k8jMb7GWB6DGMpMX/G95eGOAWy5vWVMP6GSbd9puxbrpHNp1mRZ26ebtNV1q0ZNTgcOGoyt9vAkimMkm3J6CviKMPUDw4Qat6uSIfcAVjew/5u4iBPyysMNQCXwesE5gL+Z+wMZcph1KoCcTahFDdPAelcEgMDF8C4YUi0DN7FQqZGJLDoguqv3VM3SVbK4GnPKOV53O+06KLOkejCJ9+hM8GsEDdHg/LwjDpAlUHXUJQvDa9tMrFLvPTnFdYMP+cUjXGyEEDZoFZuidV3y3h9LRy5m5b/YNtnmU2Qe187O8ZEPlNgqBev1CjfGaiaMLRXgHfVfmjG80JqM7WCP6YcElmcV+pHDPtyYPolDTC2ym6VNHrjIT0W6H1ORg8BAaV2aQpqJ0ig60VhKUwyjMQQcZVCmDFYO2YCW1vKaxMSXwpXA055RyR9p0UWdI/fIRq8dMChshHjU+eWOOR4gmLTwqc9MlSuEYQcdWMWs6ie8ORjG1cW4reKgVJkhcwwt6VgrYwEr9GkvD1fB2kXE8uQw03D5N3kaC2iR8pQsaEjgWl3lFBOmUq4TJbfbn9adcHXpqqsMaGFEVYyTX3rCw1gcl9lJ2RBeSoSkMmZpsI3JztnpaK+vC7L9eMEfvKuOZ3rYcoWaaeX0ZO145ZdhK30CLzu7u7u7u7ud9p0UWdI9F34IxqgQTyfUAghTrdqXq9aLN7Mi0H7qe+7o/TZfXzjxw7v1XbkL3kXqFLZDI1pgHWafyPttJ3kC8myT5SVdllN+9NZWX7xm4NvwUQ+vX9xzW+cPwVH0ftvx90Zbjn9W+N/TbaoOHqbMzljIfuB64Mv5ndxmz+8rNLoPDg6Djb86Eq6W8KVwNOeUcrznfadFFnSQUjt43H7altPx96xb8hNbr24zVAtmo3u3N+3yvG0ijUnzYA/qmApGrQX/9bWcomGSzSHkLCHiwjLFj4Gfubq5cuUkjdYzWVZmZmYiyrEXnd3d3d3d3O+06KLOkgpJRpAQNedTE2wE7tADMSdhQ4WT2+3ioGPgaSoAHdnUPwNm+nwPMQmdw2Du6tDS566RsbDled3SIqW5RyvO7u7u7nfadFFnSRpTz4PRdMx5WnIgj5NxqAYvqxC8UuFKKF3hWP9sLYCYE7qKMPbShJsjwTB493e0nl35ZWj633f5PPVGF53d3SJSV3nd3d3d3d3dzvtOiizpJJXa3ps6DCx6ER76reFAQfDCSpyidL489/s7VL44zuK8YXIL2rROD4xbxO8Qxqed+jbCrxxuQ1HqQeIgWu6df+b39jF19Xj+j8Ok8ZQ9zC/h0UWcoFg49BPmHd3d3d3d3d3O+06KLOkk0d7MK1repdetQBcG/eUZ5Pyi9afK9ozi89/KxQzi9ahi9nyddahi9ozi9ahhQjlp0FqBjvO7u7u7u7u532nRRZ0kmszMzMzMzMzMzMzMzMzMzMzMzMzMzMzMzMzMzCKac8o5Xnd3d3d3d3d3d3d3d3d3d3d3d3d3d3d3d3d3d3c77Toos6STWZmZmZmZmZmZmZmZmZmZmZmZmZmZmZmZmZmZhFNOeUcrzu7u7u7u7u7u7u7u7u7u7u7u7u7u7u7u7u7u7ud9p0UWdJJrMzMzMzMzMzMzMzMzMzMzMzMzMzMzMzMzMzMwimnPKOV53d3d3d3d3d3d3d3d3d3d3d3d3d3d3d3d3d3d3O+06KLOkk1mZmZmZmZmZmZmZmZmZmZmZmZmZmZmZmZmZmYRTTnlHK87u7u7u7u7u7u7u7u7u7u7u7u7u7u7u7u7u7u7nfadFFnSSazMzMzMzMzMzMzMzMzMzMzMzMzMzMzMzMzMzMIppzyjled3d3d3d3d3d3d3d3d3d3d3d3d3d3d3d3d3d3dzvtOiizpJNZmZmZmZmZmZmZmZmZmZmZmZmZmZmZmZmZmZmEU055RyvO7u7u7u7u7u7u7u7u7u7u7u7u7u7u7u7u7u7u532nRRZ0kmszMzMzMzMzMzMzMzMzMzMzMzMzMzMzMzMzMzCKac8o5Xnd3d3d3d3d3d3d3d3d3d3d3d3d3d3d3d3d3d3c77Toos6STWZmZmZmZmZmZmZmZmZmZmZmZmZmZmZmZmZmZhFNOeUcrzu7u7u7u7u7u7u7u7u7u7u7u7u7u7u7u7u7u7ud9p0UWdJJrMzMzMzMzMzMzMzMzMzMzMzMzMzMzMzMzMzMwimnPKOV53d3d3d3d3d3d3d3d3d3d3d3d3d3d3d3d3d3d3O+06KLOkk1mZmZmZmZmZmZmZmZmZmZmZmZmZmZmZmZmZmYRTTnlHK87u7u7u7u7u7u7u7u7u7u7u7u7u7u7u7u7u7u7nfadFFnSSazMzMzMzMzMzMzMzMzMzMzMzMzMzMzMzMzMzMIppzyjled3d3d3d3d3d3d3d3d3d3d3d3d3d3d3d3d3d3dzvtOiizpJNZmZmZmZmZmZmZmZmZmZmZmZmZmZmZmZmZmZmEU055RyvO7u7u7u7u7u7u7u7u7u7u7u7u7u7u7u7u7u7u532nRRZ0kmszMzMzMzMzMzMzMzMzMzMzMzMzMzMzMzMzMzCKac8o5Xnd3d3d3d3d3d3d3d3d3d3d3d3d3d3d3d3d3d3c77Toos6STWZmZmZmZmZmZmZmZmZmZmZmZmZmZmZmZmZmZhFNOeUcrzu7u7u7u7u7u7u7u7u7u7u7u7u7u7u7u7u7u7uYAAD+/42XqEQAAAAAAAAAAAAAAADYO3lhlsKLZQTxGAWOntWub7wi4SaCipEOBNN9HT3M1+SZGs27RgIIefzba9vTMwgai5i1VrA9cHuA5Oi6nzf19iKgJyNd9QK9AAKLXq75XSFe2ECqu1OPcDRFu3R7CGym4D1gOHRErvgYqhhyHtOpH6E3+NGBwWam13+rYcqSAZe3cNcxpUd7bOQPPgeMPJHkdo90sSXla90FqRAQnHXQUP2LdIHdrSKmn04E7LQSeW8m1feBrm7YhS/wQqnMd0TxQn+nLLLFGZUNKps9WOkZFXQCXI6qNNm2IP8pVak7yyI3CktZrVkKWUyTiqPgHwTm5ey2T8y40SG9N3B6PnXfl2UEigAAJdybI6z8hsO+wE84HnT+qaApu0p8VPId/w1dAD0+zwtY9X+rf/oiiu0rJFLuMQPmp6t1EolBIb5e+0mNxDLvfvvIJpnyFRG+3Kj+Vq9RSYpwsfYyzznOaDVPtxaYuVFfZAzmNu+OQmBZQ+9dy/q2H+UMDnikKZnBjfsH1mZywN8DyA5n04h5uYjn8AODzgvCxb/bBqwqLDQpZ4qVx8XVJt9vRAe5fmU5KiLjQTb9elnw3URPqv9eQic8+7m8l6veoRb8OHt+VxD+nVnuwNRDipqfeUpHrTzjUPkm3+JlD4Uc6cm00XSEEaN2zejQTDoxhNzNSFfVuGn9yPQtF+EDODsQEnoN/qGFYmxcaAeuxDYbweAmwJfpbXKoFbM+t/hYbFAyR54mMEOxWnPBw9slTDkgWo/M+hMV7yEYGlmMW8ECc4QfadsNONAQYtoEcvr4VAC5k/vUQIH/3OzGD0LKSqQgRItnx4XMzeuUxd2ohvjHH0mQo1j4K4JSuThGAvaGfqLJf+WF4bEcxdSlqDkJgagJ7RP/rmshz9arVqseeEaFnY10IgkTp9HsGBqAkbWHuppFF5fhFDoP8phma3boiRo6WAuNdnI6UqRRX+DgIUKkunCY8r510/7HJywgqUUxcQyfVCFsaBXtOWN8vCLpUo/mrFdeTs01JI5l4D+XBeb/eWTFGLZwKycHbrgykM5xPiYu12jpsph1F0u/R+IU7eA42ouY8ABbhQxDFEMyhhXMkma/yRdNWMuOhVML773VGOxxt9Pka24pFdr3HkOiYWwegTtdnN+qqqsVCSfQgMREsZgb4rznhvR08hIkw7LlF3rZYzQ0cJjjRj7TsYiHnMTIcv5vD0WJxtB9GpQ2F8D5qUXuCAS9HgHQIvma/bqZrb8e9JOwBJHAQw53oEfsnckJmfKTedSc+dpiPjTSh1k82G5jry91FFR1xtyJYDuz2UHy8rKwZynJx/YTSkox8LN+5H0/2XCm97BWn28neveiB9spv2AcOSBRZ3x+3wYAEO6ffeMF0VGW8D3XrQviY4ClNNQHYueNCqKqx82VtIIQi/hHdYuPpL4F/wic7pq/XpemTGlVtx3r2J5c53LKMD+NTh5qB0kldkKAadmDCz3XZwgbHiMslkGUjg0tbQnXp8ijU+PhShf/mfyv1lbtLG3V+rkrnEdRd8mKnwyJ7+adaF/mEsN7/urOypQdNMDdP3WxjmOhzNjXxIb0o0cijQLXddI7WjLkDglGlQ+D3nIU6XZoMMBt0jSfLezkZ4OTeIR99vGPmBguC/XqVmmkcgDsjIU0fvMeB4LmUyQlrC6DM340LRyV1KmNANuD+XQrxkAqTc8L8nHFsx166Ho/Ghsclhqjo2tgfu5QRFNu3AwYNU45Ec7bqW/MdBOd8OFzzZDdxPU5IsVFeVTE9YHY3CbVXWfXQ8uJvPgs5euPdyXCdkiA5RLjbACj7GrM2PnGS7CDC7VTpQrIUBAAAF+wQSpUHybIAteuils5NPzNh+D76jeHK4ECLgjtFgd4XnvoWFGBhJ1WbU4r6ZT02oUola0QorSVEjNtgYrGgLXQoR14rmFxwMTOsJEKO1VNyvBUem2O1upj+aSHbKnFgbgCbp8c+UuW7HSwwXooSZg96YT7VsszZIQTN4x3Vhq7j62EgPLWfZlPpEinvaY/TxM25KFMi7QDK3zp5WYcI80riDDVZ2VMjPbifyiTr5D2d3U9pCdh1iuvDGlYOIftLHQ8tfjE9+b3RDVIztj2LokgieMHPje9LM9R6v7n3RmM/SMM8p9t+N/b+lLgP/wC5kB+6ov7SO/P0Y3eLLeMhNL58/cL6wWF6WcHA1o4ODRcpDjYBRrp9zmzcUEMNlfIbOImOdaUlMGC0j57DvH4NoHEmEAucZ8lTvQxLummEORTmJXWjTeKAbrK6dZ4keAe010yZ6Up0ZLzF2hRcJ2E3seML3/+CFIE16mI5YYsn1WodchVwXt3qlxzMCy7GAp+s8jZSrYgCII+jR+va/lHpd2exOMu2RvTCx4JQ1r7EtDydJTpm2PCZ6+Ivi+CDkQHengqZRuaEtn1HhzSNHq6/G3BOGf6jNTzKtSnr/nD6bZ246DGm3RnQ/Sf7KPr/PTe91FsUvkWMmCuEg6a75ku2SkziL01espAr7WLMn3QUfcuxxs96e53Q90Au5k1KAurTUrIaRGA/rq5xZrUzMDc52/KeLKOa5Yy/tjDDr2Pr3pGXAm0miLuthRzXxTPboWSsBgACBdcqtnQV1leQwrNBWU5kgGNjKgIg/hKl5rRNnWUp8NCYQO9qN1vhMmmSGCSS3YbkJ/ofPWD/+um20L9YGVe6QXh6rEaPFV1FnHOH3DMdrWI9SkszFLfaBCvOkUMX7shyZsStmisr5060hBprEJOUyUQqnWtaoE3dHlM23iYMKJWxEEO8rbCF8uU9sVnN0YFH6YePAvJE6X1SnQKo/bXWc/ehO5vXp0mkojDQ83fSl/k/XToBqjORlMSEGIOSkITQt0Sd1rW3FKktPgCqoQ5p5+eZPz0ly7BZaa1SepfzqC6VViBf11FOCtOpzj9vMcT1zzsnl+0r20TqBnmBFEdV4scBwI6k3i+uME5R8MoXDtEhf+ouwgaAn20KwMhDWu246v7ZZ6AN1GplHvwGggipXnmm07qLf6SqvV4IIsozv53U2dT3pPPwBR0Jd/kKooyRXUz1JqP+N+m1X44YGVGrKfAgHYM3agls9tHihsEf8WyQ1qN2qbpaRI7Bou0Xv67L0I9aAnVpM3UCkr83b/ig93XwtMY34H/Lpw4Pg7naGZatORS+EPvbgHcAYN5X8oG1UGYeaTmWut+Q2lb2sKeqGogDHbqaWsqBVrsgA8NBK7K2xGZmMychBhmtyH8GeBObXul++fbcguEplg28mnpf16VOXS1LtuWqGqQzySqN2kpqKLaXM6RaSSRGlIy5dj9SwwlH05nRRauqnNpdjR5aRjEmjbXIUYvjOb0Q6uZCtPz8hrr/dooeSocYJXgJZXjZE1qdn0Vhh2Aqu1oNiyTrViPHUEmnfKhf6h6czbwONdX7NT+5k0KLWAqqA7QARzh77aak2PSVR0oILmDiqfjoSghjpaWVAvoQXUQmwytR6oZ6W4aEBRzKDEbXhAWWmQwqa9SljdVRDwKiWRXcKI4sm9w++YszJ4ny7w0Pb4wvNbW2aSV8/guNZiy54sSVrmqTMWOGorpSVAnYD+9N02eLn/B8hJU2IeEHRR8OATWNQ9ax6LX7CTfZ+j4nDQq9aWNdpzjPfQoiddzoaVlUd/8miQ/A2obdyoLvSoG0wEwBKPzLM9rEWIfwZr/9HzTjdZx4e6eAjew/q3JSHsOzOT+rrfaAt1kjr3Ml/JtHSVfBHgvDydqzSx764nVOLAiTuPfV4HmU6HDd9Ihx+sh+TN38qti3v5o0fQpHHbW92jMds77xdQxksMrnSn5aLZYJLWL2G20QsgYe+LyPOzsCyWKLR5T9Z1if5Xy+m2Rem2RwriAAAAwQ69bejsRTJE765x/4JMCH0jx9y9Qzfokx3BjmWXMtOnDliAqWtVlcds8YBJjnCG8l8VAEF6nyDaQuapJ2aWhCyEvg/v4ss85y84U6dh3Mp1Mb9EWS6kEKb+ruOIbR+NlPkCdQTQsfDt/BuPuqL91uJMV0E4FCvnCAIUStMeOPuXEXIalOMRtnyXGOy8jk5OaWKkvLsg5Spw+aP5egUFL8iIye0jhH3t7ERmbs6zIeg7BnfvGrd0NnnS1VbCTo0seZF9bUep7rT2wRI3SPv6HpV/EdaCbDEApE8A8e6DJrZ26q78qOaTnpgRnP1/cB8GHaQ4rubIW+9683UJaUVLj+dCSeGD9qnFY06nUhCnyVLVh2OQ/GcE29+zxYw9NNiMt77SlOlCxdCQOo2qXZSAncqnfl5IFf9JIAcyiZiDf+yEcpaqwxFvR0WrXy0feyVg/qEcBvTejFjBvlRT+CtIAWt3blTRtCQm3s5RWXdGD97RDoeOpPd2jAXKnoH30vbMV49A26fxgt8RNCt3vBOaPPjh3UxLLbJzF2Ag5zfrMTgTHUxiOboYMUMz9UkOLGYjbOgJjejB/qYXmgAFdSDmtQp7qHaJQgiynyVLhctQV5d56jZPwaAfqtoMHJ+ZVUS01Kn5Logsa/voDfyHzPdwFVwBvxB+kgMdZWoCZy+Psv2m0ApfB0BRPHH3WojQhc5FXDxoQprFRfJmjlwsxXtSswS96mbd4CU2SYb6U47Gt+DeBLgipGiKpAA4eTEJzvFdlckX68jclvaC+zkAQ1+yJggmdUONwa3Dnkg/t2ah0RVK57F0xo6MIQaYRCUStIzd7gcu2ldbW/U4A0LaaWeS+xEZ/s0MQ5SAkvl3LMv//fYlRmuUv5hXhP2MhlxXqm133DQak9Eb8/LVmrn15KYe40En3cypxs1TwMLDrWXYzUY5PER7mYYgO3B2DK9FSbtpG+Oy22LEMCjXDW8CDyP5g5OqtedMlthI6nDY6dcVEJoworp4hMcRcywq0zAai1fefccN0k7owPoQsAtRn5MA7JrnIbmrKNk2x0w+e/d36UolkWLK+ZqzL60WmBz2GNOHDcUbJwO4RvY0Vv2zFz3CJ623SIcu7RBP7umgzKYAZtWKzi62dWif+WHYf1oorRWMksnICVNcrGJH2Wk8ToYp024BqL1KowaNiqZxwCCi7rdVgRNvCk34xFqE6PYIOLVKhyiMrw4iMk8hbfEAA1RNSWeYk2MVqf3Duw3O9kjHNPF2KZzrZLfxMecus5gHWvzF65f9v/4oOm1ux1xOWnAIPL2tRaKz19Pt8lKTdF9Qr582ULMZkvAY0s7D01FQ3AAAAAAAAAAAAAAAAAAAAAAAAAAAAAAAAAAAAAAABs/DugwbX/K0JWyl/+EB4IuJg0WWl6zYsJfeiRhWr9dboabFtSCE5ZT1BR2906bJgOxO+tWu13dtfZF6nPFzwWfJ2zBJvSrIcGHfbocg8N2rEyq6AnX5yI2A3RNp+iaRSgLreHcDDPDQCpllp2znPRWTxw7ypWhIDlT9Fo593SYkyLIPFetc62d+XtpbRSWnKM8H6Gych9OoGksM68yhxjy2eqIF0HHBTwQe/7IDDH/VCzOTOCDiv2ndAMKn7d9GtoEUt6fwLZQV8+0bx1/mXXmI76tdijhMfqaXfApdO6SIeF3K3+5Z4Kp0joPSPvIoP1kZpml5ceMGWwJV+D5PH5RQBI+G1wfSvgAAAAABRlFUjR66JeUEu3dbRLizjpCLqV5bJQB//xodHMqR9C3WWgPzbvOHZM6+ZMP9I/KwZe8GO086RYzKfQPtW4pcYopyTsuZLxU1LZjtbPXehVOg3l+4QMq6tp9U35slrDa/uuccwbWb/iUwAgwrI9X1bZmi/i7Qo3G0zfTPieDqu4WfAv2B46KzKyGfUbo7UYWUYOjtJF4uSlR4RWi9sAxOa58AnFC31PiBsrFEAdLVgtUbjEXB0YAN7ATPKgI2nlUDHtp+5r79N/bqRBfELifh89aY/wF8A4T85OEkcE1gi4oeNtLKvsU+etv/cthnsEyOTNVMldXGcpIonjMUambFW0HhLxpzQVaovsp7YOFyRJmkr8yNLdCdFnrrQJoi+d+1MLrZbmBZ1FWX63DoWWLNiN4y6WhYqEeRP+4YmiyiE4slCg6AeH8RYEhoMxqNXarZtJ1ZvahDUdOsyHIEG7aRu0qZF/ldFEO/ryu0h7AQca58vM7obmGMoMezzh5l0AAAAAE9aKEV7n/Fy2caRiYcMdLQYeOfGA+JcOvh1zoQ1evbjzXArMu9dORpROec9OeAaRr/NH3Ozk1j6vljHYy+9clg0OrOkBJ8lsm7fwjfYhuAwXdoMocowsPIlYVHGr4Ruh2YZnGTAfiQfbB5l/Sds55fU5OvcJ10q5PZvWhtQ84IOWH1aLxfKppothaLdJei+2YcTRvFo/jdaP4LSaJ6kfQJRmMOjta9N83/UrCHW1iY8zq5Df3kLS4SOvfV9/MSK2ECNwOshdpSgm4rSpPf117qbsXHIV/YF4plk0EoC8vP81n5+S5jVfoFA2EgX7wfOn6uc7JeOteG83/lNYXJ4B7hYHcBq8PJSwOcno0rflLsMfh4slmkDz9uyUHhIgU0iFe38mWXjNoZcYSxBl0TCOrLPxhCwVWGaF75sr0umpr2LHc5P1gFNTsDSQys8SMYuT2R6YNmX45C3cIEI8F7HWRM+NiR5e/9mVRKZtR8ZDjgM9abH51Xno8CkvQQXpLdGxaVqot5e5oq6nbw3Cr6ZdVQJeSgCagflNInJuLz4vb6T2YKrvr/h07jAD4Zz8RWYOpW8Zb2eRjmrAquCbjuuzaXbwLIidx5MckHdAzf5h5kndhSfRZ8U7+gIrqgSKalGXH8vPFAnVHWLnCkb/EGaUQ8a2D1lbM2tq2NMPjbcyVQHQ46q8VJxR9Wr7YnkFbiCzWEaRvuYWmtNrOAxL2bk7YXSq4elbSAFeUhzWqWS5KbzIJyOKN8momy2MVyVCE6JJtuaW5WMY2RcW8dewSGpEJiDhOPFmAeOoHbZNtWTuofpMxZifpvcrdnoZbhCwvsUStC4/2je1qnBsAAAAcewrfx6TcNb1W7WLIi5BgU+KjRvLOpVzACTQsRF1ERHwfGTiAFTCtBICLMfDhRzdwLGXFBuBaZhtO44r595QrcWsoEbcbECnsjcHA/P6AA8NQZJcdKIPxS2IO6HZvbC+nM62qyJCRWGnOAkStpUy7iCNMU9UqqWTXcf/IMeTtPGdfXLywpC1420eM+CtH1774rdMXQiqtoCDtFnCgYgb0QkAw1diEKjvqKNRdKB5c9aSNx/5KjcSzsE0rUdLEwx9lGJeSY6E/fRAQRqzC0lS11RNfOykR9x6mUi92/UvHATbNBAGcvX7oCCmI8IJQ9qNeRcfLGAldelTeYrCzpPWM98JmVmqYiTCDCXPCK9r5epo2iy5froaqPsLHS4nmoB3GxQK4W0uJZDLecefdzc0CmTdTdNwo0vXRpMTcnMVvdS/cFl7li6KnB32i5xFFmhNl60vC2wZDSymKdJV61ekfgtGWJlde4aIVB0Z+alMevxyo47l+FmHVexLipb3xdTSJgUvX8PY1EbVFo/BvOKVEvmSblyJYNrGK6rw2TUUTLuxraLY3wufMWfJU/ngvL+2M4y4dkW27I3YJgrrl0GzEzVUKWm4XM5n5x46Iy6eLKGrNVvIkTNer2O3g1a+fcFG+zTJ1sWOTa8mjyhiZ23hhsFFvcq1pjF/Rjiuw7DfixqmQp2qNojIlVCjtjwvmMlxs48cJ8SE73FbZSMezBfaDgcEWlGPD9Z4Gt2KWBSsTtDlBNJjpmbfvXYcyGsFFvf5XBTd2UFvTtJ36BGQUZDDVplry74k/IqaPslZV9FMKVv9s1iw9esZ2g38GAerNT/VIdh4h8OH2hjPAgAAABrPenFvKtikr4XDT7AjF23+qd9q0+KHkW3R1g9RzLAVteI63mmQFJjeR3Nxj+Pqt3j6JFk8l5QGvpo3bCS9sPLPt6wXhticV0yiIousob73rKLv0CLuIN/hF2t99eJuQ7xomNhpHgRB+SUszmosAlAwC02AY/+iDCk6B20g/wEjELBHRTyDUyYRJXCa9VmJt8A47VYTzIwVHUpQZkey1umR3UWr3H7ofiRdKJSGoeG+bGHnyccYScvDlNbCQ/REJC22bBkEEW1EloRWgyjQeA54W2yOH1106gCSWdU+i4+sfjIUewxeyvL/PR8avWbsI3efcd9XRtyHJ0AUovpAWWykRUzsOHJnE46AlJ/QuOqHa2H5vhd7tBvrbubFfLy+C9Ajf7q/WGUt2ZtiQZqohAEnm4dto/EXZ/3llBAuC8Gs2pIaGQJ2WgseKC9/5igFBpjmVgK5mGiqoDNT7Ivm2vRJkxmnIl91h8PSIA/bOicQdiZ9pnUvMeE8yF6jNN1YbZ2mt9STGHe26YmQtSyeAeYLqU6whClJ1M6Rk3V7J96+ccU3/4wOfULlu0acTyqrqmse0llXeGsr/Q6k2xOVwJDx65H3MNC3d0aEHiNJiFbz42eonyWOXNsVfZAw05RJ1tqx5ZCCzhQK9njeqcb/uf/f2kt4NsmZpQQXASiBMnwXZhiKRbIaA/MW4a6YF3/aBab70TaaZ/tzrPC5FUNAvGDmXCOKS9hPfG745UO3R5j8aC3khq9Osa6MGuynwsOvKPr1TwLUkpooDYVVx897j/3IWwyvzK8kmiv58dQgFyScXdfs2lYuZx4Rx2dH8vgcjbpd/gS/T4GWkQUT8Vbpj9EErTv5K6zyCPHQyNvwUGGyz6QLs3Jx7S7jYD7XsQT7UXRG+nfRnuvu9u62g19m9R+9+qh13Ug+NXo0/3dhzHsnek+yX57CAAAAHuJVCKlsQOfOUPqJHqDBE1VnlLLMRCwIDraduO0SfbcmvRzSmFH4SM8bOH03VGnlHIsr5Qv/zvEWFrau7K+0pnlASbfh/QGPme2334PzIvb4c5v1Yiga+l1uJ3oIsqQ2P5EdwhKTrShjQ+Sdq+PgKAC3qx5bbdmTP99OBAHwDIhYH+UEiOiOF8FVJvl0eu25ppVkD4qhMK85cuSU+3DarcgnStEXjyj0WB322gzd/W038IM6RdeczNOL2+foCh6i6iGGcX6GsIAENZoLIAAP0dkzDruusynYHNgFjE3TCWUnwYq+5oADLE12NCL2LEgmaeplZ3CQp7MiopnlobIGfPndLcm+A3oM6qNkYzADIAAAAAERlldjQx/BbpxGQMsdqeNt0UKf8sE0J4cVkvrU4Q7SViYfdlAvHe8IHOrNWO0eVKpt1gsAPeqLr2ZIWqLHFoD8Smrwgz4tbkZ5cza1ZBZKTk8knFBHaPAxnmYj+b4blXp3scLfzzJikSgozbM3ZEiGtWcDQzuTOg5art2mRzlI0HsLHMUxAuiLue7asPJF//4rbZ0FsN3noCIK+mzHfa3zaSDOJPy69c7uZTY2nnicoIVTaO+7kzelq4wATm9CcR8S7cqA9bAUWPwFq5RDTMjqhdnoKsVZGaYchdpYLzsx+2oL/BlgAAQZ4FsaYQ0/TD20VL0pZCsHG8R8H5q6ZuTN6W4bfrFSERdmBOZ6Odsltsnu4ncFck5TJQW1WcUV4KTjbHbIKxBmOPCFGS9HDWDRKFbD7EhqydVHGUFd+te6rofAUNl2NWHWO3qEniIf8XcyjqpqMVSXeMloaqC+BwFxHJgA6xD9iC+IFxiYBg032Md1n+aB94bopk34qwqEkaFzENCVYwlgj2iUBJrkgcZ9ERoMAABBJIdIVb+ZZ9cUUJZYxYom7z1N3bo7V++EybNnY/7J+dkMtCCXEyfefcr9zkBSZ/nDfLnCGMgXj0Lbu6ZoSr45+vjbikdW+Vu1ZRt1F3+oRJnMIu//2p88qAxuo3SFGvVStQtNWzIO9PpSQKR7fwFnP1tytI1e/oCzp+t1rDwvJ8OiLx305AU4/mhjhuqm7UAQEWgMzluhE+qeTXxsPkMYr/diu8iqsuGsLRyFuFs3QTanb/iWIEKth0Bu/9ilnxCUNNh6akunT055qN3nGnTlbyrvH2qs2smJO9cZPgdbWAj1G+0i7PCZme1miRXuYIF0je/QayjEsYzPrRN/1jHfOjZeImvzt3D3BBo9UyF4k9OT9OGYow5Chr69L/9h6YGEkPj8WJEAGDzl0oGdgpPdKGVtqlJkjU7E0OMaZWOeHll81KPnKvxVsvKHqXe141m8rEASDnbKxXaXbG4can/wZ0mp7A67XeSR73HpH6pjtDmKAUWu1fZBjDr/A63Ku5QyIcSI8esyo+Pok1BAzk94yF6ILxDI8S51ua/oIZ0+w93meAXDbIsD3FyREHJx4MSX3C14pzlZKHHWJ8Zell+jnuoqwo9KrCFhAAK+uRn0pNz/C37n3DXjmtsiVyEyRk9o8XB0jSbq7Ebpcf2eES0iuwv34Ebs1douHiv/MIHtdxxOW10NDzksp1CEOsLlJK9zQiRqHhBook7bJP8+42nuTBQ1zHAkmfGGStG9WItRXNIH4Ch99uY3KKwd0tobQa6QefCi9CHL3Z5du/It7Niscmahm1Y5uFMOaZnmvUxmOG2Ttzwzd1ofVkw0vwC04EC2FQY8poKIvLTv759Uc6yjIMyKJvRHucMUctOVDxSUiwd+inKsO2D5qkDNB/W06eDoTQQPPGeYpJb25lkXQHbRnrRILuOu6KH7X82etX9vgj5LU5DLDf9VOqffUc4/cpzaFpcNWdbnY8lYLhFKRwdnubxt5iJUn3CHS0H5UR+y4KBkOSQ/xoLwegC45qop3aRL9XfffpaVPOGUe0V71EfMdND2S0ocXJs+uZy82zxk9MKyHkAxrzWdaKjIlXY9NbBjTiOklqrYG6x+y8hL/8cZabijlTSkrCHiuj78bb64P+1VUabgk9HTL49nO4xr+eCbzcTmpyxW1nM/pgqgZJWT0wQjxbIFbJsD1R5aOagesE47pOGtyOfs/yis7NB8hWsU7jBH4s9/1F0iBYA5yLAapPPJSMlzRO0yqQcRwkMPf2eVFPaKI+Lc8PxSYnRfl2OsaSQR3YXXwyz2x8Bcm8Ozjmpk9usqz4KtAWhuvba+ouOa/MITdCstWVtH/Id9CMjRlWBhPTBQkMXm+dhCzbcSK9oP9qqo02J7CLxDmyopf9Jy1nM5GGcuPZR2DRK3FaqqSiPwfw2un8SblN2sdXs23eFz2ApiCkZgP87saAlhjcYI+YQXVRF+gpPThuti03H6SjaDxY8OV+iRTb5gxDgIn2pqc0ypTDdZgpWIATleGhSEvzF75jFxvQj9qNKVFwEIPoX1ggZhgLLp+ueN4gF6woWRFZVHhrbCxsPPuVnr+1TGsxVMX+cU0nCs4eZC9s7Hwuequbj7FV8b9UuDZ5nFRrMGPz4S8SItm0Lt+7EN3ntQiE5dt7YEfhE/pd2t3xgCVNvkw9WIaZUp3hPg9TvX1Ss9CHYkUaqzi0LifE7RQTBIummxXvnQ/neXtk1e6eLpBVlGa1jh6QYUrqYKR+M6/FoncStXkXUn4B/bmbqNQIZneGxPUUoaLXQ99htAAsQFit8ruhxSA9OXpIBDkTj5BDgvR5o1XVTJzvETZigROdmf1Et+28RuWn6azFZF8fWI04tOsCCslWCchpumj6y6tfmcSQzaP4RJJ2try692INQQWj26TULPgyv7Q+v8lLBURqGRw2QxhADkxqPxUJJL16rt7M6FReZviFRNewm6sBm6YeItvRvDKY8ChVc2s43gx4isgd7VlhMqT+9fPvbS/StCr929UwbuEh3z8L3x1dQpyjRqJCDMBDZFmI3gGtlXDr2G8v5eX9Zbi5JTDk/OXtZS7qFUgt1iQ9YegPpiQmQKHXiwnDblY3VtcskF4D7s9UWtUjolGHiP3RP2YyEDElqo5jCnya/ixOD/AGe2I2DJBJhi3df9ujgyNsQXWJ1niEYYVJ3TFFAqtP/Jdk9I6ID5a+WVp7YEc/cDf3I/yYpfzzDxmYj0c9I8Fq0NBnTDmxalBu7Fb1+UW/GlWDD3D/QpBG2I4ClRNJdU/HfVa53HrgPAGAvpizqUyD8uxoX4nRGn/ymq0JTmQ1FYUUJEgpkGuY/TPPwxgH2vLMr+HCsb7FEa3kXT+syE3dgAAAE8Fra1gdAe0t4fbsItUL5XZbic22T32byU4tASUtj8G5lDOASMvnPwIp7nxRkeR7kfyOFLsLpggLLgF5MjKuGLJywVOzAkH7QY2mZsTXPMefpog6DfABZMtqGMPqL8d3yGj11Tx6FFxOLTx8/6B8MG2+TGpUcl9tMyY4PF3pnD+L2CbTZIxDXVxGGnOv2+AlxshK6+YiNGi36bDk/KYOpgXjz9zRAEBF8MkvP/Q9fZBbGGznBN2XltoJopN+JnNUz8mCkn4t72cuCUeJ3WCcg2qRwCuzHHKi0r6UKCb2hMGLaXXOM0s7fV/XKpvkMQy+xUPqBygCSkIhAYx+uDHxpGPu54RdVDZ5huovHpPlzunldXRsHvuimb8jCIEnGKQNPJwIBeExash6AMssO/UaICiw6HQKyx2+5Y3GUjg90p+PXv05yruh38CcDn2MSyAHVf7wivFpLnAFuk9k0Nv77zhICeTnLoGJ8XP/+gLqM91MPeeGSQQkQHmTEr5V9RHys0K/GAy0nsTSp0LiXCwzoZSDEIXr2uoByT1WCzWg8e4OQlMgkA1QDrmoVeQa0G2xoY5oRO66WGiHdJdkPL/0tBEVzthQWIOcqabutuBbTOjZC09t5VtG84RC1xXEv88YG9h8ZA2HxCF4Eo2lOQTZnqh81ZTVs4UxIXN4PIz3uZqkSIeVJFCxdo0hwElGBrLPsGKIjOOBPXoLoD0IcPEZZhms+cVnq9TFpYz+rcqE0ItywFtXvILPeVleswTn0NIdOCcCc4GAkNQ/SvkzfaQhxEakRI4t7ZIBFs+/6HGdvaJNKJ7LjqbhV6j8KNqRPf1v+EF6jWoQtv1myAI9RNfMg4c9nKt36KExovg9c4PiQiy9Uk+q0FRXqikUmaAMXbufghPPwCeH15OaZ5nb8cA88KyG4ZOTNQWijixB8wsqb7OfiHpG5hSJhcMor9i/L7Q5shAVh3EAJ4GEu1/B1StpfowTi95gynLivE4zYU9q8OYbNE2rhYZWqYp0QgQNIRw3mKlDKzwRU3/XxpVWF4IpyjFqpCmWe6uCBi8b/Rou5KUPDhb93mnLJ5/nzrS2PmCReqlaH1usy82+D12diLRWDc5RqTLldQgtZHQRAy5m4Xt0VsDczZZvz/opn1c1vgRFpjNamdRcKkbh0ngHb16Se/UgabY00l/UgFhx554/kNAB/tp0+efaNBZmTwoeB2BYt32MnxWnSmdzgiSVVfvuppFjG9vV6wKRiBEfm2zg/bToY1bgztOEKfrI+Xmgj/WD4zkO2gygjysii54tJPIygO8g6UCr4PTzqZKmyaPVrO1bezEy1SKbd/yIguFV/X//D7P52fEPX2xNMKT9qfL5spHkg+VhAIxPoXkeBmaMt2xEjjNW6mcGXZM+nRaH7KWo6O0SDt4LLZicQBG3aPsuMrap0o3FBvvgC7qdSLT+D5Bfy48llqiDT3RgUY5cgsCm5hnERmocfd7yZRtcHUUQO4zvC/mIrrVBRJyiaAsrtntl5xZHrWo/bkp/inXBehrWkF0R50gkeHx7yEBKpiLUcR5RKXb8n3LAh73wWZ0+U+59uhkptGBtnb1Ig+2qVcbiIQxYAbL94RH400Eh3R/X9KQkfqXHz135EwVvwIztFofYIBfz0L3bPEk33h0GE/E77Qs97jOH/xgkpLGVBsb5iWyyn4t8h1fjKous8rWYaoQErn81xHPn7yNWFe6/0rG9gsyNSG9rRYJTqCqX3+XTb0VWQfbepxJ7N9xlcZ9sKKDulK2zRp0Nceb8i34uH54oQfnnVACq9IEGa3ZqO6oH3DcB+t3dOFJ2+hE2dQMeb+rhBM5SZt3UKuA4EAOuV6lHtfhKjuGP7k4UkmSiWDrlKpYdwp0f69v214dS1f6tK+lmozUcrNd3ngByzcTfLr9sdK6Wk30AJpWOJyfzSjx8xfofcJg2KmB1KCR/M3VIyS37YkpOk32hCGdKyas5PU6sHo9l4IGOVa+p/viJxNG2X+ninOAj1lt8sSlV+DL9wQBL2rodJRPS2dZl+4gPtO3FCKtd6Bs5KJQmL6rh9cDlTzHdtk0FRbnLYeZ9eWMq9nALdXhftItoH7VXUA3rJUv0siWN6LvkCDArFs1gfbOfvUxO3WxDAz0jQXqZu3gyDpdAPqRDZEPj9aVMZPnk5OeajS1JO9ab979c4AH7e1OL6lRJHPy0pYyhOvW0Vy8AmouDoQaEpz+kFdeDkUYDPfbI10k3kAGt7kTWztosocraGrae6D3doAkEfKatrRbZkQey3TPRjxk8lQDiFfALvMfdpjoFyJ41kENSQk1g16xg1Gw1OAr1PtD3Xc+gzW7GHCVKS2884Ojj9Njhtq0TVOlGB2pYwBxUiwpkAg7nnX2uD1tdsK/ZWG8HLCLyzTUO0HE4AdphDhg5PoeG/pVFZaZvQaoSBhvBbZMvuDlxhzSLFXdEZltQzc79YK6je2gbgZYW2J/6JRq7irjzPu/4w5MjCCuMBAWzBkCZcH7MfUki4ibckufjk1fmnWLZRqFGrMdSf1AF7jrG4JpgP49uT93k8f2wyRmsgVYNjgySctqiquq9xWEGYq9b1nLjX74VXLxBj6u63Q9fMA0eTIOkMPZU+ABo8AKrjZTSq240oH3IX1a1Yunma9x/l6y4hqpleUPMzI0hJJ6LTKFxCiumDL0dPdkJ2KCH/5h+rJgAAE7UQnG9t2nIXV8FrIHiHJidcdQcuh62ef3aJbDGcSNAZZOR+d9675+r0whjJHHDHtEhoOCycajLIQ8bS5PdyPi5HrqyFn/02jcm5pjYo8LXARbXROXUg4sUnthdBqs38G99gLvGPqua14+3TILttflrNjW1bCuJ0fPAgy/jum7A33lUucb9a8Epl33+sv2iK1ueKjBR6R3tukTdBq6Y8YhZHeXXm7gqeUq3bBQiSX2eAAFgX/dm7TME54N6bZVLCys3euuaYFPe93sysSuipjy5fUxk9UCCl+7WG89mKvkPR8xHdClPMDWLO1IWpSe1LifaGIb+dWZJuGjve7f7zEzSsvnIMvom49NxZ95VhGErRCWi8xB/miuxL8K7KE61kR2FPqXKEfB70LMZCimVMWTCSiXhMrEpvfOgPCdwUNLjkQH8JZqCfR3X5EIvLjxqooNhV3t6htS/xniZvWCrqzOi/+rM/mnAcWxkjgRHxEGJGkNkm0L23Tt6h8hbMwlQZ91SeJ6xpUgCbiH4K2VzyMzeixYT0qk5oKDL7SleLcrwOdtOOf6kS98zGOCvN3UH/52kCq/5TgUF4GQ5dpntKwB05Lxl/NX11CHZ1HMRJl3AISwCckCEbTB3Yg3Vva1AD8XDzn6BVSp/IksJ6uKOYtXSTlTlqPs1iYUvla3vabRF6zUQ2WUEyGrKLgvEX+vjlLaMwNyzXrSJ/+ACINJxfJhuMtFOWktHpOiRdupzBgH1DOiDGttp7lGDs1ar2Sw+38407fIo3cEr0N7Yhb6n3iMuJuJsfJP0E34T9WYTcgZdr/FGD4YZU9XD6oe3Up62jTPtNgARUJStkg5onBbafxKHxCNdklOiEM+KAPpC9yTIv49QjRPHiNygDkZXgTKmcH2wGt8WvZD2WUj/9rTAlAHH2KW4QwZUM4PBfFdmYo4IerMYGLOEanEOT2HrLBItwKEh+lbqtEsKcY6ht9UYmC+KnAqwnBM/w73oHwGGr0hjJ91nThzUvzIdxadS5pTpl09khJuEXKbj/6eUUtdbq6x2e0QPA9JK0eN1+X3AvxgqbOzPvJL4VYLDocjrCqTKHaHVUsv6Oqlrqdus4KCgGSzdYqUcjHcELAEF/aFTcaZemJX2xi0iUoqOXlptv1qrD5/JnYPyZAAAAAAAAAAAAAAAAAAAAAEIxbSIGqoqEPEtpsVNSYJzr9kosKokeqakwTnsfksnww/8XxonFUJ2Yao5EKQdCfLvA/JZPhh/4vjROKoTsw1RyIUg6E+XeB+SyfDD/xfGicVQnZhqjkQpB0J8u8D8lk+GH/i+NE4qhOzDVHIhSDoT5d4H5LJ8MP/F8aJxVCdmGqORCkHQny7wPyWT4Yf+L40TiqE7MNUciFIOhPl3gflD8BlVx6UEDHmBjQu8dkSkiuFZpIer+YQ3j2sq2wQeZ1751tghQZQk3rnW2CFBlCTeudbYIUGUJN651tghQZQk3rnW2CFBk1IF+j3akpd0VU6itCF8d2AAAAAAAAAAAAAAAAAWl6oyWpEC/4mmqdYhrfMCcr6eefVWuEBxqdWXcQMx4hgqP2KXo+vdRYJMwIBt31/Ry56HE3ZZ/vg8OFqeeTm+oLDYj8pFcppmi6aqtePgMwITozFxWOwAAAPFqHTG6BqhTnTmi2nmw2/W7pvmev4wNHwAxajrMG3OYRlTW61NU+3pDqiozeiYB3/2nk8AT/85CLxUZyFkhW5rtmbZhk9FqfwSVpooJ9oul7ZOr65l6W10D5vfYmByUKmOrc+9QQgEaqfPGblxjnG+wseEIrEXT8WxuD2GueG56AckJgU13Z4dn8zBJpSGhfPcE/HRKVg1hIgYE1zuHpW5LppDBZ7OdKbf0Png0vhDgOsNUcHWl8zgZBPt3XkYAmHuqHlAMpdt2qtzTjSoFo2U09y5y3uaczljO8+hhC1Px9S9E/qFfWeBGSm+/2Aiyi829Z3iuBquq8geIT8oCXJCjPM6Kp9BtgL8aC/w4UD2VvtBnGIrVfIeJ4vQOof9jS+ucYQ3wyU1qiIWdfxUoqpdIqor7BN8K2S4v88CWDdst/KWZ08rtZXZfnYxdIK1XpKXELt+fyOGGsTOvYSqlk0RQx4CdNhLtp41f56oskJBK9FDD8+mq11mTBUFLdGLOD7/6guZBVpsGWPzcIAtPxOxLU/ZP/TqV/KExJ/lA1BAYieg5gV9XZeCUVSShLHB5tGKY9zsSF97dh5WOhwIj1ZW3sMW+f/9/MQMoWSAIviz3a/5vq7AqkCnoYhrbK/h2Z1gpA/3bj1u493HEp+B803GqB+bSwJ77uBbK07gof2FauhCdyjjQ6iaaHb/wYnnU0RlLQfj/4ccDFvyXSJ6xYbEROlSnGxnbgGIcyFvhhYaYrOzcrZbdUtespyNl/915VxdYRxBn381uVLfX/FryLDAVAAAFTp/uG2HS6EEekklIGLi1KTgtwuklW4045Cb3wIyBMjhm8hK4FWTU5J02Qt2CNa4eU2LTFbtSVwA9UK4YZsFbUnPDg1YI/HYxvDHBP3S7AyC3UJ50BJZn7FaEgdfN2OBFBSmlTLP4rEtdLe5il2rrN5hruCEjoDxVlgrG/pqQagOYv86SctSySWai4WFehK473ZnEZH8+yGWETO4YNWluydyTrPHYtftxzGJez5Bo+vCngVvPMOzaRow4HFLQ9H5daYEzdRTpY1pdmU+qefjSvaWmz3QqcNiVwRVbofdE3ZGp9MstrwuVI3i3CN3Jxqo4Nrg6ASylJB9ZqeJCda5+nx86/r50CdefVEfjqzBSQ/uHr1pH9P/lxwtk/9eM3T0QjlDIxTZ6jx2G29TSG19253nQqgRtD/Dm1Fo6VktTKQk2Tnkn9M763PM9yV0oDI6AnssOVJif/V6c+n+BzZ+Mahae1km8n0PJQe/4uitfrUwmeq2SEVgtT//FsMka0s+VzYlwvsRyaxyHYw2RHbJDtnMxC9ZGfHc/0uI6Bkps/YV58m77vTgxtCGPggFlfjAp99aSmGhWursfeCFk70hUwJGJDGn4fiaGsGtrF5uApvh0QpcSPhj4ZuhL1eXveFr3BERYYEWUE871K7g5HZ+TfRbDirDoiAcLLFtRnrVhvUndafHr8O/gqgIlln6ZzIY4NqC/wZYAC4pYKRLD3UOc4AtxaNYVz/XvbVAvw7om6j+bX5nsQngHHY+tanczYXDxnrVgylBsVODPlf++BX/qLcM8idvDieFJPaqKnC4/BO7yN8jv7aug6lfVyIzJ70rOj4bfgWgTr46a7MmLxq8zVvAnORDM4GYRHLKe/h/GSoz7Y7qydWvja/l6MGUfQE38UopJAVY3dVJHvRlHKTt5tI3siBM2ax7rPwtP9MrfQ5X3Gi61qmqO2ok1gtn09P0iKXF4IIM12FnJi3bd46uS8wePCKss2LEBacLTKhTIbIXnwnrUDp59r8tmSNmgHHyvfgw7viEOf0pjpjPi/Lp0SBuCSGToGhdG5UoRzQbdplacTYyy+97OC5vfPAH9DEmCUPtQam9ntJgCLgnqTBtfKCE5PkJ3vjiWLpb+hkSFHTqWpTXOLqYAuRwdY9Z+L/VuKfFfP5r7atqTajFmodiyPGAuAWVE+S2Orp3S9EZFqh2nqLlKV+DVVmWpDYFdDi2BJKhYAZI4QLNIRBUrXavPdSHieI5hsEyD3u3wt7t1KRfqccprycY9WymI6ukOOgUTdWsgYjKLL/aANtiBerZ38yCTNMnpotd30QkxCaDG+p/MmV8Tcp8maONhfYVVNcMDenvltlivvgOM3uZx/nGS7xh5T7BqYx9pC4sD7ZjDQok3H+uZXeFnX63lurd7+VuAfEcp4y+gQ+euQQj02tO3M9Bl3H94sNo2tkGcMjZa44PEU3f4g/cP7f7hq60mC+jR5/MwkwMT2LwA10oIAAAE61OFe4jFBxI270IBqZ65KwOh9DfOAQh0T0bWkEXGwgcrgGdhd9GvxVH7PzOGomiEx8/AS59me2yhqgumpSOJzcrVojiFCJs4e8euVxQg4bKUK7NWhCXzsIBPpnB9FWF+G/yekPZMmORiIXV1a8O+u0WHOicwXfG82YIZAUZ22pQOEecDfxgBjkykg4wmAVVvVhvVnnI8Qx2J4k0tMITaLbLWZTH+dooVIZvd9+xCCW6WsvnAWURmd+t+bFgiSgTOfXSBfmfHMPtqVyjaMYuRlJLkIlsA5GThjI2IAp3eHu1PqTbTcT8a3BK4XUbbgyDliDIixE5OriDKwKJIGYKqNKAKJlDzftHYAeKLijzeRSYnEuqgg2Jach98qJrB9Gpxb3bEG7/smyhhWBdNa6PCPzE+WHUELbfRYIO88GKyqOPcV+FdAIsf+hvz8JIxW28H/CpR8QtOUA+mUfjc1cU3dhowxfRoVFbZr7vCSRScQqfRXSK9Vl00lVyXZQe3dngwklQnIaisiZm1KVQBcCgcGiIcBEYQLNn4n6tJSYlETnh45yNhYqC0QzseHrIRQB3anbS1IldBpL+Skid1s5a8BC6alCGPo56lEsgmljMBA3D4xMR7F/RYTFbhmlzaYQqYBLRr6F1bsEFH5Zp/NqaY/3gFQpJARvLabCVfJes89mnhTAS3+IK5baUREr8SG82EbEyBPmVwIxP9ExvqDtcwBanisIfeTZ+rXvfA3z9vrv1HEB9tFUGqW6n6uKx2cj38OzD+rhXVFZY8pdJNs1O1iJb2gM8GR2CbJwmrCR3ihBNdaeWyZfqJGxcTGUI3AJ12UcD+oGb3BhiGp/AOoGOMAM6J9ko3RPNLkCQZqJeodb24FTIZoQ5irAQopUxLSL57GPFH3kvS4DbGVNx6tF48UATjBL+MaA2Sm9vzkCUte8g8b2oIkgFdDmraZnJK/0X6FEaae2EHdnsUhmOV4UlDOqJ+0qJrjcgjPHyp4ViXxRoe6ar/FyEvAv6Qj8hezCNJfDyXMzlGZesaqColVV5Li2ZDjCMmsF9lkVyWF1LC+VyaruqM7kLiCPjjqBHfZU0yMOfSVM8YuOhe9ioiRsEEYod+zuu2QYkaEDDKSSiHZrEmrNr+o/S6Xv4rWzmNKtvKWWEv+mWxGX4ThiXpyemNC7MXsp9jQ7ioVAkG3BhP2mX2cqUcYJ3SXSt5aQLafw/hh4zk+xW4B2yEpe4dSXrTI6YVkJPX/9Mrofngylb72oy4h5r8pd4Sdx4PujTifpBAqLlDUyJJi7wx74e8equIPSidQDuhzy73C8HK9ifX7Ymt5sAAADYufuSCPnTV4ou4tCC7DpCAIw7DSaIof76kzBozINW6Y1X4C2HlRwz/z7/XfszANjmhDEbQ8na4nRHf5JG+6/bbIN75XF3rHkucjKdHftCGgQ54WkScJJ2XBD8hnzF8N6r8YkFGMXNp4dT98MsxxnLUyJ1IMHxzO5t3CP2RHr5rGNdRhsw8VQ25C/CpxPiJ1b2h9guBlctuUswzlBViSCaKWTb0SxG0O+Sz6AuLRdavxuobnsas0oyCnGkFAc0opp/7RA6nj9W09W/BJbj7/b+PkLhALgTqPlun7YNroIPFqr/aX+DN704xIn6kjLQIUa+BVgPUaXAABg/5KY+gfQOgHHizh8/nAT4b38Crlza2URWwiBZXyrjzquORfQMhvm37d65f7yCcfO1iUsWZgQF+Mia+64upujCMDbPBEyrtFUnL5RvWg09SG+7Mw9Lg4eiDbU1/VuD7+juywy9295QxQWak0McspNgjYiby8g8pf44Q+f4fSY8Kk/iSLm2TRo2wyLCJn3UjXA8867+RAqsBnH5nNQYifXW7GKj9BNVZyA5haK6NIOo2PVCJL0HBk18TV+GwzUQDzP9z/Ea8XCPzH0WEHGMQNlBbHx3+8m9bTZ2iJz/Surv0PCUVO9GTMhxrbOaqvxG/W+1AsomFChe1l/Y0o6g/aaFrTnf2+cTzYcYcAPUlxpYWLN4hLbW7r+8LgMzKERfcwUi9yD/zXvm2dEYBEHvtNwEI05qKIllRoqn9lkYiCNvL7XL8EGiWgv0XJA/qXjmwNahF/hMpNMJoP/IPBPMU3IACwHzMS8DGrNrdDPXEyQgCg+J7S4QM2JuYX1HdmJgp9KLZGF/Mc9YdWgrTXgmQNQilFNHa4QiwnDZDZokC0GTobABdgKKgAAE5+1+uEEPB6HBTgNiEB+rvPdfaJpaEstzYJLHsiI9W5Yqbfu2uyeO7ARp5qs49rmed8HL+latgEEZ8ZsKfRmSB0t78qDcJeZnmV678F5xMNZB2A3B5CLp4MuafpM+HQHHvEK3bxKledu3zJjp4avM5gMKiWSAVBsRPOFw2l2NeorvCSu9JlRqJs0gSVv/lMaccsANbpNuifglK1Wwvb/i0LnZc0DC3LEhnMOnCUA89oOphLCZDhv+wZ4wSTXXWYOaZAskeU/OtKTm130wuOxf5PDmjAIZXtGa795ZiAurJ4SkIU8JryH3aUgSxqIHwHfI7Hg4/g8Tm8afh+AjD8NT3HMjo4KHJJLPFz353BzqRYL56uOHYiscBiri8fX4ZPIDN9s0x4/zDl0dGnuZ56ATDHcfjhqNgzdFjbhmBNnR10Z7r9DY7GHSJ+BHayW+AR/SKuT/XWiTn8ksw63ZLWLx82bF8491Y1OXmqG9mjx/nKi75BA8XUw1n4IEUPPw99D2tW9uoG6CFSccvEym983bc9Pw3jLnB/aRMTH8H56+VkmtRUmdOYnuCvRsgYO/CfdXSIGQX9so2U++6ZeImMCLqGG0VQ/v7nWXPNjgKjRInkWHdCTfxLBRH0d/RuTwMEsNXtr5kEfl1hdbR9WtTOFC96k0GH9ZASzbHwuomv8QPZJa5eCk/Ltr0wm/mLRE45Pz2Y88jjH2jSJ1SIlgoMhAocDl+QldoJUxut8UgPGB1LTBY0tLDcoLPAAAdJWkkHVgO8x1v/joBCrs3jvWflzflai/Mn22c14h84bd6R50hfkDSBOZSQ78Ttv9Z1HaS9540QKBcbHzQAAA23u9e4YveVzq6t2ovKeD82crYFHs/yjM//tBAAkSHUxKKITA89m8a/cDLAmIxvokmcWVEgAAw953Y5zfy5B/APAAYPSi10b60XSTe+ingrsjGkpiqGcjrYjnMAAAAAAC01n2CPghh4xY1qF0+RehWNS3aoeI8dXDYFF+IYAABiybphwvZKXBJ2neJNEeY5k9zaRat/jTdA36Bv0CtgwDAAAAACNaB/u2V/SZVCJKHZWIfc/eX0sC/HmqNX8qVYl+5/jf4P/OdPNh4Aiq9D9Prcs6OAq2KtQq+uIGv4c1YOSFzIO2+ZhifseZ7LCOadJha2GoPrvpGkN3iYpwpylDylN40SUySFDWgHBDl2XJlTNGKVgTyXAz0/4mWZtNpYQ4NnYXs2MGTdCvLYXZJM4ZrZLO5r1aQwg3PJExEFVclZjLhjUACHXiGfksV/f7v6FXyUudVGZ2G3ZTtUFyFfLX9ocOCavcgJUoELm7VoU/2Byn9l/ILaUlSNJAgixU1I0VaLL05eaGgZ0n37MHB7JkcBOtfhjQasNlfMTURmsRogx5jDYgmSW3zLRzPbY8jcgAttBBWKWYkai0fIG7lkrGyEY0l5Ugb+HgWKgUMF/0MmbI5hnwN+0hgO/7S75+KaeMJ3toOaGqpPUrGuOPqoel3TAiIS4GUf/zZ8W3MrJEMbHtopKierdVxlOG+xoUzSQTC9Xdyke7gOknczDnwUx+xDFQBnhMyclHNuY5K+DyNr9KpRqORuMjnsQBz5bFjGFQXCZomkse3RLu03wMTz9X69a5JxqR1fSHgRH+cXeicoQUM6aleHLzs2OJAEmjT572/qanlYrAAAAEicjUn4ltELfQ4M9B8XRd6+epAkvnAtbw0k502XNf1GEgyLKCBiXY/ZAztDbVai4dNmu7KjRWK/Fg0aUCAbJAxPdGPxGAB/KKtiKvcjZjzsmxBtQltIbV+K3sOO6f6GSk20XM7UAkdp26R7W178TNbGkMfnjYy5LOrKGDS9BQIgg2/iUDk14TryQjamaozcrFxTG1Nrx7azQYIn9/kf5862o2wqg0WBKs+Wl12CLfECA/4IVyMvPmcK1GrxyihHGOAOinbsZ7q29F3aGkvNxZzfHRuSuWKiJJBv3LFua49QAM5MwDOSXaw9wsFdNyw5JfcBAAAAEYiDE/o8Ub0Uoel8mqESxDrSB4Xl2Qi8d3nUKc3qlQ0+oN831v+pYpvvpoGoAWRqJSNgsK4rmwDVQm+nMZXB/aasWSUj8T+6r1dEZTjkpFgIwNpQkhTnvsQpciObc84Yy7TKHrRM1rSyN94UzQ0M3+EKJlamoIaB92VTxOzEUuf8schDuEPMChmtbwpO5xzAvLBNQPlAyM2CN8sCZeddxopIDFlclEbJzxSKHmgn9ZqJUIyhgmZ5AnQPT9AaFYhSGTnq9x1/GqRgA468jJ0LVCP0PhCt/mY7uXu4sGBUaQpPPIs8q1jp2mt/nmtjO49eGZb39prPs+PrT6auo5GrM8jQdCHlQbIsPvlSCDGQx6qipIhVwImSy3f6NHq8puetpn/VXIsfuk+Sc3hJKnvkeH/brmTX/pQAAH5gs8mNLeEb4Wm4go8t4HDPBic66ZoASP5qYL6ShgYIQJ25gXol8lT2Cag6+Crh+vGbbPTJitDmhYjDvYnCQPrUsVpqOl0VA2lFLnlZbwJpaXBQQoAKWz1RYXdBJwAAAAAbXAACMnq7y75Hw/6kxeru+skhq3onZb/M7hRZ0NjnxzxU219jVnP9VEeVcsVtV4+da+EWHp+kK6BQThnT4ICBXmzuNu1mj4qaRdpkbpWeHIzpwAaQvEPm98AqdcjlxeqJ0Jutj0TbgQ/NzAAvDuDhIK4gf+kPm8Sqoa5Xio6c6UcVM+k5gfPn9J6G9VBihmeUm2YXlm6pLYtq7HFQAq9gFLUTselG6PE3RK9+akzje+d8JokjjaTUrUb48HH1JHYvy31iKE9kWEsz7E1h8E2lTb/KAAAEyuNBtQL1VTC/1356EfpdicUYqsbzo9GY7fd4D0547Ym6WGcnVXtwzmDl6bu4waWb3LczbPrmf2QOISvTfjHUiPnIFpM5tIXCo9I+TmCkomVPuyrgQx9e/2V+4+Dij7R+74mqawZpQZR1jVHaJVpweq9yobicK4fuarj98SEQZA9FN+eWalpNKNq5UMggeC8u6ibuLkd1XJjyfu7eXWoUvh+qyfabBAZEETVVQHLkcZDBFkV78vWecS1QTJDaqAaspd5ElQqdMqGEXKyBGZ3qvaTMnlgtooNlkJj3txrMxk3q061+gLOAhOX7G/C874lTIUVZaiwTHLWRI5/dxn+FggsH0awgILkwsaCh93itaSN/JtRb6CT58eKj5EPPW3dh+FzKfbVpEOBgTLvCde/sEEufVeYL8NU4Ho/H1m8Es2RIC0Ju/J7i174qeGtJkS5mRt8KwmJnLkNnK/6J2dcXzJka28nGM/p32d6nMF7Bxr4x4TeZWDtrbQkP3Zt7j204epcOUxLFDOmZ2MWmKQa+fRnangDVv1weSUGxzT3xoBP8PvfvjTWMfRRtlni2RYSD3JJAJcyM360r+9HRrJNx4GQHcZSdicGXu6km5sEGA/W6BrHUizFCnc44yy6yoHj+wJuBjzia6c/xUF3RS9yHptuDhimOjP+1v3lFON/3JxHDubIPOQSfwHhm2Mi9lPdIdVK6xbPGXIVSKijERWvjmGPJq8hW0jEdewtyxR3qKERqq0+ZFBiNExDBfbN3ZmHiHXRM9CUOwyqluI8KI03vK6zqvGn0fg3Q0AaCf5fkrLXa8l4j0Lsux/s56vpsSJM7vDHKpNQ3Vn15EkIm+gTLudC9yh1X8xIZxfPEQxZcAADA90bGGd6B5KJLrLJvlejU3R8VHNw3vC8iZ/sAu0FEwga7wjwi+yIweBjJU/MI+5XEALAVb2W4ccSdXuvYONXlzAONcdoeizLIS5yLwyK8Q/Sd75Q2nvfsSnDmySjzCKgRoCIgx4gIz4UxytlPvQxgOinYn8rUx5sipj4fpuVv1Q4GmdPuttdy3pcJ8QU1M1BOIP6w8zykTabNYX2FTEwjE8Mib5v/A6U28d7qWtWE8MIa6mMY8VKCm43XnJ4A3jv44/RvD/dlswfJ+sMfGm3U+EYl82mYqMxSQJo/PwvfrDhPKHAgOnM2ADfW/ctADkBGq5iGF103SG0Hskh0Mks1bs/xbWJjNSCJ29VRQ9oV3zoRMO9nYk3BEEROgtaAtQL/LPNieF3lh7oaQbD51vVmG5PR79aTuq5WOwaJxMndni/xvXW+Ak7Kf26Yfmbi3cNxIxvfY/b3c9QPDkS1Asjy16kqKG0kaYViTRateMH8h/aDB+3xADGCAB0JteG/k5HlxaUaFCxCeqvSf6WcRTrfeJMa8Xo1be+2XBCDmeV7MkF5CzTU26p0dHEYx3aEnNMGdqo1/Xi4XiiXIw6vys7DKse5GYbcgRF3he1dL297u1lhTgCLwOXCCzV0FtjS6MSvy/dX8VO4iMQr8iK03cpJg3q3BouniFNtZ0lzqMsq3UzLQMutGejSCKd09svfpDpDoSEXgg8OjVNkUultqPe+fKzU686cg7RI8SVXLpc87rtUAgInY49bt40RowKJWMuFJrxSniCYE6lCIPhcZbmfxBoXWAI/YyRtPtjqzWmxE7CyR8q+CKpde2LC3H7Q+Jkk6CFskYO3gf3FCh4QykhN/BfaAlIGzlZpyckAAMrh5vq/x5N1aVTHzaiAAAE8u6c4AtTh7vDAvxjxgscTALvBvuP+5zYAaPUZ730Bi0km1HLNfN6hxDTMfu46LrEIIPUwoGAfYIUgop3VquL9Xw3l+GA5bFsiJmIrJjNKBGWz+shaAi9hJzJ3OtP77crynBFpOkxuuVWJ3qv1eT8UkPEw3DYcl6HqAqUAtkkforrpSEsvp812nXu46g0A59P4gxPMKsaxJbkCrjLYD2VjNBaup3SdCFdwEmm66WpQT8U+m2bZgEQBSc2hJSN8X75QrkCafnoh7+pngtV3VzwwzIpWjt8fgN1c9sa8kddecTBN5HtcqQvQvAARSM/XYISfIULIgToRREEeoK5PZV2l6m5hYTgX6LDKeY9GgExVyZE9c3tO7PVwCzJozjIpwbXZbEaR0o3ugySXld/7egbiY2tgMvBiQHcZSdicFUcLhqbGQfjZ5JE12Ve+pg9BibGyyfTQ4pXjakuIVs6Y1BeeIgpntaaz1oBQfWCrIJRXgTWGpGgcPgQFtRz+3gBXwkABK9TrnNBHuiOD4nfP9o9fC9ZbHY3Zh/6pbxYUu8i3/i5oYMoCGkjfwu4Zc5wA8KS+Y3DWsoDaL0oHPZz9ZrP1zDVgvhGZEgHgBGq1jzY8t9Scd5iSGDIPMNYE5R9xT/HiyLBjkEJsDZbehZYyb7zpENqD1RJUd4I/wx0cZSJOe9AgyjMN9RUOxr+VOKTThcjIN3yE8qiyutO6hvXYMgr/LqxQRK92xhwO7Y66qhFS9scRKKs1pp3glhyOniwGkBl0ez3Csaq09XU2gA1K99csRIbechQ78E2wmEmZ7gAAFuMYQRVu83GzV0OVQzc14ahRIKXDfMxZTfjJDWBnslghPrFd7XvRX8wHiYq2He778fUj1ExaMKsmtSlowdKRDrcpGx9Cqh3XL+BywTV0oo78p8ccvQrdtU9Iff4tHot1+rqPPwHI32VV90B4LSIcdzgmjYA312s06fk1gZSnp714eTtvpc+sgTq2v/eDfeUiiuomPAgEGxgDKVHOKnXNnzHNcpPAV/RfEc4vIT2lEeKpx64RUhNOxu4hVE5Xrh10BQbwwZPfYgEdxfovk6H8Z56YhwfIjpB5Gdn2lMO2f+o6TpPMIYIJNvc5X8mZoG0wDIqbnvKc4JxodqlPqulK+mDErC8TDPRe76TMfy6JLhs3E/lKzyvXwXlU76N0zW2o1U0hFUq6Yt+2yKGfJ1eGgYVZs1mxmbWc9FRHmi2yCa3S9O4CcDX3AZidSdIyrJDMxH0nbeXZPKHRJ9BVxZmyRY716dDos5OA4kppp2FQOm7UQ89YNL94/FIskCQFdEjWpDcvecbaUi/TkxPCI58HLj0iqV9D8YJShThXggIyQ01WIRQVbxhAVzC2U6F2rCVw0cJTcfPFeYqr2bEQdsn6QC5idJ3ZKiFtXkgOlLFpSPLpWrgt8EsH1QdE8FDm2RRIKpQO1uyN5Cak3+nOkeO6UCxqvSKoZKVKBM0GPgkSmhTAT9zb7qZmbg1kY7nBZhBNGmrrr1F6rXbcrDdHCk7REz9PHPuIblMxhHaW+wVOrHvyvoPSATAJOhuLjYcw+Zm7lA6onS2Deou3A3/Z9KHm5qBqot7jcR/BlHpXUFcZwYT+1fOVWRzjzv24+NgkhWb58MDmG+3+CVecpT2AHXfQ7rMpfCx1A4TdksHSvwm0dlCEgSEfI0pw9ZviWNbtFQaHt/2nbRwq3Nwdm8iJ/e7ANA8IeoPWta0OAAfqu+Qf+WHEWgxwIpAAAdidYW/u0Tyk1ORRdeXOF5p86anSsPosjgv2NsK3l8htnZbBTTclNLVfeuknjnFbkpIrKW7bNis9eTWSnRZhEPwD9ZJzUQfOtGYp5mx+u477sy1LwlKWse3GgEBqL5w+hg/DXNTGQYbjPqhq5UwshXzqSowfsDxDjZUZ3pJMOk/rrKYIFidh9Vr15eTf6R2YarrVfCd1U2PPiVQFeXkYg+T/I5I7eN6cGOG0n2VW0pcuZUQoqYWuTl7PIt5CtXmUN2P6p26RKXd1mRgm6bhH4CmI4mcjCEEVZ9v6wDNRKuDeYIoOYKmXoR2aRG4U09O+VY/f+SG3bcK8CrIA0J9F7xs5iH1zfbgD9K/0lC/vb8bhXmS4Oyync6dgBQTKp9kpaHNIHJ/cu+2FlY8q+CU14npZ1oN8JLBKG+ibuBZmqZQjnTPMTZUQ5SdcmYkKEo6MdaO21yAIhaJl860nBom/OPrWaHCsBsQQHTPUFS925W7dbYPEdfvvlgN7oncv4aYFZzyLi5jhLYolnvkOPsx5TfONgWmfLCWOqsXxlSIkVF+q2xqAFP1rvWLcFBVoQoZ3WOIDKbsi2HFKQHtQ9t5jOw9Gf7Yr5AAAA/Ty0kCOyPlZ0bg3OVP8vqCoE6JgpYQKBsZQTjd2532ylUWVW9sqqze2HBpd75WH0tRzdEBtpIL4QlZx/6C2lNgs9aeb8hDp8n5erVlkiHSGukCykGcMN8Wl/OAeobhm9Pulb5QdmUuvB6B99qWg2UUzmlxSuNGCXCF+n+gtlueveDQM8erF3+8KUtUsxpPC/yfYKSxQ8ToM6ydMbOcupKNzFFD4gjOfz64ZmazymB8IKkj4vmOAmFYo//psMAbpL30iCkuRgubzcWGvyI8QlJ/O5Iuj84lQTBU49FwQkKnrWD7hJzOHSi1Byv6KH+vYT6XrD+9FbYyoJ/z8zaqKeqXnogFvbrUREDTm2H55DRuDXBcN9UfOfhtxNUS7rN2up3qeZ7ANpoCAACG92BEkyfqbKbVLJ/qeM9Owv20kYWmGBGIocEB0yqFTcKMTvYoMjOqsE0R3cq9maaegOnNMVsorR+dMGCrWiaoTUs0gAABOEfmk8VWBC3lUmolL8LGByfNZKqTWD/+GuByF5l3VmN8aHwhEPDhpebA+FcoBmTQkJ4AgbwurGGezPABQwuGYRZ6zf97BoJUCMaK4sBbdRcJ49VIgg0dHO2zY0IFDiRJplr7TlTMsCGkXv35B8DIwPivSPahzuKqM+Nl6q/Gdh2/kcs7VF6ij491aK4M83SrSZyoNARB1Hjiwi1KS0zRMOWV0l6jjj2FZaJle4iyPkmZt3dK6kKo+K+C+DG5diMDy7Lx8LC9n5cN4XH5tbPQIcikhckVG0+AsJ3MkjpmY8oa/hAsMX+f+nnNt7KPIn/xJIaVBwlR8/fqn3O1NdS8V/PsL0jM/nT7aIXubzSVQ9e6KA9WggM9rOCN7ayrzgXMOPUMTIRNvUws7dys7JwBzWNpcvWyWTtdfDP5dtrbaWY9e8bvFcOwlFelhrEYIdhoat39aTKWIUWcuzuXck/fzsgKa7TuYimq1eEaQVpuAuZjAiA5R177ftjRw3wvC1avLJq27zOzlKrzOgwUkCt9nfi/JPtQGP6AJ84vuBkEzGEsYW+EzhEteZU9aTMmkDYuaWBsdWDrnmoVCpBKVpSzsRaXEEp/TnBgMxkVzvUgzQ6Owxovzs0nLgyU3mZtZT4ga3m471Lx2oNZbMkkcMHJstLFroqw12/Cj7gFZEebM4ZZSum4BptfqgbQwxOA3K1/68L+P5yRaZczVfvFIrONQqvRGzBnQoxpOjQPN65YMoNyE24rwnT5+AvRPfgxr9xf9wOkMfDNdn4lk8Jj7g343O8ilG6ddicVMOI8hgmR9SJOuZiMSPW5UCVHAxq1GiNQieZ+YfFV2RLxQzYt67Xv5p80sYczsn2DK7l05Zike1K8I4/WsWfI2RY/HYRA7JOjN0a4G/W+C/+f9w8Uf6G5Xdwl+JlbhVU2WsJk1VXPa8X6F9/z6iLOxxbBM72AuRP+HsEUxCCQY3V3XpaycA3VIfH4QUYr3LBFgGg/5m+g2v8D4j3YcOl6vqkAmhwnBA8gg2G5Kk+yVw5HidiIMgyTyJsaLVMSwLghVpfZ7BhEB3k38YhOERwwiAFT4AAAqICRXKdUjWgl8kOdSDc0E8/h3I+xX2dM0I9UcIQe1pnoTJD45bzTGzoMmP0sQCQWOLfDGF1y+wW3pMsNgttN0hxhB+XrGvIav+PKv/c6kzmqU1sX/M2r/o6qZpScZ/TSQBpua17VEd5LY9LlKYB6z7c8AolEg+FU1b2HryrFCFz7Pq1DGO27QWRqMn3Fv+h90vS0ajRhT1rBlv8UVd95EWmO1aqw+KWFnJPbVgYufSaHsxdTMGcXIK8NXdc5xc+Du3I/rjepy2pMXDRAa5FsxTL814Czuirh9gbW3K+itjEZeCkliw3lqFuNKKk8fIAeGm86Hu9kBYG1vU1qy5UJ9ZT2WhUTyTLZO9waenorWx8jPEcP8620A0VX85JQ8JfZc5hHhl8ucvdJPNgWjI0CDxG/CmDmItdmJHJnDNP4w5k38dSJcimiiUGxz6kCN5J0QFh+0Ivv9n3pUV8dKMmVOCFZbkf96oiPstQrnGc4cCxqrePXqmwRd3T3JpnD+x9VUm9dawjp0cNlN/TrQWAyXXzpm7vXP+aLGt5ypdctkZ3xmoTGIP/iCMos7Q0LEvxRI0fT5TTQooAregUdtjI0Ks5OqJAr2h7gV3t31y1uaaqsQIUBRmjFT8GLffv61Bs3j6vvia2MnuADF8+nCHACxgIVnzZhz0K6gWWvkqTPHJraOwG4Umr+IxvpRozastPj/ncHoXqpDC7ehCpqKjAgm9waBQi3GvN8iNDhwHI8u+7oYUKi0B6EqnGKTW8DS9tVR3B230/UdFA6p9+OhJa3Q8HH+TDUoadppikeZjPJutYLygoAXmDyuRVTZyeqXu0/dUOSmLgyKWPzg1NVySh6dAsj0LxFtpZck55CadgmKoYvZyHhT6dE6hKQnHeOobYXpkX8Lh7PkVP0KOG2GPuNxx7YG0Tz3cR/ADaScAJXEI8kLDUsL0Gom0uGz3UC5UaI90//OaD1sG5NPXIzLBjeHiNrKFTOzx6sldqz/Tkbh8XGa/2zwjOgn5HZCabmWITWvFybQAAdQYPo+akxLWQ132gacfLGuV+8JACkbC92/fFSXpAWE6R+Uh2Voc/6MwTL/y3kiwfzd/9Mh+A50ov61pf7SzlpWSNP9ZnOjRWIHLh0Qr4PbwVh+Pfkq4sgJZ4lyoBKyF2kjCORmISNUSMCrLXoYbW5a6JV5AqjeXcYX1uSo58uqeUtY6gE9rZCMVHWEPNG0pZTeL4IfyEzHxsY/X67BIvw396RiQHYwJE6aWbWFkZ733mV6y8qzrVIygtH8Kj84+03pXozDrOYTNvFuTckOBQ7ApjRDnZx3neYCJ8zZzOXFqRwv7e0RLwz8/t7aR8yySrPcmNDFQydkCpA7absMt6uq1ZqN4vh9mKWTdoOKAMBtAjbOrbE4PJoNajNmkIi5haXfiMw6g5F2LNo/PT4n2PLv2nlLiXUhOy3lPomkOlKWAVEpLO9fuDrklCvrE2la1UJQKu03Q/yQ9falvmioJXBNGol7g1P9gkkSGuxTqIgyHzfyw5w1+qIB4e5rxO/kBAL8592asR+QbRYgJcPOKOQbTqZ3oyTnD2vDn1udQeFuCtGypy9NwAUmXrn7KenqKTwVO7wg/N2tfz3t+Eevvpe/HGaOEeKyrIvW1/t1+ATX2tjwGOrpXY0xUO2xH4ygg++tSLpqPvvQRfiFFU3nCrFw8APa2Yfoz5LdlbL0CZa5oIzPrCjxQ21rfcqyhVOin2wAAA4SYmWT2Ous0BZF43PQXF8bv4gPAepbrYwBHFJWdBmQ7v4S6TAIv0b/n2G+xc8Ip3ygCOTWRd8kDv/gYuS/dspvNsrHNqS71mSgXfNTJex+2As1SEwE76ODiQP2jHVxUrY6yzBz8Dum/e3rF4N+aAigDqG4sLqh2LmG87hG83XwcXfTXFslBQnLqvFYuCen5EBqjzbhcpLNVpGKqcuDLMTvgZ11dNxZyr+A1Z4Q3oOyByuotybd510YlEqYSM9OYf3/wke2E88d3KsMRb7oubw6y/4fsO1Utj8wDq5hfmqOK24s06ZVfiZXiMurygcRB5qQMaYg3Y2m/HBjrrhn65vLrzbx92m3T4yOeqpT238ebsihHciSyFz/Qa5HsrztD/EUe+hpj47vXCXjiMyubT3Mji4/xROz9VfARPMc9xNY6LU6eq50KGmJlUjyCbQwpxlvjYLE81YehrT8Lacb520P287lZZXogpgOwmEzL7YZs01t/2eVSZ490o1Kb7bAek22JViSaMVz1pQ3tr5qMbbRtOPO6vweBhKBEJFyCb5eUMaCbZ7NccAwxT6oVRuS4FB795QvOzzvUOyvgMnkCyrlvJ7tIItbsHTGXkiM4MWoQNpvLm2s4Wvuc0q+XxNwPWUal3j6L23QKr7/CyInzXdaYHfYOEefG3VfZSbnEPswoM6hNsG3DaL8rWKI6XgAb4IZ6unBQXUgq/j+uaN7sfIu8kfQlWW/sXaRoBJllzvs7kNQtE4GJ1jSGDtEpGwAABPjb3d5rnQf/MZYSbraT6W97xNzipWq0zIhU/yrgaZGINNbCdyAoGuVWn0hbHHu4Eumhyac52tfpW8qGf4iOHKjp1Xg7BK/NQijQJ1UF5BxNkE78aNsxfGfXzKP42TKAx+YBcJefDLzMysBgkfl1wKstWx8emNlgQHhRTSAmjxfJF9Uv8fEAF2aZkopfuybCmzwCV/bh3d5Kk0HMgGJioVXUUeeiwGwTm7InnhvMBMl0SSnW+1jlqKHtueAQCnoLFSBufW/iDZO/P998bhuNCs9HPb6Dyro0XyF4AF6fSW7UWUbOt7Eo2FnDVlZSabSm9gD31/4Jg4HiZSsFUjhC1HoMifuUCqo5JNVVjDo7hQ7en7L/rOmgafdxUOKmoa/5j2tlkcGMAK0HwQf2efrv3mkk+pJBxSYaBSi0dMNpVRxyGMWP7U8n6PVaHFza0wVkbT3NOQbNKdY/lYpJ/GuxeYlgiCxZtfGmOQz4XT4M5nrYAABDwVQuJzoZHO4KjmLp8a/bpA2caC55LcgRgp+suqOkGW4Ksvz2WpnC09ptTf8Yji+3o6rFORshCDXuZi4ezAWHz9+DH6dTpxyrJZzg3zmpgqe6mQlRfIvVqnQbJQoySNKNaCp6vVyeOZkw6Z4km/Xr9XOTGI+HCcgiC5CqAUS6YsJD/8cHfC3Vc541ZK5TC028/FTvSPyETNxG5iVfD2rmr7N+GxoTPK6Nw3xsUvwJBCh6fmK4e/dFD4fFVcC95UvlJMm3+dVFDxI9fo3weqFyQj5/nQtwmKI4hy7pHG92lC6PDhb0WfljjWzpM2F/PkrOvEEQvDDO2vceQIViPJA4RfSz13jd6LQTpROBvxUqMcKBDxfDTQJ7iGMJcOqHpNP79wAvvJyxVppBhC6jhtprDX6hmIZ0zYcv7CVZ0XRT3blXorp8hp1w1z6UWfSevqhx6HFiXwJPLGw5BguvET2xiYmIoi5VPsa2M6V7SnjnGSAAEIf+YEJuORay3yq8YII1iiT6krFg6uZHp8bmVMNF6INwKdsYPRH1batUZ4FjzFSqsO28T+2PBGLYkWZaskympx22iTAAoV1wjfq0uoCi7aPwkf44ajMn6C3fFG9SoPGa5LqBqbVEIlYhIAAGDklHXiOYPR2WcVzA7aZIe6XAKLKH7hJJyfeZQE/9U/uKAc3Yk0kL49q7Irz/8A+4vTfG9woGU1MntkkJ7Vao2JiEWCC+79lwMLcXJ8eqIzbsoIPAC531uOxOLZp1edbHK4uxFSij4Tpm3xmLnczyBdFGxs6mQFsTq2Mz8ZYFsjBESUcC5hRVHm2/VkVToUZ6lt8fFU0jHLx1rQhv+L14bmWJZSzkpMnjvk5FQsoroNhtlFL2wBirbRVCIoqITJlgE83tfnKLQM1AXQZJ0AQ87/ZTyfYF+F1aDBufA2W4Ux7ZIEjW/ZZC9ykyWIouRni99IcA2GKkkAOw4+Oj5RcVp/HUkppaolAYrC0o96ayHLk1xAAwYdmff7VAgGv5CQ82SuQV4PDK7ELkbK0iuoQdsuDPPeVf09z4n+MccnVE+GLioEf55UaLMuaXXRvpYFTIdWYRPsEAjYPeWzxb8roX3J8psyt17ep4QkRa8Sy4RKpdNzV8uJirJB4QdUMZ9///vdhXuuddT9SM7S97sWPp5LAgZx/D+4Ky6ulZlY8KUMTR1/T4CbSTf1yEJ+7mxjiEnK0YbM1Px9DSWXRTj5GlBoTPMyTOLM7urKm9KCRta4rgsfQfnEsqvH/f8DbptAyqwMuKi6jya3Ebt0p6SsOnqGRgeiGnV1RPc4Sf6WH8fy89ALEjBYESiCDLB30JIPIbiVJ22bcjy12TTEnUWuTysiaFavfbxpzYTlGMfX+g5iCUQMkXe5sZ6C542NCCVBgV1wc2y20LTMADQQR45yr97C/lqK31g/Xtcou+emILXbB82XT/5XFzCJpG+C2/R1eSscJsaL8GoijvLDNv0Q+fYYbo05jeH4ehTzta6sVD2aGBBKg3kwMAem011gHARocMbKmksTDHRPkuIHuRZAGeiUSp2ZObWujC3YZsub3z8nhk4QS0vskvWiL6lwhnlxY2q1roNb9dfCW0Eaou8OtSB073RL/ropthk7eGJSbl0XkoZnk61AooDqzCNV1VZD7TATG9yY3JjeRXU1pfrxxxTtD0rmW+WrqnN6POvxTHH11fXh5KqZfTXIxLo75laAACi8LQfxfXbV66mrJ+bTSBgcxzZeqglaXUpllULmHfRoZZzWIt12nDpFSAXkaGdUPcklJ/iT02UBhij1lGpGoLWszFmshruxhuYu3sYM0OYlvb+Y8C1KbDTVf10RebTyeJjTAthi6mPQAllPvnNu2TG6iQe9Hp9xRCTMrkn/d+JIG1z+kgg5i2tOnIKPcrfAbOKJvhaZ0LVOSWqQsPpHaZW6E/qxZ9fTcAitNRo6brzVaOIwbI+UWFAgWrl2M8CO/kOPrt43GrStB/O2oyAtY3xsk4g203SYCegZ3Ejcj5LRGD0zf7UDCgNffwx79xerY4kvMEvzzAix8m6tmpPlV7tR9euukK+nWU9Y34ylQx9LEVkKdP2GYf32+zVUMjKz2HAABFrTDWf+arC76UNSovy+jsgI6GICklplhrFrEjhEiR5huBG9D4TI01ffanfMws+ngyuHIFC7uaY/RqaNHyA3RcDhkFsapCesDOLdlnXc8zmhS2YAkoWoBrEjNz94pEY1h8siwC6OMiIQQXUhZXq4ASEAF/C1PAjXvhxwq/naAE6M8Nt3w+o5rbuWF7fWy8ZpmuXlSy7u+ohtuSYDjggWThmHCRHQL5jtElULj+mttpa2Cm4wcJVPUwhiNXRMnQ0St/XAvqp9T9K7y0BTeHml4iqsOV0/OhYXeloBUOnOwo0ZO4p8it+CDjuZwKFVzYpeT4NN9I+r/x1CfP4u7zSAZ4AAc5/vFD9dVYy+DsO+gFiw/kV3QBaHNYTd8y9WCNUXxiRiTDGPJ1STRXqpHfC58NUDoK9o5WoNgrYBBPVZtXemV0tTCmkL0VZsu8F0FB34yG6srxrG+zf8izvDDndjGjDbREAapBFnRzj/9yB6lcKBK52hp1TOQAH0j2c6uxCn4fe5yUFP0ri1xllXlgUMEVrJUo7MY7jbq6aP1BPNFWxZ6L3BfQGaDAoJeYS3AKTBFOQVVlyflA1kiAGKgGJeVYCaHLK5QkqUJ1Gi+0fXAJLHD0E2LcivCmfY25tSqyizT8UU+sBDmAAAKpGbt/JK/ry1CTF4qMt5jRa6ZIQeiRWy/QFemE11iS2TeiuFTRJlyyvCpFiamdcfjGSRwQvD961loiqCJpsLI5Rj7CVnxbOWsF6VdYuwitz6BNHxRkr5O9jWAB4LLFavarjNQem+y/l4UWQ/EvUsKyElA0GTs6yqjPscOqpTLIjEbI3Drtz8muUqd3b/s6LVq9ofyjCrc8yJopKTJqP1YFk2q8XQaZ6QMe15c6mXzCkTE5aXB69iSEWJ8jymykWAfAPG8VtjWfDwE8uaz7Ho2AQPn7Wxgus8TvLJTER1K0GUeAoTzAuH4YC9MDhOBlQM0UHLL2ZkNF4Gi+06FgmiWZAE0HaXMM1oeT0aw6bLaQwtf55hbXiUnbSlNdXQ0ZRZrVuAOm1EI3tqNxfk6i3xYTDkOWYxJTsVzmFUqgQK4AAANokiWL+a4x7JK3waN699E32Hm/3V1NPs1UIbC1BRbB3SQzl1kBrqw+RrNq0ibulToErXcEdivORvCbUJRpgWoA0Id0l75EpP+fQQeUlWR7kkYIbdsChy7DGgu67Kc6GZuLWVhz7O9bKfoBqflA3Wftojj6oZpiIqJIy+3fXFJufP6gfeHESRLF/TmxPOUuNTRVwsCHZeitsrVng8bVeRF2+r9udrYTzx3afVarOClWCaBr2zDyCXORfFpptMTW1YL2fKlChzeVKMQ4GW+bxkRjC6b2Aab+Fne6eJfCQXDeEplJ13a3IZffXNMNDRFLr5zepmiqui7jvF9a0UA4BmfoyWgQJhGQur+E+9gI5PpWTcrLdRr73qjO1cRLmex4I/7QEUd7hmA0KZsg8xFuhZqVJavJnJn4xS3VlasNVtfxWAjKFKKqENLmuwcww+zZzxsKLEs2gCV6J12HDmjoejl8JnIlDTAVadZDnXhWtRiIOXsP5mHFR+oAAAS/ZhytQy/DFos1hInbKBTQ78TfZ4A4fNwvsh8sXe+gmAGTZplG3WmNDkCWa4MR4CvDwGOuhV1lK/aOCBf2s3JpTSEmdMiSIlxGFb8E52+DQQMfr3uzytwbQC9zSlm4dOhoPnsxZHwlo/gGckr80XJEQRmXrw/qqS1lsHlkLqHs07iVVl6HIUa5SDtdSE4bpUbuo0/KtPzep71uTdUKa4npl0B5qHI2LOEbOAbzhjIJVXDPBjOPT+GEFwU+t/LrUOSRIr8nEjtVAef6O6KgfUMynEHPWajZLysfXXJF0y/mrBjJdnmcKg6WCB/6o9an2SqTopZX65I0al1Q4JPc9AglQozl7cDQxpz0C5kqXz7qEoV6FLJgAFqM3lf0DlpAnTLp4xFrPuaPXbgUBBtptKFroYuvRABmsbD6bXn3IQnnQqS6+MAAAPuOM2orG83RQWU1Es83nM8mco67aevi0PaH/ZzN8KnGqRDMJiNKAWci4hsSrP8Ef19STSEdCkeRlyCwk4mU4B+gQM4HJI9EBeCeOgN7PUqFEepm4mc9USweSL4U8fN79mCoMwP4ulax68/YPjEcauJQTYw1hOP0lpyxFcMV/7uBwAdYJuijYReeOClJ9b0ExZaPbBT5NdfocibgHo5/5vtExn74KZy0+tskG0VZq/V0xA8pHLIY858Z3EHLhSrhktDxgnfuAAAA1kfelG37EKtkRiTYnoIIYTXtwJ4jIrqC5j4gddEgDdoBf9KgriXenJbnJyYZ69yO7J73kw8XcVoemOGe/lItWXf6eXSv46eKICwUdYAXpmefl//u3iOxTmggTlhVV1zAC9VvchEBArR5hQd/W7oOXQ9dmk6drCRAM+Mg741N5oGyZBDsklTcfGGrvvyAMUQ82B9z3bndSV/ekuyiH0BcfINA8s+PdsQY+9gJ1H0tCfosPR6ntK5xt4R1v8PpC+ZLoI3Ha0kCAfXKrMs24GwxW4spZSgf9pC2chtnjD+lcrqxLJosL/X/S67h3IpcaEYztB8XHb8mCcHDntqOPbmAABKdNMOuM6h32piYOxTRCRSuKfE5ZUygMcS/6sjv2KpQ/BQF39DvSugYvydKnmQqMVRJ3omneq3qjLV5VFj596SfWqD2Z50HeA8aFPaDv8hsmeK052V3oZFpgkeNeSX7CLjtHgwMXkTpFKsZBxAlbB6MHhdNAYsgk+MHSzhYNIDxCHTADY647MqBdCnuI/VNJCNiim0+jO0vPtsKNeESTovqvurWFUxSY2RMAeClgQ+ON0DEkY9AbZwHPOsafwlO18QIXbUKzgwK+ASMuTgAABCgIq+l0CKGHrB/ItePBXutDEE/8d5y3R6FGweTXvTuzQabFTfECZvfD54oWVtPG1BrH3UMKeRrAC5GTGoDEJ0FS4OkZNTO90GsfRc6Zvn+A3q+rd3EilmEpwnctGFJAiHcv8O6WRPCmYsSqR8Ae7FvGf01scHuGtOVZz5If+uylQ6yirJ3VP4HD3S3hqIiSVmrE0BEQAeorprhol/wO7L3a5mLA2kLLQpgQJoqUHD0Cl7vlaGWaNEHoKLTabz+32rtEhgjAK0Q9jYDweLqBcTospmNJBjhvEC+UOCl5gujVCUPhq1hek2iDGYkEcgWbwAACkom04ffVhFUyyjTl9kOYNR+GxuhQCTH9a28FnFWIERuH+6fqVlaC8sjtwCKxmLi3meI+6Sm9Xnd6dE3fmIhoKVLw/dyNS9UKAATkrVGH4PHzou7N1Uebxq+HrQDbUkv0c7q4BYdfcUbNraQbfX0fqmn50dgBTOri+JylsrnRINjvy5A3ONef2Z/2W4P03wE03M6dYZ6ecvkCcn8NgQBXtAgbuBBG2ycb8kGSqm6lW9XTVLaM1HnFTSqlGMnnbL/Zt8EVZK6IgDXVNdvwqun4QJvbAnijklVzH+6GbCUYQiAAAKGNi/S8gmhuDTEIEgAT9VkYaG0LAQJ1sx7dxlturVef3xQSm14j6mv92fgIQhj6yw8/ogB9HoAF67IYECLOmu7OwSIiovkNX3Jr09uVykwGLekg3AMwJU/UqinGNl9PwgugaCotE6ubc22b8xUe4H02tQ0T4rSlzrJjNfc4MML+uMpX7yqaGu74pZgLlnr4Oy5mnhaogA7X0cbwWdbVu0BuQEY0kBw2gtNqqrPgndRWmS/mESfCz2s6AUOkUYNvqSTM0NioNwUBAA3cefDDxk8h2TTJ+yHMXpRQrK0h4LNoXzHuUTmTAsFMhhc5E9ieRr69zr+zsCzwAABsLqvBSFQSqnsrR0L+WDlehZ4imfov84xzuwQCvU+ZgiVZNCvQ5KoKcqgE8vq480xtrNxneOYk1Wp9Ip6KWzwNL/j1txLimFfjUBO+fjqWQbLYHWw5YB4D+N9Uz2n4YOAvFloTCuXqZ9JpekZJeJYkpLZbrrRUYKOyz2IJ80Ks7IamPcDogvtGK/Me5SK+WGJfWpLBfD6YLaTYzOm8alkLkIaw0NhRGOq2cIABNkJ8DLCDGrBSdV6nEBcAbKj+A9Ut9SLEuW2jnE/81W79A+s7ees/NZjePIvLySWJqUH1d5itJzgkIx9x7rJfyDcjvI7qD9+VSQVunyvcsbQAABmB8qJ5UtZ19VilW6XOnwJFqIZpTOBJ6HBigDgfzrN2Qgk5pAG9jASoXC+5kl7IBWUiIU5g2mtmgtTAOkSJHdp6r8lyTsz0P0D3ZDnQ4kZwh6JMrI2mIAc1n98tkQgD1ge+3hBT/8hOLmaBPVZOkVahF9j92rtpMtXF+Klyh/idSMo0fNOw22oGNiMu2eUqT6U51vx6uaXm5BrXY+WeK510bIDwicg+i44cABHCLp0956bQzFXgp4d24xzchsYR2BC/6TfdADD0qHCGzrz3HQqnAPVCYWs+ClhhUHUvZjj21B5+Wc76ANWKtWLb5MgwBy7RA6DAh+BSAhOMz6IcnlolfXuzTHNp/G2YaioNy4hJKiShDeBK28VCUrxDLvEJwx8QK3Df2Me0I3KF5uNrZrHlL3Af1cAAC4GIeAw+2NOVGaYFEqb9v8xzWwGQKPIPQAQEJKTk/p89O5PgUHWYUggwAOeVKEIX1WlxtbUPYQAEgDebyvXX3AtC9EQkAvEvjq9pdNnkIZKQaeLpTh5NEzZT5C/v/YKqvNf2tVR8fyPqknA1NjhncXPszaO3vkC0jAlCSuX6wCYDfBxBvMAZ/GNov9gH7TUvuGVc5oUjDlT9bIcjc073JhLME545kp2O/sC1uMR9+kXyW+m6aokDaFOCssm1+nS6HVsAXc0oKXdwofEkkpQ6rY2iZvSx3QeHJwOHaKTGM/hSCMY2loWaAwLEjnD9/kqIcrrisuYYzBfd1jHl3lIxlxqHqnybzQkB3HVAK2K/WVH/H8F+2q+xJm8NfaHCFsRino+AAALQN2NTNKF32c8r+VDxQIZ3b9+4Y9T1AXFYcBeYsOZNGoGi+2AL4XFVZ1KBRq9wU/55FKGdl3SH/genAg6R/KzDnz4kUXaveOfj0oScOLjbD/9Ye3U1NCHfmORg3RfkhAKB0o6jeDnFU8gEA8ebVB4zMGYBH4DPtfXeuNCDcemmuEh/O5PKX7ktRkAMFKjWaTeTHL/2L0gmw8B2W6qYq81galEeFpsSHbNXqxmI7JcksqLYmBrsUGv4XQ95Z12VJZPoJnsEofSEE4S4TZKMFt4oczxtSTwnskQWSI2tyHLc4fruXGF9njd9OApmfxMY/yBWA77tKsJolWZdIdfLqrAJnLJZ5WrnFqFTrMRxmGVmmhgtAoaNE8slABF3XLS1JGWJOYDBRBrR6N/A1zyqyF41ucU3P/Ar9LLIVtqfs6YN/eNGpisxvpjfYhnYvsdVM/IAABRNAuW1n/DOTVkPRt6svzWb5dt7w56H8mF0w5DHHBiqG1GUbZ3mF9p0yRx32dSCWMPs/Ur/lS6nmPgdwJDv+kkzuWHCEYs/KvoQV7jlWQGilVF3WkQ+yrNPFg134WmaRlDlfJVXYkYEA2U298dbHZxT5M3TIVFiCr9ozWe9x4uV8w7lCi4cUmexTClxdhuQuWGxCNVuh/Ri5Gy159txkLE6DU8yWa+ddPRLlQY+yaGZ+Vsra1ZUCN+bD8kjvgLLKJIG4yLDBQj+d3XyZpVeo5rM5xGoDAQuXqpTPghlB7uBJnG8HqNeSb0sQa8dWU8g9y1NRLOsOpBo9xrS5VJ7v8Oaud+KcB/D26DaVbaNLhl2EhE2yFLF7pjJrL2qRH0mob4s8KoLMHjgDFCoTzUlabzSZfGZcqwooWrNr2MGOWYUBZzQhsTiMY43bjghhPoQfPRjSeyRj6Hxiwgy18pd61O4AAAD/ED/al1tTY8BGrPUjPiqKueK6WbMsM6uqpQLr1zVQCIWDzT5vR6b0+IVDAzD3tu3pH6vz8v8wUld8uNxnCCMwuEOx5O+9AoUtZN4u1UA0czYD5BLtlIFYymljApW9WnyEPCe/kJznc7iUmk9gh8WyCHMu6fOUgZukL/p4/URuRQz3bomcedowjL9fn8VKar2TlL1bFnTzOs3PZ+6PdzyRmZAOd44zRYMowVT1431kgcw7l8rbNwrCop0r3S4D48TVycgfLFlUTQ2MGyyIPPwhVBSAyqY+LFid5XkQSY5hdpsAoEplqsrKLTDFuRfg6ajtrCj67iaZoET0ZVOMsiRj8tPChHa36oA953lrEJuuc7+DBdlFPIPh0cGvBng51vQYy7wjb99ISv3W3heOiIJDr+8hzaEN1dvLPtZi+IRJU6jw9tdpvF/34kcOJqzzV7a0Rmb7mDDHAAADRO5aoAR/xkAyMdTIfxjKCc5Oq1k0UY6OGbwH6QQyMHi7cBUCAaRZrX59iK2ALG+FbWCcxKJGp6VuXFu5vTEoWZhWy+v/GetabJcrLinIqqzP8iVSqnoGJTToPN8XjkAFyWmoC1F61k4fpEE5Fwo6NtW4z1Fbw1rnZFyiYac61r1gCiQYFGpxr0pUO+g+8xJiGu1FZEy1KDBVbrVi3rY0TpErLQw6cDrmR0p+rVBRuVnp9lif6Ro4AQpDcVHP3Lo95H5Zi9i1xFrquOLzbfpJR3izBmVWqNUkGT+nhQCinmME9HL9CYaAcQ0AzKyQeksAIJDlqROFkylCofpjgkXn+Hnfg0j1S3uWIgGcTGUynRAZZAlPnkTXIpt1V48uZ3pbtjPzUOzW4SsaW6RiPlQUOFlqC7tkguYRZpavvVq3v2QCAAZP5+0726ZE68gee2Sm1gngZQMkHVKLCF/tAiKpEMEpxU7n+CjzoqUnaQ3kx5WDciEpJRSryRU1dCdViMsshwhgQ94EolDZXN7JQ6fWLAjAbFQfq7jqyaoK84AounizzePjB8pw+wISYC85mKYjExhhs3ysOkBirV8W956lQFqjMY+xTJbQ+lLTKbWwusJZqb0sgfsChcgCp1Dille6ReeIqtEEPxDPBebd68p9IshjB3cB2AnIJiS00PWtTI0zZKknyg1zgPijrixvOIBgKe0rXcwcmfaiAEt7Eqdq8kZXTYjongFGdTKzZq5/SZkas7VKLFYo3kpaQlcIy0EGJwoSbIdYjxT8vukg28+n0BN03SOvs15KvJ7sNezcWxFk8xhXrQZR6wsLZF4qhYwe4BdgMsgcj5wFvLTQO96XF1SuKc1lAAILXAMaxt5tIKy3d0BIixLiBuHAllg8dhLD6oDdQnZIdwH0SaE3veGyUoKXs71LuucBhOXjDuCB5mLI0toxYtjQdZtZumnlrLDxj6ExZw5xRZTumsobJct9qvPX2Y6Sk2x8qcklJx9BPdr/vWShAPeZCvK0Is2+uaewTz+RF0gxa+vyYtDkkMP2da76oKugVpLK18OLT6x7tiVNuzx8SmtS8S9B+0tvkkZLChGiyOCcqAGRGI0rBrctlKzDMsRbxjuxBEydHGiygPZmsM+bvZEmQPyh2ihSnjlJBhF0ow2ia80MRl4mtf3gxpxyn80zXwtknSqcH78F2hfLMSOUOAc0UBt1QkixKSnMNKlaW/336QlVuwpaFjczobdM0rKRmiEuE9VbwEDkZy8IW1JbWi6fQKm+TnvDoAJ4/7MD1rzTgQQnWVhr97YkyWyWop6Bbb/WIR+VP7NhIUMe6J3juOfuGcNuCRaenaagivb1xeXkKLMN6p8/IvY+pDsgN698Z2vQHqDb6JWVmIR2gbwsPlBOyavg2L6Em2CAOib+C0ul56TlW/LYMFfqxSWpII5qsoe9z5cB2eBRMw5ZSrViTEACaMNNhQAjWp9MNzuUBrIvKsu6gnEq6RlQnNA4um0C57dUCqXI5+PxkDiMsVs4hHZstI4DA+z0AZ5wmlC/b5tOPjMl6rwt4Ik3KAcYw0jvHqIVrORycpEv8odS495LI0UqHy3B+LPGPQABncPxc8kOqc9789nCQiMuyUbumMTWsZRcLlh3vs53vKqiU+3ttyVcs4YqBLmmRJgbQUBXRDnO0aTFVkvN0iTqHeRDDYR9GmYoxo07QkaSU9FnubFl4+CSO53e0NvaSZtxKlFtAckVAjvncaz1W+TJWwT0rY3lkr8MdBQGQe72yqy22vSxolnDJ7TmWHxL1GUvd3v7eECEBw/Zg3FIfeOq+uOxZwbaRIRlvDrxQy4wef1y6kE8BfKzKtiEUh3MRtQVmJTmgfAExoD5IQ3cIVHdsxwtWfwAgwCwzwaskLJ3o2Jmvc3fuSjDjZbK7ns2SiNLhe9gNNAiq4eQJMdgMpRwXqsJFMzbz22UXughIX4GmmejprFK+sesEYEmE5SvfdGIpM/ocK0g+mSNkWPlp1hocm/IxqMUEMSHS3UiE66yIXxCruGMkszEFQJzRwCni+kPsXwnwdZJgijeblpvPoD1fopf/caoJv5Bv9K626OFAtjEptbZF7Myr7aklBMGK6x1iwobL942C4wSqDq69wCVvZoR6CszAcqCQNl9YvDlYScklh2N/rmXh1CQDmhI4Vh1pYoDfiCNe4g5KC4kcXSKXR2JwiwEMGA0WnXFVoXaUfxaY4iYaJm4SgSTgqWOPGihpdis3VViuF9xYIgTYjrgnv9Iv+8I1atDa6VBoK1lQjy0/OmVNBKUvWULZfP5mnvTEVhM4TFl/EOqlh/nw7z3rvrQ6+4bAACW34Z2tlabFv3Bxuyje25bv2jVPmpUfyzPC4tKvitGn1KUZKMgOn2Bu+VFtqesCu2G3a+4nKvX2T4qIa+FtcjA1GOhhsqGD6uP0ONBUDv2KxNfsrKDxO8sxseDzlSC7cSSZ8fWmr1ZSWTPLMypneXEbcs25GiC98aLdd0Erc8USAvCDLTTbE5MIJhq4j6TLh7Luv7U+7CVUOMp75pd4A4CUp//nMG4/FIqahi1blLMCT9AS3dW2bLP7IuDVWF6iWg/rgp/4IkPpD/wLTdbhAOwzf4TVGQQk2q3gHMYV/51lxrB/r37bI5xAxXw2ITI93R0Kr+8y6hDzPKAV9KZOmgQ5m7zENTI43ZPB31q6N73psYLVBpnDbTDpCoUwAAZvraSHSeOpdNmVnmuSe3oQ0kIYSc0afN2k19CDzvPtahRv5IIbhGKKLYryiNZEsKTs7b/C4XfOqiHiGhuHW8MDrQga8IpRLas3KhDeyc+AME2nMtpWsL4qj/LSMaf6PXNCw/qGzc6BmnL1UIQr3Jw+GZDcrILuDvy4pecH1J16W62yhLX79Ph4xbspXrSRrWZcBUEanUa4aU6reUSyP9q/0MwFL+HngG9IqhcPrM2m2p5Zvbe4N5gz1EbZiAC2E71CcEtYCcLMDAGkDuIEI10iTv924AepQoIwvSoDLooFDlVP7e4H5VXCItyPModCPgdtj5m756/RyxfWeV85BHMxooW/LUAkfxRjHLeJsniA53mkT3HDxx4Uo8EBSUDTkL3rkrWDtQHvoQAAVRrcqeG123g7zaS9CDZSaYiFbNbC+a4/4zx3gL2wOHARCya+PUGxpWtGmSXnfSC5MWv+yExhulK5WAOPkaxDyng235iYCDSiugDeMr5wimGzJeD6gWK2s9AQOCXTcsxr+WKQMsr3uB0GEx8wmKMeF+HiDfKPia2pzX/AbFQWnwynhS1CADj/R+UumzhSUBuaqVT0sjbf+DZaPe3D8NE39HPB71MezE7ciFkojrTHANQU+99iDNM6jYNIxVBMvxO40pcvQCMAJoPURhCE55TJSnhdCY9qFDEo54wE1ERTtJjq1dH/LgB+fgYEAJSlOJ8YEI2XGFFl9avBGpEGjr6Br1qIU/oLzuVts4CCZEx0oTIYCmQwQMjWGbXn3GTM3/AoV2JlmOV0/wXIvM8JeEYpLpr8Z/j7f5K8gCysEiiL43nkIrvt5q3X0vuDzl5nL3oQbb6zY5E1iQpU7+VwsFH7CtscSToM86ZKCEwpmC46gsCj8ewtKz48AFJxMQb32CeMhTAIhSkanEXuuTBKAtaV0B3O/zOcqDFwvwWMibwql+uTg+jE9N7I8qeYXiABGmSqUBbwVsJrNZCzWzgkam4nSWjBLyqyJ3dpobN7/oA8ppVblaO9rQo1fSdcACSJCrYhM2J+G+ha7VYBSoIY/se1Cr6oCeH4ISMmJNIzujJ6Ka2CPp1e5blCK8AnnX4pQgAzZ4fwcdz+keuV3zZa0ti+Oc2g2zxq863ji/QHbSy7B+RVGwb22P427HKe0ntSXTqhiGNLXMerAJtbCmXhWHi8GVjUI5rUYCqhh6It5EI25RiAkcHHSO5pE28cOUKuQd5lqqlQjhEnMCwmI6B0/tqL6suBc1WFUJ1BkekyLuWr5POrueqvNWE5etwPAf7x5hweREkAUnkdKCAa6YmR32wPIp9OOXpDFmPkeBdaQtbrpmX//4Q1xN9+MKyAD0q74GxzCTFx3PuPn6wIH8q3377lFo8DdCnCwVQJv7za8DLPCiAtmuI+fkYETJmMAZbvxrJnHQ0UPI9zg7Jaq7VoJBtpX5itwz8eOc915V7OPsOkVI3tzhSX1UOKL8Kunbr4TclX/fML44FmQZmTTiIaNh5xu3oGsT46seOQaauAALsIoUFWJG6SF+S5SwsYj62FzV0ohOyEwXW2UlSxThfE/zvuzHOTMacvBLewbYiJVEnpjbr3jkbrgQJsAHs0+visZnyt64qoeYLL2yXB2pLRKvOCoGGDMjEbcq5B3x0bbLmZvPYKUsEbdpDt2miz0Jp+73lX8xyqIjNfk+L0rfG0Nw3uG+nlCY52G0lX6EyXy8asSBtDhhyWtd6EZfqapszMWD+idT50xZqlLbh269V8hU3Zkyzmwub8Dx4cMFHOwOmXbLxhsaevXWkF9zZ8H/3yNKnFwRclLKIuguesbQ0hJNEtuw8eoN3LFO+5p5da8syMN8EDNTp+ca7xtNPZv4hiRj2/goGpiDWEJ7ehNr4f7qdNdpqRsC0ezFaJcG2YEZiMCzb7GLRwvpNunucY7UBQn/ocbOzs+lLulihx0yyrsL7Of0uIqLdstYjThYNZcBfSgyJQz3dSbALoeV4X9CRTayplZXuaMj/ZPeb50zElEMKUm2RuyVRxoOtkVyz3DZN5MBeJP7bGMTMXWUWegfB9RbcCHdKPNpsH71P67Uf5NsFeRHnLObZZAJXm+do4NUwygH9X8gFkA5HxxWNP1f4d9t8v1NFnFuHPWqJvS4QXqJnB/t7O8TP3mo0Y5ly+Gvarxjiqm7xXvGmQL07MO3eBKJ858D+DwJ2Sl9poW3EhrlHZwMW/rZUMowptueadKNdAsBpN1lQwb12bPs8VLFYAAR4IhGBiz88UoehfzE0n0ON09XnC54R4PrbyistV5GfEKhMe3jdTI5a1Si0NZGBmLvWw7ZUIIayKBUD1yLPUO2sWcMd91cMpGdzN6cBbVIORu3faKsKAGzvPvKgym1SUCNA9kE+vFcW8Xw0UD04NjJpOihsuLXr3+kAnybAo41/yJ+/2Uq9W2WfFEjt7DVrLslOakUixzMAXStg1LEMXhpZ3WemP0jILykgpQMyab9ZIqkD7xxHAe7DfOPWfRf2gwoje5FX5Suog4NEE+mcgBxE+ttCcbbQJn56ace/Yg+dI/CTmWyBAyLURnz9Yr4DBfCpV2vGXltt2zwnKZ0qaRbFkiBaInV3Pnx/8PbcAXUWKDcVO51gIh0beQhjXEEjqt8NjLN30TCBVD2eS5TlPVqqSPHfFalXgfFDcca0X2AxW4e4601UCYz86aiq1xBPJOvVKer6fcFPrhyrQo04tquQgcM/zgIpdBulqq8RAXg/+i/BCv56hqnvH4vkLo7Tiu8tJNCpEbmFuRQSS8Bu9h8fmJuQHp0z41UNvmprftMTTLjp4OsfW3W+5pCj6/ZQDJUjJwkZ2QaT3FeGuv13tqSqo534Q2PbsPn4pSGVbi/NOyigFm75GJ8DnWl/TZ07kY6kUAB0v+nxpUFGOTSmp43UaGa3sihDJ/F5nuJv/796yUkht+LHH0ZVZgtrawx5qwnTBrmVmC9Ds/x2HyFdpeIJZp8ly/0iHnVP6913oWhFcmhKmJH+bis2AqBNoPzLrwAANdS6CCSkKQp3dG2rc104rEz1268allUOULC9YX8U4mCJgeBpptlY6+rS5eZkicpF1uo0qP5W4AzdrsjDGuUCEiwMggPDKB/IPPY3DzoTXcQTxS+PnbFyKtFTl+jlmKdVOOUtWG0j9CHE2y81LXjPyKQlIso0IqJLeuJx+QFwd7d8S3KYMjGGCRX5Yf2+1YmTWcArS8nSR08ecY6EH766s/wuN/YqijvqaUQtiz6osJEi5hQJI1Yt/60SDKBgkNl71k26+5xa9gFQeKCh9SCekGZTG9qbBrGg32oI1m3IQxnvEmWPdRqitH1SbbcO5wCh+30fO5r47yagFZhyH9hZCQXEzK9NWNCIsyRBwMWVwFRHcIyQmb+nPUt8yf/Eyg1d737CbS1JD73HEzC3L73jEvJUNPGEPJgbg1Tl64gRlSn+hCcEV7ufkPI6AvD51QboewTsDhuTW/O/RaUhhnhBfQjdPWPT/fRxlgE2eff1oaC6vNXs0ceF2CQGou+tgfWnu78DM6PoE962psVvV2mzksZ6ilzW5f8u9YKJw06HKfRYvV67O1N/dgIas3PvW7tfdXbxPwFjhlDJGNXubWO+MmGgAACb8dDxRdv6cGH9NslakEdNTqMz9vKfSwlvB4x0UGC1W1pthDMftSkQTd7JxjPpzMG2pOCjcvfAa+s6mYmsJ3A1d0OcV03wpmc1MYkhKzHuliyhLUsm1NsXyHTBIjtOhqOeAX1zL3nrbgSnE5su8q33CaA1ZJxOQ37ezE/VbFlIrDgUh3JAT15zBUGGgZpCYB1RPVYVsWrXnIpfSk+2sgxHomlWXAAtwM+CNss+091RLB03rG7Icmf3a9pNVSVFFAS73RgdcLfGXaOqMMOYG8YTyvjPKfnoLk69JaaapoU3PvWVJp1Ze4tBPyo3rr+k0OPtKdLfyeOgzej8XVae1t3hN632pw+sYGnCDhu1J6x4K/Ovb1D2tiT6qzfc7FDUy6QpGs+fSmRlxE9wYMzDARGNnl6sdJVKBZYUN5mZVmblUke8fBaVnn0UpyOgeq/D0ycrWLRmpo9U5e6rxwLyIsi3OCynQ1eLC0yZ1NTRJOECJfNP5NKJi6NqmR60QnTji8JP2GEpKkLpbLPW3h8WixtX9RblXw+Ufi69pVsWzb3/vZ/MuV6HpnNnd2qTAMvA/VJp+9vOqWPjYWFO4GqN0mUBm4dzpmquBbWuJxMjrjr71fp0CsV1c5CQB5pSnWcnvwzv2o0zZPLAM/+FQK0ddgwHn2hNunQCZM7pesqMatEh1rWPxGC75AAEZVgj3jxsRnI2HSYX+m/IL6fKTO8lgV5UmubG4P7WmhqLaR1MDbU7YiJ/xeLZ5rrWSuKzab1tuerabAlJ6CZEuvjyaMrMIY+qTYZiYtvGAIbK4QmQF5XSZ1x8rNKT7W06tL5MD1fnqRrp4CYDEhZTVvirPFYfuDLY19W71AGc8ngvwUkr+ukVhSECy8ZEchwXPlJLqR/TTgoJon9OoQFu4jXiDxr3o1qfo6dib4puZbaTK0WZFcd5bEwRlF6e7gtZg+KzzIpoqMoL2a8j3r+b+qh32OoJxPDKjCj54aKpL32Mi+UhLJu9RTSNeNipsGg+rJFtEItZGSbhpcW9Ed2lDMeKoD2rs85BOgrTOCKIhfeXDouFmMUkShUaKypE+VWRK1myyWqJh4zO04jgJ0bEqMUQDjNj1c3FZk/jFJI53PivNdZpLc+h9okPgV+n9mhQuKQ6OOQlswX9lR9xDgoGtkgv3jfq9Cj9bP5Ti7v6VFTs7fr7SJbPqOTO643HtZvMgdVZqriEX54lFpTwkhBPv+HcrIni4CX6I7wCpL8hhgXZUDBCy9VtrEdER+K/JjNxUNibJxxbMxklGGuA8pxrFs/x8XA/SuvcwZEjPBadKiOxdxl7bPXqGBUvJvru2lpkyBvaP38lgiDbN0f+yDoTVLS+FHaIoJMcIRGeXUbI03TononPybO5ayZqGqX/YuS2wkr8RYF5eHR6a1w/4a/pIir8ApIzfea4igbmSIDVb5OOySzkjXyrrgkdyTEQALZ+dELNBRySgGM1h+LOBrwzfXgoa+AAAkiXeVLe/Skg+9d/9K9WCEDGAuf7jNu2MKQ7uj7/wzUuOMkCDd/r0QI89ho6PSWrIeVI1hRvvXVnW8ayR4VE06Vw4hkhWH0k67yLQv6vI3KCiAJjsnvMJueCYmQEsj9Z9k9vD3CNFH/9AxXQVfEpCB5lmLHxsM502SBROq+LUL2bNxqDHSlS9UStVjjRXUD9/gBjqnKDG+OjR/InYhftghwdBeUsEufBxH6SxWbN1vVi0tifwinlrMp3+2eeT4vhKe4IMTfgOPyLZVH8dVl8By2hN3uwcjADvbl6dndCzBehxIHgC2tfo6SIMBVIFt+t1FrOx/8hWlNI3vW55elpmSnc29VADnE7O+oJSk2ZMnO0wOcwdql2g5an847mT6vVlqpsocrctj34yw0KnkxXWI1q1KtcdgMbpssHNuJGiVx9vT8Alv/zGy7resOZYno2/J5CHKFrhUgoDv/KSWxviX3F8/8AGQG+g7FaOg8QSpisRFhq+Yb4P8m9A/cBRcr9I/Rs3rPq5DXIqehcyc48i/VxT8KXDAvrvTGLruJj7NCeve/1cNlOkCLTvvSTDjMftKCUtRexa52tRTdZFnIUPtG8iGhoLJWIbOzHZM+KI60TglhQ7L6cXS9cwIZ2PNZQnS30HiEVMYfMTVCaEn62yTD+bxLWfJSuUzNTr/olHkjjUpu7en9jeQXHwd9DjgR92HJYb7Dtb4kHH+fhxHhrbXboOzSh+NzzVgB1UTqM7OC9RMl46ywUUxvEaJE3IAWkBUtxEf2T2a4nTlpgfRGJ2PvUNmY5+rB/IsqvbrAAANf8SF5KCO/fo0Xpg2szyIe0gamxS8rV9rFFEGJqBxOYpC+oaYllYS58k+a7sQeUetkzuaXomtwgAqZvZsK/M6fddUPb2veRHwnTHwB9lloU1OR2vDONfmNtujd4k6NKA2NVarrnAWr6xeh161kuQVd4hC+mszdSpjGOBK9EBxVOzS6MrroePLAuVCLbNrg912JQ3nvfl7FFyQ9QtMW/KFw9yFNt1KgAkQSTUduDd4j1XdP46A3dKQPKu4VeosSok4/vuR1GIIMUfKibonjQb76KYMVdP0YEo2oFa/UajUcmTa8wnTNAvQ/dicJYSEqABEoo683s6Q6oC38UKJ/5LXaXrhAUcSEaPgX5b18WSn1Iwo5x6iUnrQ9kxDPsEMR7EKuQBwp54013ccJZazmbEMOz4GMpG8r+12sFCW528P2PvjbLbU5rmwzXtl2lx13hk14eCRYi2cpn2e2HBz8hw6PxpSA8yLu9XEdSQMZ3Fj9Z4k7dLd/s6iCNBJow0pzDqGCAj6mameWY2/69pOjXK1nFVLFTtF/neeidAf/uD/1mgNi9mMdRVkSuT8/38gOW/3XEvVPosdddDJdIuc3MNuGQvhaTRaRzwANM4RElwfkQZdcNQ12RNCZb5GWlgyhjFARfZk9yEx5EUIRxPuzPZ9KDfTHxEzdb5sEeZZcY+7UztZvXMGJxiNgw9QOuz4Izmyyjmumwmi/dGDxUkM3BPFzL6uhoLDeSCkarmA8F8YGQOpk0lUFjSr6PmtvakiSO4eHDoVZYE/gIdbGBIa4ImtdAImQBDDObcfGmP44kuONhT3bE1PyauXLAVkZYMAAAJlOl0wop0eQdigT6c1Y5zFgDAlLZTHg4Ckwfv+DjJunuZqgtgJ8DSF9lYj0ncPITXAYa+Wl5sX9w+6Jhuwv80ehZyOMgw0YpLIW+3gYjukDUxvWsUFTTBTrZFT6JXgStKM/y3wszoS/B4sojwHGvbZH1aYio0QjDZSv/Tt7ZAjWdDBpMo/qdB7XqcPoBuYu6POPAAd4WkLI/wn/sM1Vqty53tWWGLJxNDMMqgYIJ9vpyWaUaU3Z8k0y1VlTxTjX+RLszhg0YRkY8jxWd6iaFR98TzAlzaQHuRqR5jzMOFIYaGJgbi1eVuV0qvbBmzVA3zxrUjmQ4cY8PkBnH1UZk+zAz2nPcNC5qNbybh2XUTEScbIW97o4LX4BZqiqUvHP/LJJucMkpFq51WRDTKGHudHb6+toRNYZ62UqkoEDdv4lqlbGk6PUVoJKyT0yxEBP0BpwkCslGOvB+U4AX3qUu4zZTkzWrzFtiNOZJby0V/kV4Fmk1iFwtHA8Ka2KYhoGruUYbiUIw9gTx/M4JrqwyEhhWpbHSMfyyhXNWWSScFztX9lNDfqzwl0PcyW76NmS/DDs/WxtYyfd9u7ry74DhISmWI5rDI7hajS+fZMZh6etYKxdbX9G4iCd4pQcQr+rG0YHTN+iEqQYbgDLo4nUEOzW5v5OIKpfWp+z7CUF70577pN5mljYi+MPpNJW8ixnQScCpDAwEuCTRLH1fs8Y3M+B29zegj4WWfVAAAFz+QKl9L3g53226i+Et8tsgCkCz+RDaGeqM/cVPhGtduTsCwDAB57u26fARbGM/lJFX7hCtkuhUYBtgNAK5aEe+WlKjNixpj5N9JQSNDLid40mGlDOBGO9weqlqHd3B7KlkA648zmIexYBn3OSo/00Stc2+3CgWKS9q0cMpoEctkIUGo5xf+0XzwNwtVxM6Ijqz3TPXfhLIAju4ZiJ6ZkrYkVUQrc6WpUcYoWbssbOBRK1OgdFZMirF5l77f9brftOSH0n6hyuNXSQXEGtopflHZ7ut10NiT2y1mLz/npSaXXSaJSRXYIWYAXNWWUoZLvjTqWCJKj84x0BkdtptDEgyv8VmUUplDLE3OUpt3gkEMghmjAgHVrAyJq8t6pX+Fm/oeAiAjBlNMIlSr8EuHSInAlS68JILNPkrJEvhsyW0DI82PLjozcq+vAJ2OlFnY3C01l3ezRujwquNDXVTsDx5PLcfTY5BHKFuBLl0oDJjjoQGLcPQqOHuaMgPtkUKPVVkUlvwJWrTbN9kgPtpCe9RjIYpQnQdTyNUiFPkTeqfFSD8KFRHaG04Wu8PyQPWCmybtLSFnxfhpNemyF2O98a8+wceZ/Zl9dnJ11nGMOd5cq3KCeCYWeUkaf1L7khddQSft0VTv8kIicx7IeWGUK0pomET6BYYHd4wf6ptNA3rRfWyVfYwd2SLSfOOWBICelMeSPZaCRUw6CYktmv8dBd0DJk5gmjS6fMxbHhPpNOlaR0Pt058gAAjh6VOmgdiwz6UPJrQU90fuCQqA+TwxaOHGJRLvtRWCrOCgT1NVzCnz2uIKgLh4Ri6OPIVxSZMxrCvy2/ftiG7Hvjh2xH1GzzPpK2oXz+hnQ4J0jLxh85oxNpXx4NL0q830eL9KKMb4ySxlyodwRURKV3vgnGNcqohTvhQd5WDs/t1Gy9pNlnNnH+nXIHaEdNlVlUBdjtTJEQ7R1jwd+wzS2rAQ0j25JLkvn5H32MXZx2eaSpC5mvcz8LOeGfQ1ijag8sXzWVoLJMXqx/JRnI3UGdC4tc6aKBdtvuGBp1F+WmPBjC4ELrWk7vXqK2yJ/ilevYLkASn4jzPsQJVEDVKycFI2setd7dOhvuwTGjBgJyvfWCK0WUGFSPTu7NPHE0HRGcJiseo3h5SXoHYkocxZ7ls8KTVyUhkbEpD6z/w/VZUtJn4h7CsjHIWDQjCEYlfFf9x9IFEXYjckVC5VScbk71kinaBy7Plc9qLsdF/zqC6tI4t8UgPpkxgwcrU/mM7HIUiYEdrRt8u8S9Jfu1SzdaxKxv6SgUgpwYga+kYPwV8LsYU5PueG4108IW71Tfr4r1o+Je2jozg+3lUfUffn1LdZcw2R6sFv2EGb4HOoxiSA2J/t/OhbuBppcW74r9Mnyvsb/f5C3MWQC2Z0zyX666Ex1w6YDvOHe60C3yvr1jnNc6LLNPSpHNUX/6UARbFS1QrDwonZZaar/eKYQwLxs/VQV+dsyZdXZbarQWcZTUyBwbVZCM8ITQ3AjaVpskurRQxbLJH+kS8TVU/rcpknDhwKzu6Ps+OYQmQyKLkU8ekhhsL0dbW5KyuE4hzJ15eHgSMBZblvICBLTrFw5iT02j/ZIAACkyI25q2Nhv7FzU8LD3SaVPpG/cLJpHZS/2fIvozZE0sk1lEngZjIe5w7UAokJUkwF+01FIhjoMPDU0JkMl4WGCcG7bKskYVouCKTPZhfzf6PL0kQbS2r7SX4o/MRRDbxjRUjcSK2XS24B6Tb2z7Az00IiqQQw1BNIfmTHDr4kjWyfhQmdsLjqvOJcqCCRrYa7ATqX1DDiJcAJhcV3b9kERF3OAiEjvMPgCbGVcD2V6ofNnYVvMRVyqXIHEyk4093Mt3kYm8wTh2izzpT+KQluFRWT/7hIRERvNI06ltrH3esnHgCt5V0sfm1KDjMNxGtBfw+xhnDb1v2bXsoxTDpn6wEJMvcKZdWEYDrdrCvsxF3eWJSxCS1nQP9Z2RCKaxzxJn8I/3UrDlmQca3LcZ+ckYoLsjVgKfAAxjWQVg0C4BIu8bTWoMDgjw+8jYpdQBHCRbJWTlbW+riRseWQVHHy9yuC7gIC3N11BpEOvm54sZ08Xkxx/8k0pRZ/I7yCqzXSd8Y/Xgv5uAfWWtBJpxmuY0o0QyeRXvvfkyIIMbqgsyZexaDW18vdmgRWdKOZBhN27JYJvIsGXqNAtEs0sbkmOJ0bCVImy9U+NQQWIrSFI5jEKASECWC1Z/r9uyG7g3efWpRJvoKLHsfQAXvXbq+/CfuFd+ShTRx9Fv4N5pp9kkVa6urDfM3XZLH/rEEnKfWymnIwUtV9NurPSCVBHquhnLBm6bC8Xm+i4y/Vax0ydMlhZhNnikFX/hjfLihpAnfwq3+9EdbiYGlqAAAFHMPPg5Xxz4X4fQqmd9yAfTavxJ1H88ScsONRTSoRZzybE/bI/7kivMuhbxhxD0Ds2e5hkGTAWKYj+mSV+zVC62XFXIlQ9PIlOy3FGFKVtsOBkghNePzDj17YiNWOWgHxJseSfiVKuu3U6bDbw/8wmfc+92VtP/2OueGUfn8OaB0NOcwWxhvQ/WGe/OriNNCBSLEYHFjHsmXhInT85ardHqBix4Z9IfQKJ/ZjFO8AA7l6AiibpFrQT3iqN8l86Vh6tcC10oAJ6dN3/9UkHTt7R+iks7ThIMKY/eSmAf17vuEYuudeIhXs3BQd1MiHyTzwLIJMHVwy5uJNF7OORcaxW0DVc1RBp8yaHw46L0Pcd9rQhCTyTRXlxIBu5IsKnk6NmjJxaNd73beu57VhseRkNbeZSMcDzqgsSjX6ULNz8+5us52JQdbhE1xZWiMFRCYbiq6qS1gMLidpKSXompIbe2QwviwMZtjmuaKu6Xnqk3xFyyypvux1ZBUJB4sakE70pnkiOrLBMIoAdQiHliW8TFxqxWwyJssNbXdV1xK5pNxC9YAsk92NmxX0PIjJ7hEMsKzK9im7QD8E9CjtWOYmYhWl+61BILJIBr3Y+F436Lp8BBjsSOGwYzlo4/MksW/IJmyerTUxkxcu+l8CTCOUkgdhaR36NVbSUNp/MLfYWEk4ZPW+/f3nsAmfpVGq4j8AFs/Tr+TSfwArVf07lxOxT8aQig23lLosvJNSBTyXWAkkRyl56bqB3AD9ODlg1+ndEhcVR3ot7CxRRxQad6MPbqYBQAAOYkzHct+Yb9ZFbaTDbPLRQnK4JooTPhRm92nJvpdl3YKk9tVaByGZ1tccidx/tT+371G95LP+YaB6vksdgY7uA0b/PrXCyZvHbXkxqNDIARHhN/a5ukg/R7TZgm/ai5AX6OU423xUDsQeRH/foP9w6C0hmzmhxiBmo7swS/SycvMDsiOOSPiLLPhS5PHrs4VJaN/OsCYZMmbqwoj4NkFIERwNXy1PtCJZF3n5mGE1KCP/VBUpPeqAeYcYmnh/DD+KTLt7Jo6ckGszUHE47MDSoAuKM19raaTSknrm/JwUU95cQ7nedK82iIVf8Fda317HvhgA4RnCq4rn/TEATM4n1M27kX/tGHITaLEDdrLHUkY9MibrAxAZ6J53495OICAxNBQ+bZYX6exn8CX7LfYFi7qr2eofXkOVG0Deof16lz7v78MJLUanOXJEIJvszwatCPq2C6wycP8iGG4a6BQ8N7bSXLsstv+eDhhEQZv+MsGoc47izHtJK6z8Uws4J9lYz5XdCg7qMuXjnCz/IGtjCQ6MoDIlKyYxzIyjTyYufhgXKwbRsJxYJ1cLurOePjgbGUX9eECjQ468NjMb3e3AhbIWxe6yeqtkz0Yo7pM9E9HxcNGD81rhKvUk+j9GKRBjWFVoNhnFeAdJVN54zBNrD8p7vqIP2q0JxNsuztus8RkjZ3/qUEszQ2EJfmspDSX4Y9PqWrf+oDeHA5MkVraRtdFZyRMmyNyGC/o/lw3Spd+yFmnsczl5+HKs3Vm0Fg2R0k9dComzmrDXDufn84EMMFlD6EQQ/DJmU0GAAAGgK9TjAbqUvxEZxRi4OGrL56E0yh6hOJ3LEOjS2oRq2c3Cr7ChuKE5LSmpF71wTbzK6M3M/RNWpPYEVho+vVLBAWADh51/Ov57HnYEvWqiTLbUhSVAVwV0IXlJPzvxX3h1j4LElNdLnpWjzCdLmzTrIndNk0ahx+709CFaRet/RxZbyndC2YFIMRC3fKXvtCjLkNYxXl/gbF0BwNAQazaE1zOzTgXTCjCmskkg8TBqOS9I64+VXjC/J82ght/tVbHZ/G0iqO4xE7QISxy6DV2M+0X3JpNEmFCQQN1QbzLAcK9e3uSR+TR+eFnfQXbQ2wBvc0UaHdxAaUhrArKiG2HgzImebeBqkFx9j4N5CY0admNHH9QfBhSS1+0K7W5Djf2DBrxw4Wv3WaRz5fHpAqUWV8IegxuByZUjXm43G5xDtWi6lhkus9j/gJTJLzonrLXj1pzopJqcvz4zWGLA4ZBMJgNCQExy+u9EJFsQ6wh0U3uRbH5lrD70xNgueIjYOykkhPBHCyhYhQXwNzrNkiL13hV/6lmiTehM0pWcMckzl7GTQXXrJ+HjGsNPfKEE+0jCCZ8Ye/YlU4pkT3GrBJybrK/XQZ8uGcxWyDOp/l+NsY8LZ8UJW10lKfI6zP4YTO+rcuJalRbEzRA8S28dyoAOMHysUVj3QAE9YaTAyZ1ScBX5rJuEO/6lOi+aCv4FaUmMXzYpSNoqV6bVPJe8ELv2rfUB9V8wjbz87mUK1sBS+glN3pp6ppo5RAolcz5qJ2F2BQc6BaLvj77gjsiMvhTeplTWJZfSfcLq5KWL32lJ2YhZMxxCzfws/6QdB5Q15i47QrKbzgU61UsNAXkykdRo0Xl2GXLdQ7phx4tCMNvGl7LrLLtYkvRgMM7KSqMe8eFi4i7Ngy/2Ki9ku8TGkMyTmiUr8k1qMI3O2Ubn9x7pApAAWCcIkZnPEIb1SuxXjZOcp/SB7FcbdN4ZJkDLcOZ2VeuM2epMiZF+8kcAABNGARyFFVzyoxWY2SxJysmmHJpipBiuDILUCh4Axn/ZVA3JVasRvh7qEiTNKjmVPV8njceCf8fReG4PxvEInrsPWEtfsPgSlNoZ9sciHed+j5PN52fekYO4YAE+ifLk0Z+sE7RMOrqGP1nh7K1FgcuhYvuXoph8n71EgNv/d19grrXgJZwU23opIEv4gvDzXNezHy0KATHraI3Urq0UdEYeViogMtwXWSvFlgEawywt3XMf/0JPFlfEvScOk1/dqq850BJdFejL6tt/rI9hdmH65dAhYOcCPYRm2MJCPmWGuITkLII8jihv3GFAZMlayVkuF3q6rK6S/Y2bsom5ciwLkd9yz34leH06JqCwWV5RhrlU7mZDmX5QQeHm60V1EB5T3dHKArbBW9QX/VIVzkdMxqBfGztB52boSXgPY2DOr8/0hFKWnuVSEUugrFadrXrOfFSXSICP4cJdH3mYSAoRgiOrwPx/03/0An6Dlx8L3jxbnpim4miBYEpMCiEql4ksiqNeRsuHRONIpb2jl+Fp7S9Igdjs+E67JQcjVQv0XCNwkL9baJfcKg1uC71g6TfFOmJwQRt0Q3wu8pmuSo6VuACRZOh20gJOkYCQ5SpR8gLDzKrrCQ+4IhM+uEk4BYBhc8oxRROFbbiCR7LpqcqmmFjIhzaCbiz3FonxtDX3ixB/uONKi12LJmRzUhUluhn2zDEm0BxtOFVVJJZhHXuX6/tRJkEzams3bETtsjANp3vc7+t8eCboEXPmn9brRNgd1DOqQjpckoK2vuQm+8+pq3nMqQ8r1jFAa6oENcxInHbJKWTvbzLGTUyLOz2MHLYx1hphr3n1o/Ei8g9w4wq8rc+oWYqn5dnrCXzeTHE6PXD8GEwKN/uTPyCLkPbW6Dbm2pdkGbnzF+mDDoxQWEuzPFMZk+GSNVI2pZWhuvg0L7gZSk2FNDdWflLGXz5GcY5SwARkZuXnHV1iZfJk/6gAhZE9svNXI1EX1C0ewC56GkAAMdkCGm1Ia00TmtYednY7KYSHLH15q9KG4UXNDuN7KUA38GKKrKfKj/HlbuNuCs2xhjFD+vU6zkrFptrrbrzvKUSwHf5kK8PFp/486pJAOPcD6ZMywM4U5gA/a6wkSR0f3uoOYaBwKxewx4sk09tr+h+g+z12yVoR7ir6qIX/ACLeBbU+sYH1wW7/5v44Jp5Buf/FFs5CzWb5DSZIt/1REqaTrmjFpXnuljKpxdBoUHDUi81nqO5rQjZ/UjP1cqYf+lnPlU6TUH08Wqo1+uG+FUOijGpXFYbgmcWuYqwDoDWAjz0ZR/a4PJxx4LacskPWKaJOjb/rmT98LVUAADF3FJghPmmUlPShL/oGeax47jB47F7jOLN8blwYomeqE5vLurGDj3isQ3w8Q81S7aztfuIPyHaLmtF8YYkmHMMkjvy2C7mAEaVIj0CsX5y1d2qJ1iFX4B1dQB00COAw9Z+8jm8cn+sYGsYsSPzbQpieIGqRCysQKXgl+dQn4xSviV0cUkfuMXYYUgHkQSdh5YRK20JdbkD7zBZscp1Xob9kQ54JAUMnSFmDlax7tYjg0L2Hwq1rc5V8k3oubGklV9zHdLrAuXZrBTvoiWwwKZShNrvEmB+rcyGZureyM+qx0eLBuHi/ZgH2r6TaCw0PJnORN5gl/wphT3mLRDm1VRyn9K0+jQlBbMJYOdjxqXQf/kw+0UvBteun6Dov7ad2jaaxPFbo4pgiug4InLpONI+mUd/kTUr1ZiQOwrk66j1DCjf34xPBpokp2/tXpXNbAeCeph9e2Tf5Q9Nc1HoJnq6b7WDElqpm7gjmti8CIyi+tB1Yedeqm4y03cv3vs+hUcL/sNko/RBm0869iC3qTmfZndfgKiSYP9q7R3rt5hLbraGn3Gzp2W7bRtqmjixG0GdVM0ed3idNNXt1cJgnxAUY+XTvDq5JfQJuMAoNb84r3HThM6kD+iItIfJ9oylfXY925H9XxOqLMVhX/pQUDQK687hYGJPtwD8QGCquFJNyNznsc2Il/xag1BtaQc7dwcTj4GUzJJAuOp7qCoZKOnpAvILtl40So+Kem1AmxJxxuly4dHzRExUZa7xl9RVEtng4gbRB637/oOYAAFuwc8BsfAbhFBbyvoje6Q1GxFSkp64n+KL4m9YAqYPD2edln3Hfs4mcmTFRgRz10oKkSfgD2hKKc6I0sM4RabhQcOR0K5VyuDX+MIP3uIAYwKz4WPzs7dIUylHNDLLVOAfv+kk85Ktg2Mlmb3j7Rw/qgdcqIF9OthTGqHUaKtWEnHBV/aeVuXtcsEvlpdOVZQu8f+2zAraU9mlBFnFTumAqk2B6lK86TsWFuI6Ts57Os93QxaGEzxwCq6r2IfTGwnml3gA9GotgKG2CBHMeQ1m6v+2vphd9wILXC0F0dH+yjoon/nan7rUmdKDbz6k/kOZad2Pb8XQhTK2LTOvb2TzD1MrMaI8ezHLy1n0ypzYNP01ns6NR2Gp19kYRE1BbFLc9pRlWGeBvAAp0ISjSgySfuI7W+HXqCPvI9NEAp1JQDk+SBRB8MRLyWy5XK/sHXbkJ+Cw4XvIALn4gGHLtFEf96GQG32AsMVtoEkhVKQel60N4uyZz+r+vOG/sPE26xK7sLrBNRe2gTqtI7hSdVofOu78kE+5PBETTaBXREo/OEL3niN3h1jXrv7/Q3Ism8UJo5S1timom0VwuI9G+97pk6EYRkPL7rieQu1k4bLnk5Nbw02JGoaKnAnddHPdEjwN4w4MBDbuQWsOvBldwwPO52Q6KnDw1TVX2OWRxhRuCw+X0TqzO3eWMh6Gmw25MAceu2zXJOG2fKAcW+nRb5wECbeXkWgD10nzZjGE1CX5i5KN3nelZgB9yPcy8HNHypcwsoUCbPY2+GEaKgUJfLrq3ysJPMzRrhPDHlCy1biSeDMjcy4FiuhFk3ZjlJClDKQEvF94BPekXa4BAH4rOqbNbnTpVv81UyA/DojkMVa0JOlv3IBP/93XLWQoYXNCPh1SqPym8e3PXzVm0H7bTG+bE9yjbG3YIeqnhLsNrU15N6WoASF348Rodr1xzdJsejFeog87C7RKEhwxhOgZT3kCC2Vo+TJcWCUEf6l4Jhbc6+Ihbje99a3SOtXpcuhNR8xJodrVf1Nw4bK0rH6ob0fJm9vcOkLQaZ0DXg+Lwoy4GeDYqw6GCuZb7yqNzW1/U1660MmEL0VQN40N/DHbUjuP6Ln6J0mzPzv6GyhiI1OhbbA2b3GTZIfCrRUOpeBFCEIym4YZq1fmYdhnLXuNR05+hz95/uCEY7h5ECWX+EXUrRJ4nJl1cC/95olh+K+P2xff2lXzdW9cWNpzCLwY8Jm4wSltkLTDCwDTNa44W7KU4zKxdrqpohwaBIX2jPeHH5fLaMxCDWoLOgrsAL3SdEvzeG4LUEj5ieZeoew01Tasn29NSuDJP5guKv3VdHEBK+lLPJR06bMxRQ+xjoomF9Eh33c7geeClTbKeKcovWlcuRRlK3lqli7L92tz0YfToagc6KyECro44la7Jba7KmNJIzEDqVvguFs0GkMXoDmEg0JduWjSX8z4JTCK/gsEiFyqZSbxC9XC0qjzBrp4jWc2+cLd+VHg8AKxR0vyQczLpTs6W96KKBYkAAAn68WQEAhiv70PlDllfVZMLqloaRtnOKwnlrTg7IsFlEagdtN9aeTRyLFtjwrITTwz2PlLN+s+xGnGfSdAfMfTMXdxoz/DDPsTU2LTYORC2vjBXtn9SZsna7/WaGqKJlx04TeVSFCr/dyTNM8mqAwnmSGhp+geiS6pt0mSbIwI2x89Moqvxo5WQFF2wCRLxcviT3CUeZyjXkSIL+x7EJ12U+CnBBeNJ3+bNfwzoxfwNh1NbHPCFLldViXem3CmZTmQPK7/aZE3OTrVLFkaRfej3iONPSxKnGpSclSgBRBLBvlnBG1nWAzpzc7TZ5s0qZBTMx4HlMVz9indYgYolF/IoHdwOCyOwODH2K+JR/Pm6eMmuPSWllX9v0fAsRpET9b2SVraI+p3N4469Tb3C8VxxbA8oX9a8J154tnSNLto6zK2sB4g4ULH+MqJ4y6JsGOgA3v8LWOOxh/FEvRfjMTbm6fPk761u0yVQYokbbQKrsPUUGV6zmbF+tn3we4W6H9aPQqeIk//yvsyFMfhwJP2d6FC46C6RdutDi4z2Pr6TbkoHvBEr8XEmhCM822NeefvkJzbuPprs6sOYRKi9BUx+Z819fOejsLSXJBUURxUMfPMURxMopoVG16vjuzxvDOdpA1Nw29mmTn7JN5d7QoozXZa3OC81cOp6Vw3IZ1NZv18fTVBxidNMSRvtgb3wneWmAOrKyShpjlczT67HH6p33XFS3RDQU8MR1Zhgilq5jgnxeUdA/K/KFabJKeNQi+3S3olK2ytLBHUKF7lSrgrxNnEh3o+orn/lqWhVb23/3OjtLn3wdR3OQ8FiOzZK5IL0/hciQKtj01te70Rw3LRTSf9YTrEjKUKgrCK1yn+U3BiyNW5fbzJ+6Vl+4EaWiUbhSKVUa3t5yJbxgRD6CwwUJKssvqx/GFOGAvsYI0iGsusA85VHgAJpuFL3NS9baw2ceMUfHR/9kPXT7OuME6QQNtDOigYGTtB5GGpDNJBGjcNvZGmOxoYjG4hYgmqNPbx5fGFXIebvZ13/8Y3Le1dKuAJubx8kQ8T1m3+44Bl5Y3LtGuviPH/7ucP9sk22xAJhCxow6TFklnmZmXyDjvUSFwJ4INGZkpLhXr4wokKkfzJwLQWAze7v8s/SUkJAPnyZymPSHZoM10xj0uwJrUZr+ycZxdK9gRktpzl6oKci97U1jz3Tdxadu2sivMSmYwUvOFi7GNfqYL5pWajIPLzYi88F0xJS0jHLT2QRYSuwM4OJ69ZQ5keDMNh8PCmglyFTwPtAxDRk2C5AQtvegsoOUc8gT8vGdWpkrUYwh9S8gzJM/SwU6B0wE+ci7Dvk7LJ2nNC00pl7bzBt4zf3KasL4X8nJE+SE2zk5FtvmSOwnRDoUmHKZzGOOmVY7tbHk84VZR7ovzCnNJxPkvkyBAbRr1pAi0UmFkBDfpm3ZpjyP3ROnJFLrMEPc9vP/h2ldcn5/BpyaCXUB8EINfTbCRqLqhrdPkSFl0qYS5yjyl5cIf9ujQbVmMxb1a6/PscjnqCzd1ms2+JGEETPR/43HCckoK9N+8Yl+9QWrIl2/VbzYYCvTc8zc+QmN7EA7AAABV78PxlLMmtQ7MM7dgm+jZxG6P1/LgFHQVqxXM47wZtKjlAUJ2n2jMvy4wlCarhm++0CEhldHqJ7uYk04454nM6LTH2q7X2Zrvf5ayb8YbyHudJ+VNq++UQyFLUEvwWulTJeVg7G+pRps2aGCbjtHgJ9yImqsz5ltQ6Vf+U6+Hox0KWq1jRa4iSCZRa9pFv0UZngzA0aKDBI7s1vmw7TCIYfk4Q7Xf/Qat1ygThggacTm/uXOYoRJt5VMJ/6PTnxIZLoJJD5ajC/30HVKkab5D7YfsVWN85ALnLXOQRci/mNsNWJ9VDQ7Kfo9uWbpXl5oKEAyYGNmkJX7/MpGJKN4ublj6UsZV4sFHf4jQ+xvgiG8HjgL7Exj1jaf3T5fO/WHNDudFJj9z70bYiMTKQ4ZENNdjJ6UPhQPWVxpnLpHUnmG7pIDY8GqI/2koy5wqoHzg1yA6r3I9KkYh2XrAxIzyCyVcUxA4Ihqe5Yl9lve9eyT/5HBa/QqANw6L4N93H6BxOCysTaS/y/u2+oSO8IcHhdyjAPmOarU4awG+9sm+VsB+1RuW04gnmcUQ6kHBfmu9KNcnPO7QhUEHws8bZCPyN785wdApeG7tKjWp3fDNRa77LZi40IjpPXhvDySvvqJtSgwbVoz/jvwBHjZUf0cEVbVuA4bFIhv+lzFGGUrX8Ju49SQn0VIFxk5N184OUJd+KPDkUQPZ0Auzomo8jF5jOhFA6RW3JR1fYNHCUpXXQV0hP/pNQy98TeqZLVLoFStx5L495KxsUm09YnRkMu8U2S0xuCJ2DOxCr2N44txQR8HxUS8WY23aTfqfzy3L4GxmVvacjVJ1rOrWLcirfBb+B46u8pbrW3NSs3EQGcm241fQ9nVFNOKPjo5xnBSmjo0Ihl0LqcqSxBI+dKSGp3R8J0YSV5/Tdgc/0pIoFEO7HTQ5xDifqquXPXFA5hub6TQBRPbx8n+FS1pz6PQI3rjxIK9aicaGiKt9zGUXOezbU2lGzaKAuetudqqNKi8xPWYu4ZRwBIun8vQVUdTZIvirDeEVOcuT3Wo91O6wMdtlcVH/ZQWwD535BHC3wUkpEeMsqoLNgVmypY4eIwR5cuu7Pz4AQU6A7MZZJm6et4dOPr8/FGbyY4bmGKo/G9QnyaUZkIn4LchXsudm2ZukTu3nRZ1P/ELvSEy/ZQxazP2D+sQJBsTva/R3rdpS1QSlq3I7L8YVWM7c9B/2vHVu0DsJMO9xLoBmmIM/pPB7W46mpmhytcGujm6SRkgUNiAfvf0rArjaiSnBK+7DYVNAXZMutEkfG+RMSuzuyXQDmwbhHzccRAOLb0WxSBty6yX/D72184/KIGZQifVtPtJ7fKGmR2MVsqEz5hsw22MpnU4hI6neAlv/cFoxKWmJzg2T6xPwtdkze8yswsYJyyE8+zkTK12BLdz81ZBUT8PhvLIordmtaFCv7Szs3InCobL0WvSEl8vMBYeQzJApnO123Fkk+pyah+9jazp/JzddGUD7JAMTJIsMwEfrwVl7z3gzIxMM+matEFig5tiHnBbUKTtb+AiDd17kaooDF6wOhentdZ2XgXk363jrYyGKHcqrhhe3L31SYMRqZ5wAUwmx+6bISSzXN6RTsHUCkLv4T7J0Q7O6IJN+HGGcb3gH3FQoIrSukvVBJ1wK+gFmVtlDPODlcAj7Ymhn8VGCo94cOdVtRG9WzV/tt7f9uBQrdKrEh/lgD/f4csjs9UpI/CjG0Rfwr/4XWj1CSNQIEg6Rpy8CdJ0cq67yW5pV43SfM5WRGKm7fwh59ENU6lTdKS9gGRg7l0QgXS61tu2k/L4flNkkQ8ROIGFsN6JCCCnW+YpeC9MGrqUxz2e8SD7pqcQdq2949nwyMN66/cLflT9b4F3t8/bnXnYuhoRMhL94Ah60ywyJNAD7n1z381r5Gjq9V2L5itQBRFDd9VCEQzWeb4cAboB6XL5dX2fk3S++vMXecBJdmMi/6mkCJYMWvhVNnmc0VipuYVU5N2gAABs20YcVtqHj7AZDfL/VQkPPKBjaJeCF7Uf4yp/nwdk5ixTd6Jb0M9fSFH8osIyqA8zGzS1GpYP9h6mc9NJlczndxVGKzNdOl+HEQp/rxM/eJsY1rs95b6f3CYmlOc7mo4y98Yr/7DFX2Ld6NKyy+Lf+rnrJcdIpbh3oeaJ+Ad0IdGLUeosRW0bI6Trs5f7ws5h+RqbHwoCJkwLXzDGPQNPR0UDDJgAQaTYlS2BI2M3u0dVij2P6qBs2SEqs5MZLlyd30L/7ha6geodKiOtvpjMexQyBiK8KOQqPWXT7MWrsBMFURANekasAwQN2iXaZmty43k5DPxlFF20rgFYL9EKduUzGosbDCubabtzqci2Yw3z7ii6I9ahTRp77p/9980wEpj71S8/pdtXc+ThJwh8oX45wmk9qRQmoRZXNG6xkUDpOMeHX/zH0ICjThhcp57wt2VeZd/1qnw3g2hvowSzm8otL/Kq6C2IgwpPqxY8c+BjgSyMJ48ODCkvq2TQvU2Ot/zNX8ZlC/+TY6EzR2tPmbY/BkjQQCZpqNqxqFNvTN6YdwBXdBhJJ05NcgfkLcjeLFMzzpuo/DWTEIhZfgC6r9ySy9DxV/24Js1jYEpIY5dKqqmd22e8IB4r66v8QD1NlccDO2mlGtVPMwtjfb/3llYO77HmJ8Z1KQ+Q2k1U+5r8ih2o10cUStnnn2/a/btrnEFuwZ0IXftKrKZVMTgUKDkkOSRrtYUtrnLCcTgsuUVBCEB/IW5hsGEu8X6vgYvgeQ521/fViffwm/KGlnRLs3nknirU+lg2tToYQEXR6wd0rfH1uk8a3ierPtdqNUNYPBUMdyYZuXPaeazZPJLnkadmxKluphbZyOAwBAZpMs1vFB5vU9E+tgAfbeQS+qQJb0R0LjrHlODBEWXYAzwJEJIZ3Cv0R91kl2OZZQqlT77jIo5v0WrTvb31oqpw0C4uK4xR/M2UJBC7qfKL13Vyo+3bMi6u496izSpK9i2SQH/kn+9rtM5iEU2U0etsUX+1M77KB8zXL9pLo3JhfYvXSlG/+uqEBG8tZHBcewAnlpQDl3kVlKxzgnKROq71iNF1FHCnTxgdwKjJmCI8okw6PnSkG899UgXoySo3NFeedfvuTCmHywcu5H9Mq4YgD93HK64u+LkOur5bkhTwoExjt6j7CKnrPeHveNVHDSnXxtgVpnXoIz2pPQnq8Eu4pkQRDXqfc1Ajt4uv9NKtnVCsInlmgHmavzqxZHjZk/Vkjcu7nAJ6HR7jiRqyxhFbNTZovimsNG5YTXArhuu3+Eklb3Jm9GojTFQXjwrnGMq1f/NAZaQT9pwSzuyyc55+JR/1uHwpzHgoNUeDd+9XV9I/qcgHPlJ/JaZ7co2pu6O8zhSF1yflkd1mFyZaXZ20KFPAX5b+t/F9Ck3Bq30XuxbVoZOYCi0vPW8g7/WbSwAwm+CKcTbN1bLZQBfu+RP5weiccW4M0pCMGiiOTVB2FkzjgdWTskguLWY1tEx0qhrauRI44V6pMLPf6pnKWHJaKqPWy01ECICQRNe+eTzJZLb2YOuOY60CdWhBgJSd/oW9Gvd8dlISwVmQAErK2vhr1uhcqxP4dzYfPxyBlIK839GsctUuFtqDSEjACgaMxRvXwkwoudiiqeyyHZwjHUmt4ooj+ISW3moCqitftEPTBgF+ys/5r1XZJo9e93WkuJPiYk75u0dxWlN5GRRtdDUp05scgkXh3kHdJMBQcFpDINMIrNj2FeSJE7OfXDliHFvXzST1akX+snLG57Lh0T+StFc+2cMeXpiwmrgX7IUqAwRXL98oMjQaOvbHomtdpiUutc5zjY992z3iwN47eVST7etVDHba02FBsfKUiVAYMLC2tbVt8926NYap6VyUxkNMvbGS3RF/Kt3qG+6kzbNli4+IALj/S38iMRgQjlHQwoeyNKIN2RdgQPDi2x1AJb/BCF0NmUt2pGlASbrpyBY4AAhdmZHh1L+ss3EzhLJN2mrl93hWjbqKoWmgHBsBKY+G+oK/FRRvoKStIr+MY2/AwmCndrl4GJ/Yuo37gacLZaTvAtx2swhEmPchkqukwRV/nFWFa69Fe5u4FzwMh081XbL++DsV4A+uL1rEkQ9QhhCnbgizelQ6N/JF+yfdahkUZGRjotM3G/fBV0LrhWQgihRCtRcgzYXMkm/dR097bRXYcyS0//KbT5C0GxZ6HtLOOZ/SMel7XD8UXy+7Nlo52WNyu2yVLbGPTSVRJyHXWqamp6qcHB4QVJOvifwX6UKFvo9y/hglkcsVpSDMbZTpbT1kGxgSNopbKKECKZHvqg+bMT+C117pX/66uyb1uYjDQ86T6fN42my6PuXBWRYj0P+E8NOh7qJ5c73Bgp6+LNEp+n3KqlHAg8+lNVLbl2G2xvzYUFbZ8SSdr7P+XmpC7rGfRp46KdjuAzn6YCiv0mDie240/PfPKFw2QYg96xnxoGguzcXbWTdauu/66Ao4KYsStC9B5HxfxfNP4x/3Gj4Vc7XJ5ZQo3P49iZmmLI6wKB3D0IOePDHcMfPcGEaiF/Q8Ry7kH+XEaY0KLaUDb2H64abENUPBjLMJ7ku+nocICt9H1cfjJ22lfqHqVc3WSm7w/Za8N1SB7j3I+n2ttslfPbvPLm7Wwk6E6TOcUlLHeuI+5KbgidIdVOLyJMZKq4EwdcK9OK40OQ9kH1e9295Cr/BSKovcoHnKxJagIb3erhDBbjEJKKpRxkQyyfEHhZ6iy9vncgWIJqsg4pJOO+uAC1aHKP62AvBHikHpF4Z0Rn+ZDXYJzwn+QiTZSF3VXnaYqpBei4sTFaKtCG1zUqViHlqB7knnSu3/CoJh5WLfSAeKM3b4vPZXoB9ru9Ez0NNX0oTHe9RZjcPf+z+xQ16+qt8VmQcrdevCIw6CKnRd12RtKx/vz3TNjhUkJneZ+HQHo2vR77KP4ep0O0Lx8KTvGhDC69GMsTl0CZ2v5OAawRYc4MXepPnrGe+ElIfAwBeb8PgBmYYZ5lidNtKJ4t85wi4Byj77lcW+Va9S9SeIAEQdUN/BuHVbNBHHFDTpx19dZ4MA+bZpaV+Gqnn7ephmhKFjTSQdEA9lbjoAwAMk6YNnHbMz1Ygx3cGxTcUsKifkb2ZrGpjRg6PH+SdGZmNi4KOTtA8WYF0C4+xq7By40IGBnIIN8ZWM9PllYv7EgYdTqEru9QVp3vJwY1IEwBovDWgq6788G1xHR5pnpOgj/V9TJhDQAocMSB9qQomB2BDyfkUry6a1FqobJeCE8ot1WXWWRpOLWRdzqzLruW0FOJku8vY2wiuQlR/HjBIFIlOrSxKx/CapkuISss4Ln6IxUmVq1fp/Cnwa7w9uAi6z2Ot/Cq1oc3CzwwCHWCm0HmTsWQ4IlFIREebR87r3R2t0tPmpXBr4JoVKhpBud+FQCMQ0WAGYypOPQYk226f5zrlwPapQPxCAllk4P3X53saCnM7HRC86QJSV3dyOjQRrqe8kxtToSPnMaCREWUbA8vJuyhsAb61swlP3q9CCPz29beXTSzteBfoa1HG3SpBk6458WA3QcVDLmNHEW66G6yIzfd9wK17MZOP6/WcUpYahsdLp+ZCkbAGBEluebB4UnlI9cYUagXiDwpKxejAsGcmkbltTlyeSDoPAdV64XOXL1ZxdVRouEGJ5Kbu+RKPQ0cvvs1wDjcXHHfNnKh7zGFd34QkjZ635vwGLh2v2TJWuV/AriHfDSdGBWvfKqmJB1acXIWzXv9JQhleUeXnPYV3LDpEW51LP8G1a64sZIheIahTjCoPSRNseEMP7AJaOtt0Lp/zc7f7YWJedlTvRJVP5GcnaKNuEBNkaMqJQXsJZrk4bE09hJ+gelbbyUZwfM8lLIjxXNy6lyUmNp3B+AuP9YWLcZQoAAUt1mJxffhCm2FjMCOvi+jlJS34iV1AB8Mb2cOf1x2k5UpGw8K2TPv1w4svWQA9US3eY8Y9VVf1zRhTGZjPiRhCYkXd7lkCiBZkPf59ASGp0/u7XFK699REvgqdxFt1y0M7iaXYq5p4RYErxfy4vM5G3TuU8QBnFITryPiIQ6X4U9aEpw3niUZeilyKpdDLQdUR0ViClRUzHwXS82qXYjkCBXUVRo5HahqmPRaS/XZrOws2VR5+UryPEtIhgz/7FevI1S+ONGTtCTNPflatnjq7k7hxi/vytah2C8f3COYfzsG27avQuoudwqtHDIpGbI7g1QN+5AVZ6iK7HCpsxXA61v0oujsNr5j5cOF3YuMw807imkIChfQNm+C6vXugYE9z1PHOoKJXfFwPZD9W3X4Vrdy89MZFgmt3Chwbr8d0qaycoKKRJ0MCqXA3uG8+xFUEBl4I9QOd2kLn3c43cv3pA9C+/jO/AkGkpUrF7ksoL+0R31Yb4gMuqwTf29OQ3QUnnFj9N11XuS7Ak5Eet3AHliiDSJSMx/kIhMCrXM1eai5amhhr2ev6L9k2UcKXwzJuo//lXq3lDXCPT4EKeI6ZK4q33nNJw4FT3XeblZh8SZcC5tQsfwZ8EafcWFtrwgm8DiNtKesuQa8RgDLYjbxc9yJqhwTHIzE1hGHr9HG/5bipByPuhDFAs4jEz/oNGuqGrvQY1MmQKkHbVw2CWzPyXT1EeA0A0DAVsMwHOFwZlfyw8wil9zysKYhYKYNkqOauYbzKlDPmsyLLWyOrKqpbTJ9BOkyCcoey+Go09+L0+0JPCEKXyoCQHhsAsg/rmaCYo+7xyoGkV3qfc7gXKM7YzjivSKkzMohmm/z9u0ZfNNLAmCXhkRuKYzkcSDkcdXhvyYasggr7O5HFzdlzJePF9Zk5sLvUX55A97gf76EGq37eLTi+Wp29Dc9eWLTQbLoJfUdqCEDyXT5Hkx7gd7woHX9W3VSKqNr/F3IBbMMc4+XJ64oLy7zA64lpQk4VYTJ9d2y9TWHZj0G1lPj3BnAtNpqrlRofQoPZyXTZsdz/x4G6mNP6HX6sLTLsD0nIy8CycEXXPE0ZRuRHYICATrI2ehjLzHnlAJDzfxZMVnNH/KTOIsXdnx2OH6jbjvAsLabfftQaqifAAPwYmREXY2XjVZ+DeMOwtlOuVGyI0kHBelxkf130x5lKoMJWVxWaGv00RAdyHMb+NI14BUTOpUTbldntFm2NjENigDRqfOnUfSgaR+OBmQV1X1z5RLcMMmwTscRat6moclqnzVfAcaWULFgRGMaADK8vE2vyKiFxmN2pR3BhrgbNbvX4kNj654HNUvDp890uKpB+8+4WytaLVsnq+5DIAAAskWgRX8WGfFa0pdPlgPzYJkIdyr5O7G0Z6VRUfLB7qG+rz5gpP08gEVipqzKOdeD1fGaQPEmXL+iYTZJWxGw0X0TjXGHrYqpsoT4EflDPYkd9kg90Z5d80yTaFaKt5ZbaCfMcxduTsmX7dDsJ6BAoIINKiQqdqEydaFan3gpq0Zo7QlWUh4lT5MYPNq8O+DhwoUjRUJyAthm+uxHWUr1Nw6ReuzQw2K8SMKB5wfDzO0kKAFe5yHkl6BcEOUH3o3uLI9mO1chGApJaUiuC+WoFL5TJDpcjLS5AL7kPXO92XJaVXbTiwBNCBwMZi7ZCQKMh/uh2GQvcVSNzgsBQk/dcwbFUPtlNy+PZUbuiOTHovFdg6wtJCucoNYoevh9dFKQPLQ+t5dP9eVH+JBn/fyEmG4Y3B8erjDJ15wjyXD1dnjVCDFTZ3d2UDZ/o6UBE5BDMxV4pPs8TEpATrpUOdXe26logdQIKT60QyxQ5BqG+MaZxNNZIR53A13fB3lr8cbr/CK/eJX7slIabipTMd0GgJKsqK5H1p3xffVFAwpHj+bH+1E3Tx0wvbNdbKV8bx2oX/OcnHPI6UV/uA8uUw3a9u+UUTz09Z3nU8axGLMzfJ5mMvrsjOx3TERbJkTFUlRSdwb+pbEqIdHQWrjjxlh9fo2+mZokoU4SmZS1h7uZtYM6Iw0uwbfcBPki1pkpOvB4vYZql/oalOPI5xqEEYisFw+C87nnwhZReGctwykEwzAep0wOQ7Vvipwh/zV2YHcAesrEKqNCPGSlufC7cO3dwhL/duiSgL5gr5bizVac+b17ilF6J2Oinh8QOJQQtDumda5fEeDH1dnzLORR2maXh36hulVETZR7ateXJrcuGCBiuhIpI+gtSNXeYSN/IqaPBIyrER9thvxGs2yXmIctnRfFM4jaB4uo+T9no1r1/6U/KMV5RBjtldzsQuV6Ec9p2kRbjP8NTehvsO8e0i87u1V/f82ecxt5HisIgpaCD+GpN/fjhmoECpcfd2oB2KKhJxh5V8b33kpihqhclRwEQv1IOQW8X6ULwEY1qn4YEVRoEwCtDpTIjS4w8Un/2ChcNgZSoGSR9jivZK9YpG3oMxF9wKBBRtiW3mjXJCzSG5rTHoS5Bz/vS5OQgECv6+1yjKrpXARPTG15y4xxt6pFQUpf4b0oZmJ3pgM1rIppubEsatBSkpSiKyaeyHlrVuVGPo0lY2RTNftHZIUgzw3r2FjVcBKU7YXbVGY7jmz1sbBIsuDkAAqDxCvA9SC/T4bi/hI7plmTgPJAh8oX6Zz4ogr+9L/t2/lDrz5Mb/PNt/f1rvGoW5/UhTueZ9qef4bAOijrwHnLxpdIshfAx7dRavOtH9oJVGyduF0cAAAO5BOV5EmAQIhCXKJ8f33UstalM+RRap49INIYCDrZvtz/0JeLf9FbpwNvQcmpJZFUTVCN8btvoSfIIHN2fJuvAEEe2+lDe8e/JDpYbFcBywJ56XKW3EI2+159ik3HmBZmuaV9WAT33C/Ihd9INNZT+jGQxoAl4tuJCasLehwHhS7+rZY0LVMeoAHL5w9Onqyi0O8nj4VCdAs6FRTRV5vtMwha7BB0KpwLoCjCFw2LRhympOTGewRB3kjCnh8iFFBe0WMkVykTOQok2Swn7sEyPRHZV2/j8ws6YVBLKXVeFsfNAWGTKamp3t5zpLelkak1g1NMMI4GXXeS3GugDRYjmSZUpGlEl0/c6cERwECefjKyYJH9HVGrjUnMRoelARnTwwzD8jatFFKQIPkcTSJz4RS9kLbi0vlMR/cU9E4ACaHHNeILclIzU0qZCkKdFS8H+6VCwbGu9OAgMHIVx5+3atT3XBzXPDJHAL3f3BkLojsBkUkfGUiCRhyVWvD8uxZIanVfNT/42nUWdSYpfoMGKi52ibydraJole9pk+18ATPQ3MMjAS+e9rvMFjduDq4HO7+VFAEVgA4fyw0oPoP6jNlMfdV8DYNSFiIyVXrF/7u4VBwqgnTRyIc1QgGg4OAgM0l8jztHzFLSt/H5yA0NCJRWCzKpI70G7kZBMv8K4H5ctdE4UyCFqTuvZEu/XRFZgC3dPEDSEPdxX5Fabsffrj8S3ppoPlD1sNpoPZDvdRvtJNixJGKVqGq5Tsnk0Ny4AwaWMM2zibDHYqNlCqwnNrz/vuYlj7G1ni86sk7RrweUogGhHK4KyRSHMTvBPenJwQZM17dDHWcTWp8WvRR8tnkvwhTiuhMm07Zb+Q3+wKXHz6pAbBOTFZEdUCmEHuz6saFKTuVOyI8ZVyXdIlFhT+8ZKyfnJSMIwj7wr+hg/1Dc5kj2TNaYvytJzOYs13MQAAiJ15ImLlyWk4s3JD+ss+YJN90Dj3gnfNDW6N3bE4wc1ZqB2xUEdzlT9xuJKFayV81xsjC7JxpF8dp3K6GYaxH7Puo1fXJBzMHZjERSD6snjNBOoJTpFNC05J31skQ2ov0FwUI6qI0M1FXp2Jd0jvn0XKxTBXVvP64859nFSJQfjm9Z805HNcqUAS/IzX4MgPkkhNge51d+vsCfMhk8nYr8h6f5nqWhmxf/tZzIT651LDU++zfLZ57gxoy4PTwv8wftUl1hlZxPSokd5Bjgn586d5if/OrLy3YmfV6om2hxC9ED9SWYPCsrUrAfaM8v/nhskJV5WvlKc+FlxMdC+GSe35cMNXtW27nfyRsIgfO3qupxzzLxsRPPjN4knSFTzTo+r5DC0xnxBtzUvXSNXC1uexp7o98t9CG3gRFxz0lAVjFgIu3Mte8rT178wav95ljSHY5CwpHK3SDqxceQjWE7cLgaSyjrFRV5LPE+58xrZRdFQnD4nYr4sZTqM+rUMBqWEc7B8Tul/jOlvfubXHYdoFiP79YJrVg4hlH+f1X40kmVLgzuKk9TnNBxBZCNwf2A/1TMJ1dK0mmf/gkg1IigXY+7SCn7otJO6g9JrvWIOJw6knYhDLCOEbWF1Hb5/soOJ/tyrssHPvnEzyGDr7tnnb9OkdNE10j8yfUdxtcUh46YOWhLoNgQBHrIruq3alaxRrfuf7uobnqXmIfn11p0PmvhKC95m/9MOQav/M8uTDoHZILXZKn5wayTV39/QZo/LcRyOu+i8uP4oI03A4t/HZikL3nukVzoDLOdsC7al6RhMjfBd3e9yEMZq9DVQeYjbPF8WPR7bST/VVjMyztl2LDwKWxpuhogGuU+DfZM7GN/LJCt0z5YwH7hn74RnxYMUrBp7/ijv4TkWE5vQg0iK+YTvuIwdhy3BUuDCPRrt+1WNZ8otR7m3lGKGMRyAeq8WxNk52c4ey/EM9ZvAa11lTp9lwyrr8Pv0hpe+BcHw2oLlNEbbEo7JuGE+7+f+hKoTG8vmx0L0zCBYz9fykCtIzsh6W/cL+OC18amu0j2LSru1lt/QLtj/wYGCYJgYG3ymZenKSz2J7WcCqKG/r3V10uZxusP1pN5hr1NPLwTzNp8ePqK5JHf97aUUpEihAmINjlABbuWI1dcbarmEWEBC204cHriTalRu8ApOIEgNiUcYmRu3Y9kJgjRi22MHhCeZkf7o1TNbZo/1BDj/kwtfLVzd8MrikUEvtimvww3vmlgKJwLLCYhgdRMN+j+2/FbeRn3eTBXOYW8gkMlRV0WrZmhPyXQV4Vz4GDghiHnROCvS8u7aNhNImdnTT68cw5LdkNmXsuRgV6b/R23b13x7SFRerASzsIFoLnAj57HhLdgdOcE8WgKrsYKvhT9/DtyPCvJAGbyFVad1b1EiE7jyq2iorhogpya4Reo35j9yvyQEOh5ifWPAsHnvesPAVy5ItIEhUNyZheGydOaIp8e/W/BPZxLlNMk8N/QwYo0LVXnHyrPtgmMRYInHuIWg2BXg+JFe5p8Ol8oB6EEh0C5t1YL0o1A6LZvLXSWlAdsZ3ftG92UBbJoUy2AnVZDSW581nDe45lplfw+q3RVO2XNFefvjr+mSlQKAvTLSL1+F36J2HEYU/enI3gMFyjjQU8QhKY0hLbUFpdOPyKb9EKamvXidBauWqHiT3GkZ0ozOf7sHBDXDI+Jvv9bf+NVjlXpcbAo0MWqnJ+Y/9HIQ3ychjRWgATOO/A/xWgO38H8WC4PrwJFPw0aZTNS5IcpOmTxVVxV3E/mdwkbUZY7+qmHqywy9Q3KJ83AfsmlTO/n+ImtbDBJO/zumF33+n5RUPFq+QdlsuO+Kz/Lh/M5cdj0y6fyVp9dkkjHjRXrW6lxwXuH3Vum6gIAuRljZn/Ckn6oAVXq7bVhN4OApjOIhpkX//ul1hDGiMsFnYxHFarQSRJR+325lZiHv/U/DxsAQgNm+4vSZGqdCQwRbsDA40k6yfnU+z0W38mrt6hVwiQF7u9DEj9qi1nWp1RuPZeAD6zGOPBr7XN/iB7FA9QUt4txuUx4XMbvWoez70RXBX9JlixENACt9VvaJlw3pDzuBc7ZoN7Nx4BqBVu6q1Zv4YV70IoNmDEMsJubU08v4SYcFW2fgqzxWhtEEK1tnOUWWzCcuFe+jdflse4g1GhoVtIR7YjH4dBNd4v+vYFsMMoWO7EzbujhzXYleuX2OrqXUtI8AZ7fWN93HElixt5mf3pX0MypIWwhOACYYrn7XS2PFgWu+nzC+6Q8SsXMTa4d/NGgb1qi054meuFJ9ws9X9gGMjhGIrwHlzl5cuLZVO2rFGL0l5V4SUMyQLKsNAMQox0l5Nd4aB1YagAZWIjzxSa+vn0k/mPOeTIQJsWWSEl+eO8CufjCWX7KMjfUnp6CA5Yaxkb++0nd5F3M1TLW8QERB/av2Mg8XAAevt5Y30OORUQUEhetm0AS0kS6P5boi/UC2lrB0B7gW67rOHLyYoPfex5LZbf7P0vw44Urkl6g/L6YfUwyrZy1agMX7yCmpMLmAz/xOn3jTnUVZofcnqQtoY5bHPAAAes8YqJMaJ24NKKBiTZE4jSRQRH3T9/ilJBPjmlIxz+phZvBOzyLbVv8+GVcueqxiyUFxQx4Hr/ghIp7m5uzU88OIJ5jTdZRX73v+8itwDsjfYlf/4w0P17NxQIrD3qA4lqJE0vFzpFihUaf+nhuwZre7P4AgtQq1U9295eX6sa2FDMBSuBYQ1TIE8ptZYYQ1+f2xdLbMzG1J2yCyguxJZgOnaYM+jTiioltDf8/AlEfa2cjisXFmL+aa2yEqS3eDecvRvz9rbPHQJ+nOJMr4AGBya1QhqtGi7RZL8UrrxHHbueftPCqlKfQB5HQNPpBSb7YPb3L9rB+7q7hien7ISpGawh92IgtfS6hKil+AQOHK7MHDCdVYVmXDvTysE7jkm6v8OkPmn+ufdWN5FLzD6eToYOz++uPBX+oqnHQEMXjwKqnIN4J/VTLbAVeWSwDDXMO85tHascgxTyGSyyBzwqwszHN1sRB4doAPL2OY78p71cgKilfSOP57Ea39U+UJS6FROJ0PZmBZ93Roi+Txtb8qf4yjHuIGX4nkcM/40/ePuTIfkyOBW0qYewNEEUubTSRWyH2f1xyj6QWCTHIhxzzJGbbewk/s6+PMYku8Hzljljodg4TV0yGUVxYpEvQBXo7M0pEAfQecA5ICyPGCf8HfXrcLwXra+MP3ZcYAb1g2cH4K81klkcmMQ2yuDH1zDxd8PEARzFsM8rwqv9WCIFobooqAiFZfNqvEK6Y8BzqMeAqQEw/p+SbxbD253DjQLe9AgZZTwvf0BUKb4xBSuQzN0JfaY0+NGhDNtmFwldDqShkofmPuZQf/Rtjk3kHEfl/Kc+GYfNb6dDzjkEA1GfjGvTIQpEKqMueQcCKNxGNsLsRHT8ydedvrbQURyTyzCoUXiWfChkHb5HZkuzPKd53YxpkMjVIRxbo+u6CDECGsp2cco4Uck7DLk3IgLNTJznYznVsNW/moTzZ2Vm/FmFaHt36oXkG80H5d/3d6NAjUgTFcteUJDWULJeJJjkXuzs71hnESHFGdV5vRj3rjr3RQzrv1VehSsgTyQNNIXANGlqpf9BMYcsJVILaJIsNtvOYyws921IdNd/Q3Iy9lZ452fJrDnmmokw2Swh9B7DdSAIaOrGxclsCMhlU5GTmKLbPjs/tNCoeRGuKdzujzTDb1+/Fc849uYtV3c+rQJXdbtEKm/Bj2gydxM70ujZLwoXimhYx0++mxSmGkx32zdnTN8O5HA0OrP4JP3zrpaNSDxtA5TERW2bHjmhOOkGsH4fjteh41lPPZ+fGpMD19qVnA/HechwvZn0YfK+fQrML0M2nW04tZRA/Ou0RfJkm5A5uQ5gOhu20K4lT46zqTQ11ZQcaAAAEwCY9NjfIGYOsDUohX8ACA9Hud+WXRdwozd1FidDO4JV81QH5I7QIzr4aP2jO/Ntuq/B+DXfqMX3z0XES/1KDWZdWXMvwhFD2L4EicNeSb7fDmkW95f8jNh2oqC62T8XK7rNtySGi6m+C22grNetexeyYYN1bti8C3uOxsUWew4MiZO96kVhqtX7IeC5jiFeUa8JVoYpUdG/DDnLP2I5KaOZkp8XnOUU4MbDT3PQlp/eI4Up10/rk0gd0Ql3VNy1j4D345KdPM8wqIXasiQiahjqBj4osjwd3KqgP+JpBqPsfFnvwX9BO/qalLL/AMfcciT3UK7LZdZZewRQMlSl4YAZIaEHdp8qPj9kBp07vwEv8vFSWAghLw7j+sRUvp+rZBzJea97XngkOmnwmQvQ+TcohO+7PXlTqsPmO2ztmTqKu4+q9o2OO0I2hq3bar5kwxBdL4OidCZSDuU/fRlZszzscW2EOTA6LnrmAqqMxwVzLGx6Ii6pFWyY0zEWr4htf/0qwn1IXouBy4h7YnNtBT7IWkFe0S3tFQZQKg6S9fKjOgoJw6fwG5ZMBS2BYqh4uxTDTaY84n+Fu/BFYhPa3KIietpm6rNzFc8ASY+akbFZ3ws6eqFWzEDxHsPudXSiZjk04/D//uzaFlxrpwAT8wkTRaOWr0CVoryOYIOsbuFh7Y3WPH+s9Qyz2uMcXXpT140/0tWrluPmBBcAOfeYeeGafY376Wp+Ufq4piFWlEXQq5XglMsIOuDVI1/6GT6DPQmoAVwN9CdxQSf/j3kdjAJq7pCCDebuNpOWS5V34XTn/mCBdZWyAVShz50n4dygv204UNoGvQa/4sRxGDLo2l4BZUwHreiUCxWftFvaJ4VlELxqX/WpF/eg4ff4/I9nFoq0aovU3WROT/vAkUPizn9T4/XiEaTWzROBaTLAfu5p40PAq3FrzYqzFoS8bQvc2xM+3GYa6rJcTNheeMD263XaM34KMGdFnIXh5Pb5n1QAAB4U6TUPmm1SK8g6AEvfVV1ieoJ0mdOqBTkR2dWT/4Vg6dHG7gTkcdb2F0FyjdzsR7wSPjnNJDzwRCWMlYdWtcfzREaqTTjd1Ai6nehqKkGigUfoE+imkjzupNwaVofs6cu0elK/FwQwMITBnf7j/UoGvqOHMjVi6NkMRVA05UJsoSsMoOoQzSNBOgY6HupUGciph6F0d73+jz2/ZfDXp3QISVPJcQHYM+46ogGFb5eMTnc56f6j0/ZCr4XNabPi2HQ0x8z7rZJpiSAamvURlhM01nnFYfsosxaG0I+wzm/xDz0jHORmKoWBFQKn9GpSjz9diRYoaygrBJY1K1WDU/hTeG6JWx4TTTNezLtRhtDIfCa3N7lr4VN++XBFWSRNDXG22KA1nJdZWpBIax8yrii8eeMADWDsnCv7muid5dOlkNNZE5RSQgNgQDwP6RLc9JWyXZObaKYaez/WpuTozpPJKoHQcrPzxe3ZSvMCMfoHbWfhRXLqu/9DclM972JgDzbanLg1hnyT9GmQXXwNPHSDf+dnlihph8fTbuBv2YpcB1EWV9lSXiwr1W3XGwnGOasNjKy6YRjAxxNI3XQ7369s785aPlEn56nNLCegUBlxKKNPIveF/0krM0OaZm6bGz34lSBjjjz4uLhqctg1NaaJKRFAMetK4FnZxfenr9QDxkHzenJVFvdFPJoap0wAsgpNhTDRJw0huyh78xao2Qv0qWcyGBuJc/VBGiFc4MG+njGdYPV6XgT0kMaYga0PAjf6vLjwBrafym8NUFTeXl7LQMJZnep+aOOVQ/0lCg8igyLg2XRVBZNNavmPueDu84tPidYBmsS78d5+5oVPt+5DJn29Yw/+WwXNLqU0Eo0zYI0v1N7QG01V716Bd/JHHUoFiqi/MttFZDZyqbO9JkxkkjVn6xOb7KvPbn/Yhbd7VcL/91NQ0UJjN64r6LaEqQeUG9oPpXDkKqVSbeFYplmU6T8vqPPGkOklDn/m9E1yXKHemdlY67gJkswT+zdiU0ujngiHnqpwcggwNKOqIZVcWHdvii/F8r97v83+lss8wTPR8cvDqpR11I9xAAFC/Qy7U2aX6ZQbMBANIxAmSweT4LSx+AcNHEQCAw8G40/h2A/79+L++P9CrVdTekJYYMugZLDdtVIgH9YAf9PBbMsIOMSd8kCfWr1oKTeY1M96cbHIU3XjcSFFHBeqZoi45ZaaRQca5nZx4Nds2rFS6NiquvxzRrmpJUaa1WgnpZbab5lz6D0//Zhy/FTXNrM115YHCj8nL0gZuTzzD3nOBPv/7V1MOVKy8AqfUztDwm+5T+0hzggnBus0WhGWCWqYyTgVbCi07GtZFCHyibtSG72ykNIUvNcbA/yZWyG0LkMp3Bv6y7SeJN0Gxv7fO66TWCJhaypLScLZ+EI5ikI9AFVy0/wXUccczW7hrZ5X/ZoliPZerRS6Iv1WFElKpAu66GtkpOYpEtRJ/HMWfj0jY8UrPO9ilX+7mEtVEyP/Io8dTuo9RahztSBsUjn+jpraXUsGwcmo/+sdKM8VDbZnC0EONUepRFP7et8vZG9rYq2Vvf3sELJdPkfzgBHXvxUuH2zbf/n5neWliBXknHpcJ82yVllqXGvNsYiJGc2iN/+DoGWIpK/v2BJrh3a87PGclg+f7tnxfjqROQSN7DvZ/85TVJpy/LsN7BCVL87DTxeY7IKzSPniCh/A1Z992b58FG9SmYwwNjO+xUCizRtJ6RjczPvz2tflnPqzJNEBrB9KRIhNi7pRvlztP67ciklr0PasKp27FWpXX2jSKYILjTBX/48rEO1Ku+Mwm2MjL6WZ6rh2bvkhwWoxC3nWVaR1tzsqivg3exV0o/Pod+MO9Unbe2cgN/gLq9KfacI4MKRSFRRyATyEa7B0JxjxtiA4j3nUYipfu/Ftx/6v+gJ/EvR1/6yFfug3DUV2gXLZWtZVzzZuk/sUD9pb+vw7LF5GGnzpdwOiS7H9dD7VYZors3CyrOp63MhdZGTWPDEltvZ+KI4EIi+soCAkQrRoQiyk5Q8FBLcOTA0zsoXazFe36CmdFIoUmexjel7JyU3LLSmUGlq+vBjNicUAEf0YTRtD+sFWcbxuNvkHdHbuNclyIYNe3tjpGh78IgCYtAZ1ObMxwsBaU0C/kXWyQnu8kNxBUshTnaFCR4P7Lhu8cOAAAyFuij4kULsa6znWOtP81BT91aPR3oa+PQjixEqVlxY/eY2MRHYfDtg1Xk3V8+dDAoI3aLUwEOABUJPn7lAC5e86l3J1SP0pTw5rzJackQa5csiHG2DMPxkt5ppMKfAqglbfjbhcn1Ju4r4kWaOG0fM/iD+gN/TrtP/4lNbjm17t8ijHVtLodIjFR7PULrolcI8kNLyaKufGj4//h9H2DGUfdVHh1mk9TnyOHhOy86te2db3TiCtXnV+yIWp+Hy1AKd+rl6iv04ZndSljirV9a1cZSVBQ7u7i4jYmesigUOiZyLLQIOopVj/fY9bCB2PgXMv2JNiLIzQQaOWO08TvGV8+zCT5204ss356FvGJPZRiMawm3R3qitDp5CfHEgQBb3V8JLNfARGJ9eXTZv6EigQmb5g7gbZYesqnCMhqS6A9c02C08osa+jfz//SfrYyC2sH3yaWW05ES13S/MrHCB8bFDS3nl3OYxvJGX+CvNdFoUlGeUmG2hIUVoWj54fUA4IE1MruBoBEiDbXKyQptd55OepH+m2dnZ/BAL9Tr9pxbWmm/DNT2m3mOeXROe2ZgGoOfr364k62aqNH9i1yQDQ4Ae4T6rXNEqDoyHuyRzYi1o+sAxzTg8d56pRauTlqAoiAfaEaFis8XDrtg7RNR5CQAJSA1VT9qbk5hmOXLnXZVfRYw2xbbqrVrveB+8sfJrL1Ls4fyRkBQdHrRAYsvPNTQRiQxL8HytX+lBCiyHjkZSqU1KUL9Z7Cx02zzk0Nvza+cmryQszsk1zb0lhXeTmQsvq3z8lGMetRYoY+GI0UAoB1/ynmZTag+gWNI4m/KqJ4hxgmfzvh+3EwBeaClYhAGtnypTbMBzTK/X9/LJMTaQB2mC4iBKPf1vcZZogzazQEZcGeiemUCcIDOHXGw7+AO/Y80j/8zSP1EPQsep6iRA+qfOedNW9pZcVxraxM/xFYkAVo2BgQ1baTSfDJtuqc9s5iKQRY+H6g0Qtpa4dMskTKDScp1UaBA+pRFmK0si8Kox43KMdzo4m0aM35HtGXGiGZ4JdsohyryoaSCiB9laySCI2AOgoflRQvmQjoOhe1O0N00MmT/g19ObSUK7xUezGEmr6FTxs7EcD2vpYxTB8bKzG6uEI3L90tEl+rJ+raZu1rDOpQUOF71kXlj47JDR4pRyPJ3iTGCjI7a3S1+9b1JI4c5bXcZo32Iv0qlWh1UQZAlqogr0ktX8rwjAJbYE9eTfWeHfq/hUnCYcKMZf/3yVnRyFJeO+W/HmDTte7nEGqYj0kaPIMmeJuaB93zD1g1o9m+e344AAAPvQn14Y5A05kAhKfq3qKW8EtR1Kj4LI2aw9JiG499IwFrjeQz8IF6/IEzXxq4Ngk8K8oC+FS6t+HsgDNq8T+51VYulxG0PA1FBScr7mo73uoP2OYcTTkKjFS9Cv3oXS2nXHG8Q6JAUe++7vTl2E1i2ShjPalTTH8VGq+lKduCg3vKWCLp/aXvJTf2LtQCcv+Op4rw37RYyb/SZqduKMfo93vpeH70kTiI5tLY/kRw0MeiWGv1K2cLlvQZ0nc/KhBMGMqX26qVq38onEXzD0gRPZEPvp2mMRsUq3XbNTtFVsFIRxZ5aaFGoc5NoB6+6RbNyfpjqRCzNfuPfZhZr4DfRKfq0Sscmc4gfR3faC3joSSBGAgymnpNLvoW0Ka9itDRX0V7eiI4W4egYyic3Dgc8NzB2nYIIuwMnFu4YMntwKq10SbGIzKNTixnS7j2Z5C7yTC1xt7wJ7h7qOOxPhgMHHH0Hur2ZDwu8JvGY+rgtbdM8+50YaeF8XbezTY3J/nmjDvS9sxNQ9sx99zaOyVdyZ1Id4GTRfyyOMImju37H1VyLf5NIRNzv5HN+SEyIndfGXDMihqaRIrAWV8svFICBtrwA9Nc64aiqG/LLYu68oCJ4pZs0LEb7Y+/bMmeiEkGfl9KFiIWv6+nHFplNHl/e+d/JqZf4iDoWQNKJ8r8EJ75gFZVkFWICMC5bRMPiF9Z+oKGz14+Il5tublGMjBftsNGZxNoM/zaJeKBsEAcfd6+ubs2PVKgBogkOYlcynSyGEHEcDCG8IpMdD6TRzjnrFxYQ7QATbxw/MluGIOxMgK6y3KA5lSfhrQ4MlZuq4x8UziRdg5AsIorHKZg3+X8ZvTkVkKbdlmvECAUTHgbnlq/tw5fP1pcOzrAE4joDD8T9bO5ubkoWzP6oCcaEM1R8Lty90kh04hSFKgN0qJMZHePFQqVt2Ax/6FkRJll/Y2iWsrMWRZSbeBKUpXxM4aiRo7ZoYQS1IegbjGX59NHv4AGhM/C5IJEk2PIZFTl5sZU/zgYoJDciQQ6OlBufKHB0GaG1OSsNezGRucLJQaG7eHZM+md9l9VNfhX/t89iV8tMy533O0eagupt9S58u/UB/4uVe4bXkfZKHeJH5iG2COrc50Ij+Q9rzXv8q6bk+G0R9yAgeMbgxG3ABCuxJGoDGI80QUgE+P+n7oIAOGappFXZPIH/7UFstaCXvygiGJp4CIu0eBXWDlsxKiNejT41uWP/cYOjvrLEJN+qF1LfoD72+UCA3zXqY4fi8+ABPuVotvJ+r+evuulTI1EwYqP/pTSbnOu63nGy4u90rRMRu4vnKNcuhd/acwZL9Cam0eTihSbLha6i/j5UAydC2lJY6pDumhs6lOk6NA4AAAq2qvrJnglzaTS6pioK6/EaoS0FmfJF5vxcN9+/GRW1slV+xaC3qhzy30tA+DXHiA19i6D6MIsAHePbnfg8QLEX41Vbya9N665yTaK33ezmCRyECDVd0HZtOLftYJV8CMJLF0PAPwQwDtghfFVpHoKTN43tHEHKKbFd4iNena6wG4PXT5ohvxlG50IzJJTn9cwCXzUFpY7YW6+dOcisQWM40TH8x607Oi49TnDyTSR9eypTwT4EnMIeCz3j7sOuIctwHHWdq4DiFmWTfU71oPLiGh8PpbapajVb8JUjCUQ1wvs+ga3JAfKdchsXfoeHL5SGjkk+MRU6BwMeoxgwc217eBKv1eHzUyf+5x6GNpIa7vZ3cOGJ3YZnAb/fdjmrOuvaAQiHSI1ngT52hZM96KZxy0QvHmS+EYlSUIQ9Gohy9rfFtdtBxrl4zSUzBSja6yDzq5uQTnzKciubNnN5C8yqXxbEghkX5PUQazOZpkegoHVJYmwtFSlFxggiUWW/0ggGPzU9PPHpEZp8C+99HXqkPPbLihbzygloNT2Lh4yL/6fGoaUN8iiUHLpwfdGHNWBH9uPPREhH93NjmPMWQhyLvCUEQyGgzkYk9PfJZ8712eMNiu1FfwEx97/ZemaX+XA8bMMkrcl35GB6j93M93IO8ZpwEXmH2A3FBfi8lF+aFbQkiva5bMD17fqpf2h23Sqn+nn+/IDcvwOUKXstweJyuzY0b+aYobQJujj7fgw9puSkiV27Va9z+7fbOzVJHwVs7o1juQNBDraA/pa/EWcddpCQY6egEk83YaRZijevsyQISxHpcnxhczzzl+7P+0MHUAKYBJsxbrW1WAycsX1gmhFKFsWQDb1LubreOzlKB+5OWC/EMFakG4wguMCDq6vkCnS4HGhvBhzfBocMmHssjXv+DAYbzg2BfLGxiDPOQqqIN50tkYyPWWYtvEiDeymFeZ7Vdx6q7codIbZIKY6NHlKbT6gMV3VYUcQZVqSzpDHBLiAcHKUjy8Opq+XLs4PHw8HpZv/+wtQFwMi869p3l6bwCVy17UdIcFlFqt1zmyZO71LdDo9c0SlSM172ap+EgACGSiywx9VY0/cCuOpMuonphXbNES+RTVOsXY/6NtI66sfw6mH488enmbsI4clmbLXG/Nnfu2bFDiwTadVWGbwjK1vx8eCVTbwyBiP4apFqA/u0+JSx4Dm0g4P6zr3l6mzFI5qFDTNwviyZzZdX0k0H775eftYvr2MWtZK/ayqH06E8OUZShxM3F3jMDA4erkndEktjtPbFrwpy9oiOhV22/TpDaJVuW/pciZCSZFppEecQpccE87oDxU3vjzPgKfduJvMvwmF5NtbAHv8JzVKGw2o3HUA3NS2i1HjmQy/CBb0XRQh+RSe/fOhY+Xrhwoj2XS0v+Mm2A3EBUSIzMRL0JBVKvkqfCXE2Or6kGJ62ZafU3jbKKBGxVEKNf/39TFN4lchqk07VYkVaw3AZgQkrnYab9smUonFwlYZ4P1hLr5Ge3UHYCfYMVlC0ILtBJn7yrcZMOGQSgBkihUZAtWZLhoClkny5LfXAXHj/VEhtbkaOWVw0ziiMNKzX7yLVrcb9f/aEiTJGQPFZGIsweslBqesrpdqIV1I0E1+VazecTo7BZvuEO6QbxWz85MN27HI9I9BuxhZJSQrAKrgBm5XlfxmFLlWeVEXS1eZz4xg1rSL3BjaZBvHDroJqs96h4G9osPjJPqlNGowbiLyLjV9O0bO1GGgJzBLE6eu/1q1l59R20oVnS42e9TI68kZxeEyENcYL2Nly+cn8zihYKWJy6QtOyLOHcanWtelE9ypfZgNV2SZ+0ezrGUfRJ7TcCvc5G1cxLhPh3YZHQrJa6WLEoSzdgQaJTkUM3i+kffGS4AAC5ZKKHC5dQLb3qTxqdjBLUBFZRzkIHkGGGrEJwJAmt67vf2MktdUryKR2Ag1m8EUdXUAXdLx7KeAcwJM3oLXxeeS0TcL82r7ZVrC8GMYtnVJDdX73xwRJpoEYDfLibn/sZjyFHCtqCrcrZN5Kka/gDB0MBpIY9eVw6azk9zKZOTMkrnpSDWBoleRwiHQuypMH2x6i/9w+11U1lSbq77NSeuqfi7BgIQbTJQe31B71TIeR+9ABW2JRWIqEyjEYu6e4tYt2ftQFqjX2wcs6E1Ii1UI2WOvAbPlk7r4tS1xqwZ54xjG2o1PSnPbcfOH2uoCGfFNUFLD1saZwUqWwtK/+LNUy79KILRRfcsmQ1UqYYgu93Xbfl+x4ugTrmsZPxiOzKZeMQZhn6xOf2LIoiEyh5YBgLxsHujZsJzv56SS3lfiIn8HgEJN/EbGBrSjWQw+rGP7IKMbAzWUCYEpASWEAH7/2nH1lP8MbZ+3dmswgh1gYvtTzEkyTucS80/X/zPk1cDumZ+W8brEMpPONd6vNKYG0xorp/tXLBwkNkQeO+84CCt+SfwqJHrjv7k9aZtrt6xBmvdBVqzgVFnfny2oTj4buYuRj/I4gJSXv+iONvuIEYOC1laQ4WQEyFdOPUp0wjIdMj9UvqluwrXKBdauPi9fDnjh7XnfhKFVx0TfKKmOHBX8dPUGscJhDtO9vWaWIxfonPKPf9epjxMe7auuxDReXFNIKgCvrtGfr5KiKu4GzguHs/s6IQOlA+I7Rlmh850LOIADr6v++q+oWbk/69Za8+cGip3Z1Zm5JBTZekslWzep+zT5DU33AU7dMirwk9DFppFRXOOe1RFSV/H6GPH3+pdujhDLAK7bUfJy6bwL0UTmVI6494s1JSi8KJq/+ELJ7pC9afW5oZqghOLRBFMcjXKGsFkFlP74N/aIIXLO2DKDavGzYHmJJYi+V1zvI6K0dfiBjJBAaeMWekf6i62koPx7zDXhp2iuYE2PzFw59MHIApazYD099DwOuCadlunHzlxFdUEEvwO4VAkvqSPJZebPkKASRP86HTwsbVYinNfuJOAK8uRo9q+Hjg4lCZQihQpuXXL2DjpMOaggAmBJbuFCSsk8KgY04RkQzXGozn73BRkS9u5DHBtiof9c/hGGkvKf821Nr7LmO7COoCICeeYGJ8bBPgPL6DCwMeUHP4zQjLzpPCK3JwuOZWeGJxUbrUozOkYqDnFzEmifZ9mOEAgAULnKuPertTduUeCmMItAu0IsFv/L3RfBY/hhZQxTTACyf3MbygT63dAnwJ+88iy8MLfV+iQdMolx5RyE0mftph5AEWpGqj//rhAJ+zpTc4avyz2I4Yr/Sx3I2Ie9Hb93/OrKunw/eKCYG1+F0X/7128uSjyMF5fZhLD+XdEK/EfoxrSrogrLGqhjmcheVe9wu3yobhFd1+ttxGiE7MHAQyC6BKrM/zLl/8z48jAevl4/N7VcUx1oAlaNHLfsLavxo9khStyAPYJr42uSXgjCajGwnPdjNThKAXw480BdWzaehWDznpauUdxLD7a0bZZxFfVVudpZyVBxEHkU1ZZpq/JTXH2QrZ6uZ2WUnNvvNABC6iGMYvyhB5RSKSAQOOuJr9/QN24+R2cy8dNPUEohy/nZ1GRj3VgmvwUSZNCeKCTm1/CCatbGONkvQZXByvhVXU2zX1j93axjenfoj5F7go5irpUIXGhJjvHIrjHaSFFId9ymCWQ5WABrxjJ7dqbHAKirU0CYKRjZ6ygCDIiAR8WTfzmViw8MTzOypI2RJAHeY9mjbomqgt48q7SHe0BqqmQscvUcpavDL0P3nBo9+vrxVr+NWE4Ao7JqazyU12quXbY6RsIP+P/Iamdt38qe1bns90xlUJWATIoK3hS5wF7KK6fzX9tDOBvtu8fWNveaOZ5DpNN/ly5s4UI4dSJPceNmQBEVMGwRtbbhSWkhje+r8NlZ8fos99GtsB1gdKcIN+vlGRpetHMGHKpNOVD0DyDZNAs2gA2l9o11H08zuRJifdh1RtnEDCOjbY1JPT6tq7e8+VRhFQ/lSBHJPgdqERiMuVMcY9JUUjiCKH7HJwvmTRHbP1XHaIuX2kcJPuyZuOMZnNaWMkj+4T+bfIyDwDONhF/5Z0bZ2S4pkK5xSFBnTOOuPwqew60uojbyMyO8D7TgmGnf0FpvLGOYRhgWwDi28xCY0KBVY4DA6Cm3sVjfNy27gxNx2drUD+ydx6DFVC+V6uvpKhbvOHzvb4M0+VFLLKbQikmTr729N3FD+0K+uMtMwGsT+AVlv4FDV2fzjtJXV7bzTUafehHr5tq+4AAEF5LEv6PNWymT0touL51HP88knYEZzhkpMlwvIxeiPcWxDAtwhWc8lnqEx73+z12Z8Djx3lm0iIfx1aLdLkIIP0S7HLXuq2toV+ahvMMBBqdtF3kDNpG9z44DNr8ax7qc6Lvp7EkDzYa4Ur8pacgVTgZaV4Qd1VUpntWTF7GKJlcUVLy3ll0iknReRClKW9yhxSWQimwZg02JgLmsMmhzdbc8ZGi2Z0YqP8XpHNf02zRJ80znpMVE/TcnFbwRmjrbuhYkmq91T5qyyo/8mPDc3/63s5MV0nkE6tY8xTWwIEmkD9uvc9laX/5zFLY1y6g/8rrS1kkfwf67HSnizH1oq2uIXdR6UhT/EqSP5A7yHVKCNp/D72yferLSAtAgKx+LNlHpDoAWBtz2MZDclDXXnnUItFzcOUrtBQQRyRd8K0Pny1frU2CjlWtx9Jl1Iate3go7ZgkV1yz5fqkNVVFUC1gcVXWr2+lPal8IQCU0+EfNeheI0iSPvBYBhLOFWyNna4HJ5oBfvI8eKwLa4WxhORcijfmSFKlgJzQ4Udr/AgBym7LIkKoajYf5HidO3gDMdcVJKD3wH0h4+uh1+G/iAmjSgjI0ZviHgTOSz2RbJaNlgROtGmCeHV4hSYYJR/Wb0tB6lrMreGhdo2XWTJ8tMzWJ9R5JEBvxtkmv8YPROrLqDAnNNZ6dooldpa1e6Bl8fPoO2pZNeUVc+nmpuWq+Hw4EplqJU1YRTZvno3j1FuN2d5ZMW9ZFG7ikTH1x6cc7VQm87s5zeCwDj3HcjbwngEfwxT80WRdN8/PG5J3nEooULh5T0m+wu3j/uxGdDkMexqOpb443vj8Z1rj/2IdOtdq6vArYkMwN0ZgWYiqeTzXSCzJ8WfrPUY9WQoqgBL+Xh/o3H6Km7e1UulgL7FEa27dSnuXcP6YssLc5Kyf0N96Ikfde1QPjuESrcrEfffy57huQX95XyM7PKTkFXcjSdM0eKvXJJIGwuviTNYcAkSJB6//XELVHYj4ftHZeYtbNzZO17IqcCGu2uXbk/L7RR3VpIn8hjci0kUcYT40eSIMW4tdjYbY7MoOb4b/tttqwt610MOkFGp9o/i3s+fftB04b7Twya6qpfhhd8VsYpiGZvw5XDssPuALyCOhdhbuxix02BVrZ7PUbvQEzPnqNlwnA+C96EgwWqcSo9eQBULNpemw/ExAksj9sBNSAcLBUH8YXuNR5RrldC9x1/qjxS0jd3CEac/bsgZQYShMwPkyb1pUKVVnLg1Uig2oG9j9ZJKZgRnotlQue/ZmcM8MVH7sQ6yDHJQ0ze32kLlJvuinIVQ0pIWDwGC9690HHXrpmR7rKbCnR6bx7ZYc0NDnt9kmTmd6dm/VCrypit/SHL9zSF0dBM6pECQFMsuqbB4BPr/vjt8eMX/SLyDxwdN/WLpJPrwSHcPMhBW65mZrCqYEawC6hKD001W78a+eIeU5iSk7qcgu+iI2DvH2gTHcFkqVMTFTwCB5zb0x26N8y4jzn/k9tcmaZNM4FM6CsCgP+5Tekx5igZk+PCTkfuFFlnCSzyLDyIGz1QX9X169QLxWZLs+5muPlQ1AT4BViL796XewdNaw8o9TACZU2fouuNXweSX5q29x69LKTPArdFXJuK5AhFh16ITjQbxb5zDzBg1fSTCSbOdqsAk3lodHbvnYHX2Zj18OWkmiS7usQ+YbCZ0fku+xMCyWFw1mqVv6LYpPZODnfosH5UfwTWJVoCYkiT2Yf988o6COwxzpyEQGLM2+mehrM3Awdp/0dwkbgH0yS4o75lVkWuAzSiJYBS1cgmeyuOffM0hAHDVmNMzaJwVcPq/xjc2vsjlzZATbfHmEMEaRD5jH43OedizhmrSP7wlBPpK9fnqj1eBZCFXsg48+R0SvMhJONi8CL1YLc6isZVafh3vmQ8eAE9SCykRiu7GdR3/OBarb8M2fAq/UpZe49U+fyLI18EVYeKLfFF5RpOSp3a5FtrKEvFqNXjEgPcvjtKeFV6P/giwsidEfKQcUqtyYOY/rbFZm+VixgTxAtTeDcd6dE27mDWeKWml+hq0kH2V4eR/BgwDCrtwDyow5qKY5keANZv2zYLtkt25Eunvg0yraX1bnmq6Hqf3HivUWvX3u8XZWN8me58gjWnZW1q7Kcbl3Jdt+xG4clJlMxJEPH1xQQMLl5YFwW2siZDCZuiXKLkP3NhrHRxT9zh/UzaXa+Lyn3o2bUnQ0vuKB0JeHmBv86e94KBlx0MAJLf/wOAAmnieLCuGBSc504pPDb804FZZMs0BMN0AVWczxowmlygIjFPJcok2wUUFhZeR3sO3LLDgFQsb7nSmFFdh5OmpRRAa21CBSOBE1VLr8UJL94lpMRrRNTGTVB2vjSkndfMUI5mijdYPFD+K6xquC2N8vRTcdIdPPLeyiTns0N10H0vbNMJK7B0AKKpzGvtdIovlkbv16NuN6iTNcBMMjwh+2LPGjuUYj2JMtjo2jBuzqgp2fLVcdUI+WP0C930zbHAAAA1Fo2zS6xd5ojDbzwaROYImTg7aO1EinSBKMvAt3+30tW9vFGYl8w2PfBri455TpIPlHsJhYzE7J+sxSR6bGQeUr+Mg4IN6aubC/xoed1ALNj/9Zi9UnMgk2VWZLwetshfZdHuKjTfEteMmzmNbjpgJN528dZbMqY6GBIa+JHDDU1d+/lp1WkEa23eL1Tt9QChPVjvPT5w07Pia41TdTOoRK+9sKCWeiqQNlZllrjCcfL7xH/siT56kbZSDUPN4jIwEZxkWA9b7vv0LkWjcltl2Bae9Orpjyx5H/G2Dvz2FbPujMqd3gvw3V3oPQuRXMfTF7vLuZ1d7yriUl4sYWMNhc0txNnFbfAfPvtPj9BB75A/vAqQfv2JCEMja/ioOhyczte4COmUnHnlq9RQXArXfJsTN0FYOWHfCd9vPS+AzWolAg0vVvcFrivUCzKVmXu3yPRFWgFCpWf9WXieDOC4PW6k+bag08kvL8NvO4P01y616lpq87h1g+Ow1BKKvSdKd72IFeT9j10i+fGkUFUXvMBxpGi5uSqvTADZEBmSbt7v7yW1bo+HPL8HC58l8kDUECjkaK8HUcpX0V7anqfyaUKTZ+VZXGp3qyrKUYt9QWdRyd4K1/Yijy5xG9dWe0c3iD/5SuFeeqej42wBp46bE/j28BpQgAzEU8O1p+1WEOMyesVScmvemKyFIoAKj3M3JIG++JXt08piQUGFtge7BVVwMdgjXprsxsDpq9WvsswaYl/cdqajid3oJt9YOACS8eVFvICvJswuCJBqri0fwANZn4R7T+1xjwRF3z1ZHqukaz6LfHtwXLXb9yE0yeqJT9wJkP3XRwpXtfBM8ZqrsGx/rVQ0d9mVksWuryn+1pB37H+i9EcZm37S7Rt9i32Xw/2ZAv38cqu7kHj8Bq6rLzysrdhyhOuCDjzO30pJ3vNE46D+nquu3zZxtTB7oFJkX7/RtEg04USu6I2zCedIb2DP2ajpYf3V9IMlblhNQZjwk1pFKfTAyEI0DDRrkqa+AKmywP3Q9KsAKdnnZucg6qXscpfxHFy6ASygdZGxtH28na61bxwLEDo3Wen0ea1rng3wWTFtpHnDIrdt59AGhw11Z80fQG142Eebi2AmHOblnTvwKLGekq2jOP9eLCjYnmq97Fn3x8BLaJ/ISS5MwgTHSlV2qUf6fcJZOr0+F/dQhBFt3qMFQIGBtFA7lkR6dri52Kul3cbN7u2MDZF9GUlq2/SF1vIAHlbWW9jQZa9jWy0163PqugfjmTH3S3y2fo71zth66K6OcT0PMsBwNiQfOg+ZD2RgUgCEvgm9sFsWe46lCjHNVknyipbJIqm1oTHQdoye/yU1uKiaXiw3dq1kONZkEEnup1DQ/3OTVwj0OrQ+hduAau+fBNPZR5m+HgHTn1u7U4sXpU10whsb3ugoHYcmCaS4OqAO0r2biQuhBYgUFXKi37XYMjzUPNFbmolgohA8dorivDDyeLa3c0XCpet2z2DsI5s2yoy0NxXCP1fnvZZ8jEsm+Ge3TPGROsd2N5V9he0FWaLW92TH6rBgoVBKEeLJdbYHy3ksf8XT5lyYqvfY3R+1f9Z2AmpLEZHScTpE2t1H4lDtP5A7eK6iPTptHWSjtDJ/yYPTaHdo3A6WOkVtB1G6ATEfZp7y4Y/+FoG0FYvAWfZKNVD9FabQ5OXMGg6DplBBrtPJlr2icD+x6V5v5i4SIydVR+6b/cQRnQfbo7U04G2e/gXenjUinf8g0UBedGW54mBhE6htlIygdJPzGAS3vptj737iGdlFsqiAaOBF6Punt68y87/TeuRmLeMNzSJAgW3I4zFM3PvcZQWzefeqBHQ7kV9XhtAJ5IKrTjHVJ2s3rBxB+JcbER+R91XwIhkD98IITgjNcoV75PefiRjSPdpkaJCbuN65RcfMJELfUIvREVm+m3vZkPuScwtzWU9dV2sfgGjz32sez2oXGRdZGJEH257QONydCx66EresecdbzyRFD6QeN56la8/Sc0C8EJJ3LYYEpZ7o36EiDeyq3KW/AxeGG3avAakQ1uCzr1zjpUmp+G2ZDbf5fzAEIHb1S0BqCk5D5c1+/Mz8PdexE8ev6cqjRmJkrmhqnidCRex4WsBdS/1xUZV9bxadckpTG0yqL2dlhqRI24wATR0bELlfhOJNi38QYFdX0a6nP+AIzKGdNuAQgj3QosbsOrhMTTnrIFwTSjVgJNG6RjNqD5mUUYaYOEIt41H2Xd+jJSWSjCkmGUvpgT/88gZ8OFYZoDYREWHtglwfCtBaWTFMcUVDMUNOWyoqSt4OL+Xl7K2606Kec9HPBTSwrsm0TNDhKb9eADganx5kuc6mYT1g45UZrINbUq2gZ5YZVf0BJuWSLWhbQ687s37txtwPoAACpbqQwRaj7BGoFMvmi1sBF0HSyjIkyIMHKYLOkq3FxdQ5sXgWY8/cpZm29oQSz4Jiusn3NFHEp5xcpAcDsi13LNoY5UWwnWdvBUC7n1+pZX2uCwsOwc70ml6Bd3NMBEiDhTyyQfI36YhtnTaeAdv/magnfedA530K0t9wirY00SDfYmJTiDCr06qcUcSq71cyuu7SRyQHm2p9aEqJEtCtV9xijZ9NC2B/ogZwuNu5Rs6N+zoDU2ftHXWVuqKRf1Ju3vrxPKzGjmtnpjzeO6FRfid+RUwpzFF6wxEtKJvKj5Y8Wr3q01DFggDHiA3Ws6et7w1EyF8OoIx9m/HgSMhapqSM+FZDcemZKBBjf5uWxRgXWGujP2RhLa2DvnhMsNMnrtcl5xVlHCJz/PH6QMDPrwcCTC7+d0c6ac9KHrMGircGMPMlOJ8O3WGsGE47ZQ5rpcpy0F/D5eVz/yPo6U1GzauEdCsleCa7wAauweadRnHz59mmE+8SPHcvx3lG27qQtx9smJMueN+3l2HvX74wnob1lAE10Tj4699Lat8iP2VSkEI1856mS6TTdxLq1tnwk70kGK+n1pgnDw0dTxUcQ4LqyCmAatvBkj6M5BIAUmD19LnE5DppamQ2logfsUTVUwMX5asJ6HCTRYMq7pk42nPbELlFAjtO3znzLq7NYi7NTjOQlJ6J7WSK6ot543cHC8hI+kws5M/G64Tbgx6YOyh8jlikwIVjFaPo++vBDG7qOoTd1mrXN/u8pGE8k2DS1UzcCoHM6IduEPQoc1s2h8FxUorG8ejbSicwXZzoC8R+OLY6AMA5qNYG3dPWunkIVTbyCTlkCC2sAypd7NlzAtihCkePqP90ofmbmdDW7r6V1+jg6zILnLfg5VTBd4UIIHV1KNDct82YfaAo5qZdHgYMs7DSz9EWqMR7Rbksy5vJpWYXD1DzQSufx0uYH6A4FLlZHGI6VZc94/nbKTgecISXjEuo3gT1zSIEEUzhHEZ/bsBuaGK1Z46wS2X+ivrZEwIGAobcn2PSEJC0pIRCLcgUoP5puT1AF0InN4EErw/7ULwzx3t9of/d0VyiS7VptoreO77XpKvDh5Q5y51/80BQMBrIrgYSHLIlBKwXohOmum3s6hteYfVLXShN63P/SM42sSnyQuWJRWBwqpaoQH9nfvBLYeOvfiFIy9fjEvKbGbHPIxMdTRRJqjhl70sEP0iud6FElq4u/+3I7XjA7Yy+GcdDLgbgNqsEeKHFWukpkwzGK97W8ydBBWJSZD+FGKagt7FyHQMnaclAKeRof6+uGbKOE5A+gTN0ndmlIChO12e3dwUkoSaCymE8vLPjumh//hQ8TgFhN5w2ZqgePV2dAX/sb2CFGYfV/MMXWpHQSB/DXe4OgE1dgV4qLgwll3/becdcNFkocWhkeRQgRuQan+O5egCL9wpWulkMCTKVsehHzbLHAiDCsdLSTOvEvr8uuYz8Uz1+hL1YpGTV7aZ2wo9dxWNYTYANWGDocGr90r8v12BHTfQLDHjhAtHJz3k1cuuUh+kl5p6pBfbNerF/+j+pAwgMVq8ts7Oh/PnGSXeFQXuJWSwu2EfsHdmX+a70POAnYYu/ri/dyt8HZH4PWq+yIBsQOVWsAst/Of0SNMXhukUa9q7w/MSwatsUD5gMQ9MUsAww9rj/Jv5YpZJsrvzUDM/+08nwx3biHMC7mmv/POkVE0xUFVP4zBvR8IfvPtog/+JsjvE7m1TfFWtduyZ1LfHh81ivgMMazZqcGEqxV21z70/zTP6VaVN4M7pVVlMwJ57UFLMuJd26FAlsEf9vJ94WIawaBk/QZHh6svcROTKmM3FmUaYnZ4Cb0gxMGjv+lavrZ+y4PwfWzAnp5YbMbb9EBUy3Myv2m89gEqooDLQuQICR+0DG6hY3Fdyu2DjQ02e2DAfJi+0xSpZ/ENLKeCHNpyvrevI8onrHK6ioS0fkHAZPwyUQHsHDJERHD06QTBswG/Qzq92ofCUTbsDmqGtBrpy+odm9K9UmOqxkFMdfnwT2BgVvkeMpwnv98J1xz3HushdhUTigBDN5bSUxIBcxvSbOlSGZJ3OsmW4p1h2l7U43Q0VKkCm19pYDq7ZHGspMqn32be1yeBRKMv8OJ+gvlpe57PmrGMPl45Uxct06kGd+ncpPVqMKybbGabSpw4wTYWIqZ0BtIa3L/80OA8PW30w5Ik3WP4r6iTXecd5LR3Dh/BHg67agw7uiTzPjH3ZIRkdxhWxWhSq3Lf/RaCh7WkgYkm09c71taaS2UwxbeMawdV1QhNU/svWMDiSUR+patWXRW8fsQvJcA7KSQNkoz8wihM/5CsErOoG9kJ/r6yFwkoioK9+i1d2M/7Ut4C2l8h692LILF+EEYPC3aFHnAv9C6finStG5C5OFxpvEbQnB/VoPLeKA8FNCRHIt8SOcjYaa0rlnLjVSfBzvUGS2VBSKJsG/kWjONqg8aTD+H/+he0N8d5j9lzLaBZxJb/BRse8Nv/cu7vHiZhJnNKlotlgfx90q2H0GyBEKj+wruApihgEpfBYOVYDm/30oGbRKyc/KmVvw/eE2nisNVxG+zT1AIiVWfrgGsFwlk/mBZzBY+YpbNH3vpxCHKEGjDzj6ZiAfn+05AE7PR9iRWPVn6SOnamSC8ye3sqr8w32cxMOtggRguiD+J/TXMs+33suteyP1YvpOrUBAqCMLmELShid/pcqV8O3WU57/K6v0jSHd0ciXtfs+INe/SbXLu0e6omOkwsJ8WLtvPnzGQDS3xK1RUUfddi4bsyJu2QrFOzO+/55wifKnOz6W6HIpfU5eUcc7upiI7isCJW+i+dB2FjYkFDEUj1SbzZTFtVyMwn6dQoxbin8yrwdBAJAmpylUEE+NbWSpJacw5Ep4Dgv6iHRRycmatsh1+BQROWse3UkU0+9C1GazakLIa3BbtUdYBC0m/1Mcaj1srRXizQXEd80xgMdMx7Mz/wW+/WQqO99lX12sl37UDgZkdYw4FADYpXA/pTQ9L0bS8HOxfUVTZeHSKwV3lhLwV3XiYAWmAAAGUGtt7KxRsYOUeB811MyMH5Q478n8SsEkgCBAIzC3BoQPtc/oaOWJU70O8napEY1IOeptPhvEUBjfCkxbS30o750BBztv0O39Sr6tgss5wBejQkkCiWOSuwyVRVdDj0N/YcIInde+ctL4FU9ltP/0cc0q3mMxtHmyZYwA8/xDzoGuHVNM9SpD5nq7347CS/9RP4M9pNG2eDDMRNIPAqXUJfabEkxVQc7nteUk89myk28/j+LT7p1mdK9fdHNmxXBCFq/+0EADKRimUB4WQ1kUj+sG88ZaPMijNEFuxTSVUR7RKTapJpkmhucupVr1wpLfgK0CO200JP8I/lueR3dIU35v1nRcVt4PNiay6c4ZCIUr6dah0DHSRnRJsAvgPY+rGl4k3OVo5W7vtF+8Wvp0AEPBpJS4eqlKTNHUSw/EKGMmEEXeXqO2dHvdE9pTzJydgduL0X8vdayCgYygnfP2m4P6t0WEFPev+0z3iQB601xyWCjnjV2V3l6ja2qgbtjRPq2UaavlIGr98lPVl6YcGuCec/xFbePPqmvPrTyubthc4FeFV68Eefq/uo+PREPEYJX6P/ZL9MVrfTXEspTdEuXKxhoV/f4Wy2pIHPLA6it1ohEmkBEUi1pAQGI0PZCiNQgecx0B1MXPOobnG8NE1Yx03tK52AO/xJ8vYBcFAUOkBKRLfdhY62IyAZmEID7eDYYrO/Ko58p/00KLoSeK5saMCCrOsqz5+RzEUpb4h5rEDyPhB+IP0+7piJyX91QHls3xfZjvZyIUQnG4eLuqOPZeOo+MGR7UPI03xFib7H2/yeb8CNhfnilBdRFW9P6W1tkqpGBJ61kMq2vIqWBHVGS5Gzo0pb5uPQQvL+6W+0be/oGNIHTTbqCHMTgUEJgrJLqtYjzu9hlkEgWjb+d0d8MfXkDK1jU7aHR5Fr17Rm2GNpg/fnnupt8rdS3n6I1+8vZSZd1QI7Mzt8VtTP6ty1wSj/acOB4JciEJb0tbXAeoEPB5lZ0/L96+KTI4qJjomUyBnbEIo9Uy6Q2QIr6KqVXy04yUVNTVQqp+iIybYiyQBeN8NXs6DJJ6xDGt+9OkIh4q5TxEOL0rsnqADbA5IJ4+POxMkh4D9FyW/cc2lUv/+8fYC7YypCJ3aIMOuj9+YxJ/o4s08wARlXRPI+Wk+VX1hs8bq9++RQSe7EFa0XIJ5I+7UKzcEcGNhBnvKTdCr3wr17RqD9F33La7bw+4jHEhW6Gghds+qO+1AQFJmn4nZKNj5ZF4h27Gk/QgRLzm0kg6S9C3kuWkmgvRH8bGHLPiamA/s3UvUYmfNfz9tw8gL03JKrpHgZX+hZ4waiSG3LFkK5NZIeuQBScdB96XfVp0O3JftHTDnT3V74mwl206tslDpT1h3PrQxHIHjWPOq8RS+QK6dr65ZD2PZLv4mg4fQ22TVpJKvyow4qaijCn51gTCx0c3qK9GGBOA/EZtseLYYGMrVysWODSkGFC9bwQNDyDBlQub4Xo5DmhCLW3Y9C1ah2e53RkX7pPBIRYJVDDqkaNruxhAG1xVX7+FL4zsWfzmxBIcpRvRia29bZV6oDrxD5MGepVeB8QeaYna9ey2dzVCkneJjvSJgUu52huu6EF/5oQ9xLjdS5BzbjNJeR7V9HcbkwpGzZpNThnnRokPG10mBK55/ybnBaJ0Uy0Sbg+oF6MGwj0HO4aQLUMFSTodlRj882VyUxi4M6mrTKo86u0z+FLujVSQNLUjGmPmDd98GWjyMWp5SHS55fBJQL4p1jDI5JiLujUkIrGN9sjpoNGiM+FrRvgmRiB4yMBeqYi8l9ttJuzrXoEV44gBQ9gAsX0Dousb1BWRnpFAZ0d8rHoYKqMLSsmr76mR7Zgs2asMO5oo+fzZZ7rKtfxVwU8ApNZRXRv36VI92LzRof4bygfBYaR5wUt5fLoy2FCEj5l1s1dnl3QvSqgOPk1nmoYfO+Z5j1oykEFaFQLPFr7Lo3efmZUqMLNhVRXZOo4uPqBXWaf5iIuIIVoj7jBW6n/A7dh8quVa5EuntL82N5tqgzoodQAx0D+3gA2b6lxrDZfazAAAfWFmCEAagOQ49tWdP0axKBkFVqd2Byq8zqIespF6nRvFGH/hFJw9x3m3i/hraVUh8HYzKt/KKLAf9R/rePOOHrYbA0WKovJDlr73wEgY5j5X88xOjN+1Le/5jDMXsi53P4IN6ad/2xeqm07WgRFOeAzB9RVXrMcPD/r4d+k0NFFIQJyBhfEK2udONP5LApfoFx5+Y2mKTMF8fTT/TMLyfy3MuOWCTLBtTi43KfFADhH1n2/0AxNOe9U/EDp7aZCQSc3ZaXuCj7jDYvS526zvqKrfVZ/CZbulMPxSrr61Rm/zGIFE52NDbBl2/y2+5KcfNvcnY8Nlwg84g7OLKMfsnFCWM6aXn//wADPksw7ufSMRQKNYHhZYQcznFH0E5frN9e3s77v5z0aEM2l3d+NvGg9VT9evBbvnCHLFHoMFb3InovcqD7TomFQ5AuvTGz4st/pAZS6eSgEvY2ZFVM80+5e40wC48jZsFO5Ab/OScxp40ZkIuTui/5N+rcDl/zMzXuncU3u6STRsTpK9jk8SB8Oe83o/w8KfrT02gH1mC4wouHp6MsuAMZk3GRq9exzeuhzFTrVBG0HT5DxcEIIshh/0feobN1d9Q2y77YdeZl8QyGcmQy+TUiHnwi2d+Q4cQJJjRQl7N58tznptKC3FNjMg8LbSX+PVdr5Dh5vOZOLiqqtJUsuPXWCIQs7ag0Ft+r2KIo4m7rqrbaunjLKqZszlo4ozAFqcOYZjlyl/E+78YU0uTSulTutMBpliWfhrq8KrYmLIDGXM9QMxl1kBD0HT0pGrZHAk//jOGjd9gcH0HdeENZmJcsm9C11nY3UK5t7SReejfWZ/18qWfkV9dKNMpNbAGcnk/iBDk+lsinZoLpIYMzKXTrJbEetswYO6wKqU0o0PwskVCuNEMCMjMezkWNRM3BAR1EIUJagonCoV4ngIeHteXR4vw9SbuG3jJD3IU28e4QNcanAj/9yP40TJ+Rfk5Vn9QbGGdh988WKmXZKMeLn7rCfa6ghZIrlWpDoIRzEmeGu4ET/dDPNfFs5w7KZLAg8KLiP1xyPrjcYDTRLJf3jxICVKZsgQBx4MphAfdWcENsFiDU/NGvOH0yPN13ApuvgVCwEn2PIap+SigaM0shMkeLuBUXGavx2HCzhp+21ZGf/SDL0/VXVTEc5ZahJCM2wxV+Os5EbOpDEfBich4fsHhwVA897NXgy4OfO+wyflXbXPZManXdyd5IWDTNlsJR1BSbj+OHhEyyQp6DzNtUDCj4Mz73DxjCheYB6FohhNaJO0Z5jOtmzupffNfURGMV/RUvUz7EKzCHQHTBw/DE7Z1HTJke53NBJXDNhBpp80Wbk6IUyW1B2L47WgQn/4ZjJpij+BcAq6tg5JnFUvEsIy1oowUY/8bihCoJn2UoZPcJr2gmeirjC+oQvRZKUvgFNq3tNJ+tq4lgG6nnru+0yarrqgeJiSz5ekDOSvhxtdhE38SMGonz0Itk5aDGGGHlE7SxZdY7MSd7OvK7603KRiWXuSbgGzmcq1dw+q392v+zFHvaE7RpxoI7Q9Je6N+DQy8fxjumjArErJb3FMF6ju2wmO+Y4usj91LCR8nHM8UQnNW4p9nbMehkV5CKsPXY+xeROqcywqa5JQfBzBG7tfhGtMczM6+ntMhiHmr7ZIwOtlPVQWH6aFD0uJZicem/0wy1HoD+cb101/2/DLTvuF5Tr7mYRCMQO6trOUoRQR5nye2i78VROqBMX7Vl/Adlp9HE3Bk/U5gmFnwzmW8jJyauQXMqHnL3RtJ7sP22ISY5UcM9+y0SBjNl60NkPW3E1rKHREC/m3lIDorZFbftDH4Q6u44eeCgkQ+b4e7/964aqnuAAnZUbc9Ix/th4xCqmGWSpWOerReDvfybWHxph81E7BvQyNmQ55g+YAqgx9fLyYTIDSBMh5/G/eLyeJGtR9zgdG+gV6FQM1D0gi8H11CWtcRRyAobgfEbFcpHSxl1UVyXY2fjTzhikK8EvJd2gOaNfJGBftMQBbEh2oBdmXKaPDi85334g9nA8pYXosBgIi4wJZiaj5SFZs7nmJ6tZNh3TNbcZv5fgkaMgRFbtPx2fycznP5kBsT4tGGItCvyNLlpOqfHg2zcH10524AcZimLlgtVqdoOo1Js5miiioCQNW5k/ukCUldrzSeUkzZfpPx+Z50vtsG+FT8f0WOj4LWy9KnDVzECVhiE9HEubwLuxHaTO2TE1BSS9tpDJX0nHP2nDq3xqdZtH/gPSWV3V14lhVbV4B5U+kNcT01iXLAh6IedEKEQp7dWPe5CDA9LaFz/D2P6eSpSUM/P6x8V/CDqjEQi8/niFyMdCq2EojR9IBRtHmTePdQ5QPgAAGIlojrhMoS/g8ZQ5FSKL9KK4WP+cu34h4TZlLB/VxuSywl/wETiDZnu8JlKNsgf3ISHE4Xch6OBSG4ThrNPztbykU3OadOQy2qcm0kelPg/hGtjfIAFY1zg8KiSY0dX4mY0w3MqmnAIF9QFsgEETVkPHo32gHrcwjRL4SIWvdewGwteay1Mkakpje7azftkvviW1FaUAHQQD2u5sSm0QeP9Be1aY5/y2KcbdZ2x9U4oYmdlWa4hKLtvdNms3THMd4q9D/xVX5wQyp00OrjOv1K97SQrGvSh5VM/SEp3MafRF5Ol1M9PLRci1VfRGYDjKcngc4g2aYtdaR2a3xqJkQ6E8WVIJa3De9MRS7tcYWVQtqPuUgQw9YOEF1bMS8R+S8DwoJ0blmCMTRhI2NDJQlB1xp9ttKoHJ6JW1QPKngLXR+Oob3d7HXST9qMTpWtI0Ys7zRHcrb8d11hNBo7GAn/ciEtvSTVWx5NT8swzfakFZezKdY+9nhZBEDmyptAO3fl9ZytpnKs3PvHj+KgyrFfSOKmRp9cJzfp5PJB24hssV0ma3tjRJHORbSrmjqsDBCWTW0QDQZj9ioHJeePYA4LL0zAy26LY3pAcCB/kmY2xdkGTyjfnJGTFRSZFOJXGy4GFd0J435SmhjgcAR+qiwfaTc7gpLF/dxUuugwl29sfsm8vg1sfilV6iKkdwwGrgZkgLUbIguwcbeUPZVUR9DPWpo1MmHzW0tzDDs9csTiLH0qK9DLdH1YP/XxHeIg43PPD7pcJaKtXoVPWU+2J+d4s3CgZVgPodN46Xw7qds51iLY+2ybxySnJXttZRIVDn6I2/HuVVjj0xG1OA4ZXGTrH3tXd67/TSuAO5JoEaFeQiEn76MCs/Y6aHaZnVatf9d+9PXG2x2LZtcpWyli5PY71NGK9eBwTcvgc6Nkek7hSjnjTzs2Rdw3ySPo2UcYPO/Bm4YJfmdI3u6IGHaZWcORO+SJjEaN/zD5OTsFzAO0YGtZRhM631XyXlrSwqqQjzIHIaNQGlpWpe7oncvewtev3yrqzbmre8obua7Uj4bQDkA5FrlHPJT5ylfyhcfCujhfYtJ/QBVOS/7W+IRF6FLSiQhGW5bcNcKb55S2mcfoDQ3QdaezRTmFd+HQF0CC+ATJZ0ZFFFzxxUT8JqGD5pSg67hjIrppRmHlGUDtsBFAlc02t/5CTkhaqMTnqlsqvpzFXYFhLNbLAwm3xLey9Nb+j2zPgpL0/ke0DScxQHp/GZsGccOIm1ZBaGMCdRSGP/B+E8tXl04E1rLPcVpc7GdUXLSS+QBiU2N4DCO28fcQhKi3Uhqhf0u+dksEhtkr7o3yWmM0ETCXc2xo/pTGH5arAcIH4AdKD84sm+jFJpKuv8qh5RR5MntD1nlXx7mdqdD4EtvY5z3yNAbHJtondSWnMRsYcNEYmg379yX8sTJ5TMx8Vi0G0jLZE7+KQA9F65YzvH7rm4x7q6Cau/Wu6h5vI/nTJlYDAmS5td9/gJe+PFVCxvbHtNMM2hdjFHcU8+8pBepCeelbUPs2AZrQ29cyGuvXaY0w5wBklu+4eAyyhpZo0kBRzTkYXaAj263RWzgeLrAHC4TvdbxnVBEOTdiF4PDtMLA4qdzhMbAzeSYAsXGTwpwLZnjB+cn1GjlVep/Nr9HUpKr/+XYYiosJcqPfjxQXJ+tncUZpyJE9jNaJopFg6lQ14kPuxNYFziV493zN3eIiGdyziM/+gAAUXRT8NBAfRQl2xHQKCCj7zmVVmxzgxriwo5J03Ti0czO/5khR6PLOXXuNu3ro+2hEPb7jg7rR6QQxo88OTpSwfblN+6GlT3QThCGWcY8szVIu/DSgtb5YkERB+1BVX1NbKs5czCciO3HXH1BDWA+oaKk9nfYssK8eiseacC8l1K6rK4+9wIyYlSsm9Ydjn/7edzsPLZKQmGcteNm4zB7SngLq8+evqAcf2+TxA8qwRKBPsWvm8TVDpHg2VilPE41ZqiHAEGwK5Z53uMbIinMNZS1pWhPZFKFErQStmEtRszWjzyDSgfUEN298IoGokaF6Y4Z830Bl5iflC8+OSbPWOFoLT3TWy+QXr2jEWWT7AaBAsAKPqG9D1pax4LB+qYss9UB0OAnot2rMD9L0PcsJcxvvGtWjS1JCPCPXNnVRjdH6BzcwT0h2/xFGSrXh4TlnLJvdw5acz/XxTIPASDhgd85qc+ms6Uohml+9AyQVabYJiOFcEU684Sd83cpqOdbR5gSxFxW1x2CbWrSLMtFkkBGmy7js+hD2qtrBR4MvgTtFtXKFAN5CXKwn6S1pXdvFh0ow+rifsQFEysDD+OeO5CsSDDQH3IeU6XLZq/7JMZ8j9EvIzsZfNg85lmy781hjlclFypgxd/cbEqLVX8O2phZA7GtpCQ2dntzRrtOeTUjMojO5Ujj6fdtvhpnyX+3Y9/pCoAQ2RWdPyB1T1cMpgOEw3Uk2Zy+mxGUhJ+B+u6pWYo+PTl+ObUM8ktE4n77Lm2OlavLGpz8uSVhDSw91YrdM6JeO5jLmMKu/PDRUdyQqZmDovSUrERxUKp/VzFzYAHeeIZ6XVQJpWCFyipZkQJJPAvYex04ycnaKv3ZWFDDYPJVYyIEu4l1iopELK6lN3qPaILTJMxMUBOkCVpR7ZsVytPvAgRPwDy9so8cj7JaAkYBdvkGxknJNgJ4FIMZ+LI9wQml5Z2wNupFoUBn1vz+8X/2IXx1h1focOakRsyGvTnYBND2R93jNQDng1rdpWfD7hILqSuCnubmI05MxBYMCBQkWko70ylXk/w4Iw1rMBhAWip+ZAOl9E3wfMjAZaZMFh2vpVU6V93n+WLbXnLfgvWS/6DmbhI0Pviw3PZcmqAF48tl30TX5wG1t4t8w5BmrQqKk7dovJiE0LFRj0bSUfMZyYWjuWUy8YrrCfRLmXKNNaRaizW7iFk+3DRNhlMBuEPa3WumywbQEgAGQZZICROgkaSW5njFudNnPn6kQ/gH/et7+J9GWygyUKn7mP19l+0OjWwBiM3odWLxqAao54hs4SUtYuhyajZ1v2wVH9XdwKqcrnIBszdxKYx262hmMO2SofJ3zkFLxR/8wAAA4auf+Nwv+Q6zfqPWZ7Np0jrMSrPMc4fYrlRdU7EGv2Jd11DaPzm+Oo/vy1x1duufbi/RzKZKkuMUU1Wn/US9peHukLErLtFgvdIf3wVmXBXPeUhYhSwHDD3wj6C6VfTLmQKJaNNXI9pIyOILhOHuNfqwQLa0o9W0e70UbpHheSIEYoMqVZgoXsHdXErUZNIoAZoMPNyyuei22tUcsFgGtEIQvQIMS1db8XNCZAlhn9yUA1KiEbYxY0t6WKIdm+3e1d1AgX2D1rKfSY8+OLsTRkkktwN6QDgDEOpsi+1AYdQ2Pd1+D7aVjpCQSdHZr9x+hvBR4kA8Wunr7TpT4Wavmgo5uMiBRP+L72jO3uspUxiSqRG1RFGjo/5U4eLmx59IR3uLHrAC5qgGkDUZS6reA9NsfBCo5TqPJ8NEMZ+icefCV4+Z9CjZBb77uViq7hxv5hfeuWdkWKzrU7BnyMotpYaO0FEXT7VWF6Y4XBTX0xqG2ixkViq5cJKxZtC8a/q1NSM6B7dIni9ZU6rbEKd4HzcXpR1pn1rottKBIk8IjY2TJr8V1JrE2mfzh8gUbEVFF8E9a2ca5KrWZvrzx5pw3DumVqexzlvpqP2/lVRDt4VfYn2NG1b3M7cKe5ZGRlra4hXT8hNBvLaWAPiVun5Vq3jcn8asb38qBFglsh748Azd+z/hkowugzcLez0ZjNrYGrKwkCUFyD+RArZ+EBvNUSp46sEGebQWhd6LhH9WLbqkbkIC29CGhRhAV5xjPPJfTlIpzQbwRWRRFgrxpzm0F8T9KpDymfW8pR5f16e7rrrCtiuaETMazh4mDOKcaA/dE5FXgXfnF7oHtSN6+ncZm6gJ4QzoSF8odIpplDWmbYY3csq5ZhdVKiBRqKBm/XKlCtePkmZ9Q2FktMMC/5766OGeNE9RANm7IHTL+qq0SyXywRrKd5ZmcNWtXjcgpgPG1W72kRFgIeRw3D3FGPFyra5YBkKtZsaArPH5OzOuu6qN/x3vRm5Mh65t6zxcohKAer+NbFhrfNh2SCJpP+fl0+tRvRyC/4/gAXxD1jkePvReOZkVLB0QjJu9PQONqOu/bHz9lGcw3xnzNPcuw4cx8Jzk+FuGEXR+Q+nDjfU5ef8zYWSlJQisOJpVYLDS8GGo7Q1Gn4Cyq/EbZoAXaizn/TaIGBde5CKVkC9cuqlDppkIBiXehP+UipmMW++4nkoAAA1DbXeWv/ICCvYl8FGlodUXfBC4pHFhxAfIHz0DoQ1mwE4gWCB6S/oNrD+2vqyjXfUd2fpvU15gwVygmeW9HUgYCRD0ZXpuMcoUyC2Y+CmQiqLfCEqjSbiu6IZZqZ7qaZ/JvGq5ul0DPOWcpKHdwh0kmDI5owExlZq4FzOj9Q7UxeyEZ8Df1wIuPKSHIc4Bdrbdtcb/97u2d7g5z3FtpWeNumm7so+p62THK36rRXBjFnL2n8FmioiOiW8IV8HumU2cnFSXJOZc0NmIUSxjhs5hhR3Qym9pP5aLUiXQmYEYaqyadwNl1MXRHkOHAK+98sZIPAjQnCmzUQyn/A8xa6CkpdK7T1L1f3G0N98NEXeAlkHD10EIqIPlO+khmOK6zTX1Mtv3Ow1Wy3nrMnyKyBrhG/8bASKXhfRNuY4jDhWR0Pxf3qvB1WmzfymWj3937LGb2+pVV8JO5I/4fRaO2MSnv25Q1eE1+/r0NOsdEkTBkZ0FHoO4KnpekP8ZZyyPleMDB/rc+lor5lTzDxM3b7naldZ/S7QJqAdzi5qgF4j/WbTQ1mYzFI+14YekLeOXKh0krJ3y36BC1ZW0hhaCMVdAYUGq/6ZOfMrS7z508JiZWSwrqkriHdmwheYY9hX7ZYO+vT/xEB9jxp763eImgtj46nqoF9XksJBDsSE/S2TxEjvp8i2JfwQKvsY0BYAA3O0X08Rb6woIIcYGz2SDY7IxaexqQgTqVizh2y5vHvqayF+FJ+I4KxShp79ajNdYAo/K9mPl7tDHIFdF4QUUGBk/viFdZWJXdOdDRA5eCE+jlwezR8sJpbKlT84TlNClVAO+en09aHbE7s7ORLjRJGcjI0yRlGE2OuIAjbHlcIClkkJ12tOoE3fKYhjKUdMnWeswQ1imK9al2Hb8IL4Ec5o3buVkov/VFDsknfcTauUZa/t8yv0iG5v56kl1bC81XEksbguWgZhMgto2QKxUBDR5q/WOuNf1gLDMtIsE9GhYGM8gAxBEVxGrAQGbA7t/JJNnEq+7r9RNEi/bheMFQowDpAxHk2tJlPauzSlRYxo/gYonjLJPp186Xbq6lelUtjf3IY4TmqJK0earEXVcQba12q1bFlzef+1x/+gaS6jELDczgNTT3pHN+6I5TJSg7NuAyS3I0yFU8+yIVL5+ujVyEDIPpKRscId2b0T6RGfUAAAGycZpe48/2ebd74Ia7+6xpAg66IosAzlRx7pxWWHYiSKgwHV+THaGoL90b2+JF38oIaiLeDoEXvwCvLKSgDNT8rvE4u4miUAzmfXzF/1/31Z+YdmYfrWRQUTcCFJwf457I9XUFJR+LZyI1tR7k4+Xi1ZSWvuE3u/+0RyoDafF1SQK59zfeWeBzNq5J3DgBw7F5+p6ajo6rCmM7T+FCapa15847BOBVfUdLFa0lycAHhs5LXpdSZGUriGJSoyvlLnJWaUdza5a+eVzUkZm4GbxpdkoYPk48uhG44myHSvUUu2/tqK3E96CEcwUPpK/PzDJfNEMDY2X13JsKLbpew80J1THHv35ZYEIzwsMzZXOgXRMtjwwdz3ptU0nYi7did0s26OCJOuzcU5Dr6H6IWwEooo+UZBuDjvC/CMY2hWOfOEl8uwcrIsTjAl3FXEmQ4wEeDW9KBPAHOEhGW2xsSUc8hjievbGXpZnGjkgN66kvbRKB8FUhIWNiL2dsMF7KD0HLCUwA7DObsR1jM5CkAAAxViA/+3BpvhHs/6mWgLyfCWGhn1zkOVGGR7HAF+p94wkTYZpwxoVXiZawgrDW/uZZ9moOwBbqD++S2JWtCWrSaa9meYDcEYuRaOj8AvqFD3c3CDfzj1PH+WpwHrRFzdGnevBB3VsQ7MzcSUEURCMRi0t31VRxjyZErWQwHkiCuUWCCaR/T2T2TkAAEi8VlWTYgfXV6vU2uQvsA9BZfd4tIsaTJ6fH1cNYalexfRlttn1P6nbcFpwmmyETYJkL788sAM/hQPVxnoCH8mP/hr/F8bQ3YUnfergefOPYhTBkh5aLslfbQPVpyLGagADDh9QNWTI78nquNyH6MXZ2Iy+LOOxyM+JnAUg/aPPN/BsXgWBgkGGojdd93TEUXuNM7syWkG1F/ivyQBYAPGfBBDFEgJpLzpcb4n2Ebrsp+Cwj99nKLKYYO/5uXVmmdn7LATSL2ZAivCY0A5bF0m6UdCa9KlKJnMQ6aIzoaNqr9iy/RsSK/EInwk6n6gNqN1eWXtWjpcQ7hgOZg5dcs0cpzjky6N1jEloarsOERHiWIy646xvKdpQdOAtE3hwx8p4Zp/TrQE5l/on1oUzFGZ+katyu3J1QDIXF6lhfJLm8g8Aft8wcZ6t8Y0TNZbGvj6L8OG6rCHXqLd9L4C3x4ZAW7ZWSeiXcWrZRcTyhkoLXxeJspWE/2pfqGIDpXeq/n7m7FXBHkY7twkpawl6TcXW3FIWskKEuL0T4H31Fx72PyjcuyYrW7dDQBrHTVntk9TdHgxtWq5G9Uc3fdygoIEOus+SdiCJlAAAAQD47AAAArLLfD8F5TU/O5sxir7TS2Npw0QJoJcYTwohs09NN8lvHHU4ydQtaEHf4x0e/JAQgs//PFR73QWbm3d+Rq5jm+yvQEnFj8YI1n+ulKXyIdh08GOugJobYuQOcpm8uqmDElTEJtPvbngJVUioUB1ESbWHhdxW3x6NWjdizXo/ApNk6P43OspypzF7aMaqNS3+xsccv25LtGraj6/Bx+27e+xZHNVqlD4gPDT7fyuAuvLFLawBL2YLA6KRWGGHD3aihfrZF2AxIywy2UYaiur9CDboatsu36uHyXKlkd9ACCAAPhbH8XbJwufzZOX+tmVRZgnaSf6nVuF7HmmsABcui3EeIy1FZqprXkDOmOpQQf6p5QTx/0KKVAIgctmS45FSlYTaViCh+/q2tQVHra71kgVkJyIA7bEpwfyx9MOfyNSzX85i6uG4FgxW+La9YdMdJsfJO154sezzqmpgS6wij+WTTCHm/m3L0ktF/VWdDNEatqNV3CPfzUHwUJ1ZmS+hYvX4750IqZR4ZvHr3rDqeWk7ocRrDRMqM4fg+VAAAAAACmijEi+BdzsX+XR1vyWG4OOiwACk0HWKmn1OMlIV89hDpqqvbjcHWwBOCVYUTqvGVpX/IKxxH3xLkf5w54DpCXGiZIKwkOWdNCcr4ghccrgDSPViqjJDmBjF0jWZNKR4Vhr8GnK9RhrxjVLpv7dqJ0sTu7hYIT3xNUxVxFWpkUC9mSlWcWDQ3xguX4XLgcCHLq8/S0BE8MDztr/MAGj/NyldVUBSN79A4l9s0eP/PDRY4Gp1oKCLOvjkNvgLyxeuziwROoFj71c9xNxa68MX9cAIoEwGSn7UgyhGl4OhNSeGmEBs/y2SPjK+M8rNiLuVAP1/WQEg2360FZliz8vXsxel09LnNP0vCdZ5tR3HK04JS4PAdC8uwueysVaXG3P2o4Q6DDQwcmfK4a69QGZ28qbq5e6Ro18xEpXtT2TdbW4fAIFzUZWX7hoyWkAAChPZWLw7b1lzIMhzgarHPjnoWrzysEa4DMMc9GFMP+kVJX169cv+W3bPB3uEfNCG/ENiNnj3O1mY8HAQRBpxoQBrCR0crslGfKecnRXeAKdf4U3WgdF67cwM1Pod7duBmVI89YZLSVvAFANZ8JuNGBuF8nlmecL5+Ge4X3Rd9Jm66QgVoY5hdEO76QM2+aZH1FSKhzIEO5MWnGecvst0HjJjzEeIYHum+mho3cUAJVK24HGOQEiyYjMZ4lQpXZ1a+hN/t7vR+oW/JZY1dkDewrZUTD6t2u2UhtPF1TaFNknzfkBiiNhjAPJ8HOwGM7aC3lFxgkkUQWZgjoQDxejHHiUAl/zSagYOggklkLxJWAlgn9KQCoKAiu2rPdZRpmHp7GJ29Xx039/onxckQo1AVJ6HLU9ohe4IwRYQgxp4tGo8QRb1pE9ic1MkuHk4ycJv8jipOWkWrjLLRcfOLM8Wz8dRHniWj+wL3+H/917MftRPxq2UjyVtiOa4c/WzwBPbvlTES3k1unB7B0S7Fir5J05EPPrbwc/xmQDn56K3ZHxer1SW84pUFtsHllJ4r6sZ3RlIb7kCOHGgKTZ7EuO00/CpSZ075MdlZN7C8E4xg0oce82H/1u/9H4nM9+nvz2sD+tMOekBMbpdTCCldz8qg/0/lA3PVOfM59LIj2bsfMGNcqHdZJK1LYH/MwVKVFKrFBR0tiZ599sInMDdOQChos20ioA8Oo5mn99CojraC15oAAAIuPqwS9vbf1RPPxuWzhOhXdKh2lg3FRocu2h7LRwliWUsZQKW7GouDFuXnJ0isWG/K/gpHw4SkkkRjG0jiVFKt7RwOh2bFNk35XWkqFdZjG0jiVFKt7R8MbGNpHEqFdZjGV5k37SOJUUq3tHwxsY2kcSopVvaPhjYxtI4lRSre0eV+BzTrxxtxqEp+z3MMjwAAAAAAAAAAAAAAAAAAAAAAAAAAAAAAAAAAAAAAAAAAAAAAAAAAAAAAAAAAAAAAAAAAAAAAAAAAAAAAAAAAAAAAAAAAAAAAAAAAAAAAAAAAAAAAAAAAAAAAAAAAAAAAAAAAAAAAAAAAAAAAAAAAAAAAAAAAAAAAAAAAAAAAAAAAAAAAAAAAAAAAAAAAAAAAAAAAAAAAAAAAAAAAAAAAAAAAAAAAAAAAAAAAAAAAAAEVYSUbcAAAARXhpZgAATU0AKgAAAAgABQEAAAQAAAABAAAEOAEBAAQAAAABAAAJVIdpAAQAAAABAAAAXgESAAQAAAABAAAAAAEyAAIAAAAUAAAASgAAAAAyMDI0OjAyOjAxIDE5OjQ3OjIxAAADkAMAAgAAABQAAACIkAQAAgAAABQAAACckggABAAAAAEAAAAAAAAAADIwMjQ6MDI6MDEgMTk6NDc6MjEAMjAyNDowMjowMSAxOTo0NzoyMQAAAQEyAAIAAAAUAAAAwgAAAAAyMDI0OjAyOjAxIDE5OjQ3OjIxAA==;" vertex="1" parent="1">
          <mxGeometry x="360" y="280" width="1080" height="2388" as="geometry" />
        </mxCell>
        <mxCell id="Zwr6tEuQaPMuRpj-mVH1-2" value="&lt;font style=&quot;font-size: 50px;&quot;&gt;小横条，拖动可移动小窗，单击可打开/隐藏工具栏&lt;/font&gt;" style="rounded=1;whiteSpace=wrap;html=1;glass=0;shadow=0;fillColor=#76608a;strokeColor=none;fontColor=#ffffff;spacing=5;" parent="1" vertex="1">
          <mxGeometry x="870" y="370" width="460" height="200" as="geometry" />
        </mxCell>
        <mxCell id="Zwr6tEuQaPMuRpj-mVH1-5" value="" style="html=1;shadow=0;dashed=0;align=center;verticalAlign=middle;shape=mxgraph.arrows2.arrow;dy=0.6;dx=40;direction=north;notch=0;rotation=30;fillColor=#76608a;strokeColor=#432D57;fontColor=#ffffff;" parent="1" vertex="1">
          <mxGeometry x="910" y="560" width="100.94" height="210" as="geometry" />
        </mxCell>
        <mxCell id="Zwr6tEuQaPMuRpj-mVH1-6" value="&lt;font style=&quot;font-size: 50px;&quot;&gt;工具栏，分别是：显示/隐藏导航栏、最小化模式、全屏模式、断开连接、打开关闭被控端屏幕、唤醒/锁定被控端&lt;/font&gt;" style="rounded=1;whiteSpace=wrap;html=1;fillColor=#76608a;strokeColor=none;fontColor=#ffffff;spacing=5;" parent="1" vertex="1">
          <mxGeometry x="1400" y="747.5" width="560" height="355" as="geometry" />
        </mxCell>
        <mxCell id="Zwr6tEuQaPMuRpj-mVH1-7" value="" style="html=1;shadow=0;dashed=0;align=center;verticalAlign=middle;shape=mxgraph.arrows2.arrow;dy=0.6;dx=40;notch=0;fillColor=#76608a;strokeColor=#432D57;fontColor=#ffffff;" parent="1" vertex="1">
          <mxGeometry x="1085.05" y="860" width="310" height="130" as="geometry" />
        </mxCell>
        <mxCell id="Zwr6tEuQaPMuRpj-mVH1-8" value="&lt;font style=&quot;font-size: 50px;&quot;&gt;缩放拖动，小窗右下角可拖动，来改变小窗大小&lt;/font&gt;" style="rounded=1;whiteSpace=wrap;html=1;fillColor=#76608a;strokeColor=none;fontColor=#ffffff;" parent="1" vertex="1">
          <mxGeometry x="1410" y="2010" width="400" height="220" as="geometry" />
        </mxCell>
        <mxCell id="Zwr6tEuQaPMuRpj-mVH1-9" value="" style="html=1;shadow=0;dashed=0;align=center;verticalAlign=middle;shape=mxgraph.arrows2.arrow;dy=0.6;dx=40;notch=0;fillColor=#76608a;strokeColor=#432D57;fontColor=#ffffff;" parent="1" vertex="1">
          <mxGeometry x="1110" y="2110" width="290" height="100" as="geometry" />
        </mxCell>
        <mxCell id="Zwr6tEuQaPMuRpj-mVH1-10" value="&lt;font style=&quot;font-size: 50px;&quot;&gt;导航栏，分别是：旋转被控端、被控端最近任务键、被控端返回桌面键、被控端返回键&lt;/font&gt;" style="rounded=1;whiteSpace=wrap;html=1;fillColor=#76608a;strokeColor=#432D57;fontColor=#ffffff;" parent="1" vertex="1">
          <mxGeometry x="1390" y="1220" width="530" height="290" as="geometry" />
        </mxCell>
        <mxCell id="Zwr6tEuQaPMuRpj-mVH1-11" value="" style="html=1;shadow=0;dashed=0;align=center;verticalAlign=middle;shape=mxgraph.arrows2.arrow;dy=0.6;dx=40;notch=0;rotation=-45;fillColor=#76608a;strokeColor=#432D57;fontColor=#ffffff;" parent="1" vertex="1">
          <mxGeometry x="740" y="1740" width="810.1" height="143.68" as="geometry" />
        </mxCell>
      </root>
    </mxGraphModel>
  </diagram>
</mxfile>
